<svg width="138" height="150" viewBox="0 0 138 150" fill="none" xmlns="http://www.w3.org/2000/svg">
<g clip-path="url(#clip0_685_1176)">
<mask id="mask0_685_1176" style="mask-type:luminance" maskUnits="userSpaceOnUse" x="0" y="0" width="138" height="150">
<path d="M137.098 0H0.25V150H137.098V0Z" fill="white"/>
</mask>
<g mask="url(#mask0_685_1176)">
<path fill-rule="evenodd" clip-rule="evenodd" d="M52.0612 1.3335L35.537 8.83247L22.6006 11.9842L19.1219 14.3752L15.5346 19.2658L13.4685 25.5693L13.034 28.6123L10.86 31.2206V34.4811L9.12064 37.3068L8.25095 43.2842L6.29397 50.7832L4.22852 57.0867L2.05398 64.5856L1.61943 70.128L1.40186 75.6711L7.59822 78.388L15.317 80.1268L22.9267 80.2359L27.7097 83.0614L26.297 88.4953L25.8619 92.625L25.7534 97.0814L26.6231 99.4723L26.4055 100.559L24.8837 105.123L24.6661 108.601L26.0794 113.383L26.7315 115.774L25.8619 118.817L25.5358 121.317L26.514 125.012L26.8406 133.924L27.9273 143.487L28.797 144.357L38.6897 144.249L46.8431 145.987L56.5188 148.487L69.9988 149.03L81.7394 146.748L93.1546 142.836L101.09 140.119L109.026 138.597C108.99 135.554 108.954 132.511 108.918 129.468L106.852 121.752L110.005 111.97L109.135 107.841L108.592 105.558L109.678 97.0814C109.642 94.0383 109.606 90.9947 109.57 87.9517L109.244 82.1917L112.94 82.8438L115.875 82.3008L119.028 80.5614L130.551 77.5183L136.856 75.4535L135.335 68.1723L128.159 46.2186L128.703 41.0019L126.202 38.0676L121.311 19.2658L119.028 15.3533L106.635 10.1366L96.1982 6.7675L88.3709 2.20293L78.1521 4.05051L66.3025 4.48522L57.3885 2.42029L52.0612 1.3335Z" fill="#A5D1E6"/>
<path fill-rule="evenodd" clip-rule="evenodd" d="M1.63609 72.4849L27.3337 76.7109L28.9167 82.303L1.21973 76.7867L1.63609 72.4849Z" fill="white"/>
<path fill-rule="evenodd" clip-rule="evenodd" d="M109.548 80.2688C112.98 78.9706 116.516 79.6506 119.531 74.7063L135.497 70.7275C135.705 72.0354 138.439 73.5785 135.288 75.4427C132.137 77.3075 120.313 80.85 116.592 81.9148C112.872 82.9791 113.674 82.4136 112.424 82.7269C111.174 83.0409 109.579 83.1924 108.735 82.276L109.548 80.2688Z" fill="white"/>
<path fill-rule="evenodd" clip-rule="evenodd" d="M52.7224 2.0618C53.1042 2.0591 53.5199 2.06073 53.9745 2.06703C60.4109 2.05315 63.4436 6.70995 85.5921 3.35789C91.9418 3.81593 92.6921 2.69163 92.0739 4.81531C88.42 10.4368 90.0175 12.1232 83.4036 16.8703C80.8781 19.2403 77.0502 20.1078 74.066 20.5555C71.4157 22.0441 66.7018 20.9163 64.9787 19.8684C58.7612 17.9946 55.4818 15.7043 51.4109 11.5611L48.4927 4.21151C49.0721 3.12494 46.9987 2.10244 52.7224 2.0618ZM61.1218 10.1921C60.5278 10.2524 60.2666 10.4802 60.5393 10.9781C61.6303 12.9699 67.0666 14.8993 70.1793 14.9756C73.2915 15.052 79.2145 12.655 79.2145 11.4361C79.2145 10.2173 73.1248 11.4709 70.0127 11.3945C67.6781 11.3373 62.903 10.0113 61.1218 10.1921Z" fill="white"/>
<path d="M52.0277 1.85103C51.4154 1.84835 48.8651 3.19154 47.6627 4.15065C46.9817 4.69376 39.8584 7.40912 34.963 8.99142C29.4262 10.7811 27.8385 11.218 24.8704 11.7803C20.2234 12.6607 17.5754 14.6989 15.4325 19.0386C14.8256 20.2677 14.1049 22.2357 13.834 23.4137C13.5629 24.5916 13.2119 25.6889 13.0553 25.8488C12.8987 26.0086 12.7722 26.7067 12.7722 27.4054C12.7722 28.625 12.6423 28.8855 10.7844 31.4031C10.5226 31.7577 10.1993 32.9572 10.0647 34.074C9.88725 35.548 9.63005 36.315 9.11505 36.8629C8.51929 37.4969 8.35899 38.1233 8.1241 40.7663C7.82095 44.1769 7.67762 44.7644 5.58757 51.4089C3.97885 56.5237 2.66127 61.5667 1.78298 65.9371C1.11195 69.2758 0.555858 74.2037 0.762509 75.0116C0.834085 75.291 1.46674 75.7298 2.16639 75.9843L5.15101 77.0692C10.422 78.9849 12.1099 79.3098 17.4496 79.4334L22.5874 79.5516L23.661 80.6249C24.5972 81.5607 24.9214 81.6977 26.2506 81.6977C27.0865 81.6977 27.7725 81.7958 27.7723 81.9219C27.7715 82.5401 26.1354 88.6558 25.7904 89.3334C25.1676 90.5564 24.9436 94.4377 25.354 96.8395C25.9038 100.059 25.8334 101.158 24.876 104.327C23.8615 107.687 23.9603 108.796 25.6074 112.547C26.7049 115.046 26.7713 116.279 25.9319 118.407C25.233 120.18 25.1474 121.817 25.7019 122.789C25.962 123.244 26.1414 125.838 26.2681 130.949C26.4561 138.524 27.0054 142.821 27.8961 143.738C28.1924 144.043 28.7016 144.071 30.0904 143.85C32.1332 143.524 38.9743 143.876 41.3864 144.433C42.2288 144.628 44.5749 145.248 46.5949 145.807C50.2749 146.827 55.6192 147.955 57.9144 148.195C58.5879 148.266 62.1053 148.287 65.7244 148.243C71.055 148.176 72.9128 148.032 75.5163 147.493C80.9579 146.369 83.6833 145.504 89.6142 143.007C96.1381 140.259 100.916 138.804 104.679 138.419C106.217 138.262 106.833 138.064 107.05 137.659C107.44 136.93 107.425 130.384 107.027 127.376C106.852 126.059 106.42 124.138 106.065 123.107L105.422 121.238L106.549 118.608C108.725 113.543 109.043 109.544 107.451 107.199C106.858 106.325 106.724 105.846 106.879 105.123C108.683 96.7262 108.969 89.6783 107.764 83.2589L107.569 82.2274L109.675 82.4631C113.479 82.8928 115.101 82.4613 116.942 80.5231C117.603 79.8274 118.203 79.5461 119.39 79.3855C123.132 78.8795 128.051 77.6025 131.984 76.1128C135.638 74.7292 135.572 74.8443 134.591 71.608C134.258 70.5098 133.559 68.0934 133.04 66.2425C131.787 61.7789 129.98 55.9555 128.108 50.358C126.738 46.2604 126.601 45.6097 126.781 44.055C127.037 41.8484 126.569 40.1011 125.454 39.108C124.649 38.3912 124.563 38.112 124.374 35.4643C124.182 32.7529 122.996 27.2261 122.339 26.0008C122.174 25.6921 122.039 25.0963 122.039 24.6742C122.039 24.2521 121.668 22.9144 121.219 21.7025C119.98 18.3624 117.644 16.0131 113.639 14.0788C111.944 13.26 108.697 11.9567 106.425 11.1778C94.0815 6.94724 91.6126 5.93859 88.5167 3.88426C87.0695 2.92405 86.6287 2.76575 86.1042 3.01748C83.3449 4.34124 75.4259 5.51748 69.2634 5.51748C63.0918 5.51743 58.7639 4.66539 54.2456 2.56354C53.4039 2.17201 52.4039 1.85173 52.0277 1.8501V1.85103ZM51.6147 3.07156C51.7918 3.07156 52.2124 3.60756 52.5468 4.26259C53.6499 6.42409 56.908 10.4483 58.8524 12.0515C62.6601 15.1911 67.1074 16.6798 70.5257 15.9549C74.2194 15.1715 77.4304 13.5343 80.6656 10.7898C82.2657 9.43263 85.2882 6.08318 86.2576 4.59882L86.753 3.84999L88.0214 4.68726C88.7186 5.14858 89.2892 5.66635 89.2892 5.83703C89.2892 6.56469 87.369 9.85306 85.7859 11.8393C82.5422 15.9088 78.3083 18.3829 72.7612 19.4514C66.0342 20.7471 59.7858 18.7682 54.4404 13.6437C51.5749 10.8965 48.5831 6.53251 48.5831 5.10005C48.5831 4.66959 50.972 3.07175 51.6149 3.07175L51.6147 3.07156ZM91.2591 6.73912C91.3058 6.73912 92.2941 7.13421 93.4533 7.61172C94.6132 8.08924 96.3897 8.76378 97.3998 9.1153L105.015 11.7568C111.818 14.1162 115.245 15.7094 117.166 17.3994C118.651 18.7059 120.226 21.3494 120.794 23.4844C121.182 24.9435 121.065 25.2628 118.865 28.7497L117.626 30.7131L117.202 29.6635C116.54 28.0272 115.953 27.5467 114.641 27.5467C113.702 27.5467 113.223 27.7772 112.246 28.6965C110.839 30.022 110.551 30.9218 109.492 37.3344C109.117 39.606 108.755 41.5214 108.69 41.5914C108.624 41.6614 108.572 39.8321 108.572 37.5231C108.572 30.2946 107.321 23.5667 105.982 23.5667C105.216 23.5667 104.849 29.7482 105.281 35.3474C105.461 37.6889 105.657 40.1074 105.965 43.7614C106.696 52.4576 106.416 61.2843 105.18 68.5371C104.226 74.1377 103.984 74.9886 98.7682 90.6898C96.4151 97.7734 94.3525 103.993 94.1851 104.51C93.8171 105.646 93.7825 107.087 94.1257 107.087C94.7563 107.087 96.4473 104.757 100.567 98.2134L101.24 97.1461L101.033 98.0601C100.696 99.5328 99.2781 103.497 97.1518 108.921C94.8709 114.739 93.5661 117.59 92.1382 119.864C91.0208 121.643 90.8874 122.31 91.5956 122.582C92.4268 122.901 93.2939 121.712 95.4238 117.335C97.8381 112.373 99.4449 108.321 102.891 98.5195C103.454 96.9213 104.011 95.3758 104.13 95.0819C104.391 94.4395 104.897 94.6686 104.897 95.4298C104.897 95.7298 105.333 96.8443 105.864 97.9068C106.913 100.004 106.913 100.062 105.829 105.407C105.29 108.064 98.992 119.823 93.9784 127.541C92.2753 130.163 92.0479 131.102 93.1174 131.102C93.5412 131.102 94.2512 130.313 95.4535 128.501C97.9345 124.761 102.176 117.418 104.673 112.541C105.857 110.227 106.934 108.399 107.062 108.478C107.538 108.773 107.69 111.096 107.345 112.812C106.623 116.399 104.745 120.89 103.092 122.995C100.837 125.866 98.3359 128.527 96.7334 129.764C95.5239 130.696 95.0976 131.223 95.1643 131.686C95.2146 132.036 95.4657 132.363 95.7185 132.411C96.4182 132.544 99.8632 129.512 102.596 126.361L105.039 123.543L105.393 124.416C105.957 125.827 106.488 131.176 106.378 134.316L106.277 137.223L105.358 137.305C101.324 137.664 95.4699 139.423 88.829 142.27C84.4005 144.168 79.5658 145.669 75.0439 146.544C71.2733 147.274 62.0556 147.615 58.0677 147.175C54.8551 146.821 49.8727 145.771 46.4414 144.722C42.608 143.55 38.9214 142.882 36.2309 142.876C35.0291 142.875 33.7657 142.796 33.429 142.706C32.6534 142.496 28.4624 134.311 28.828 133.72C29.1874 133.138 31.1554 133.459 36.9504 135.052C41.0912 136.19 47.7531 137.862 50.2636 138.39C52.3309 138.824 53.8841 139.129 57.46 139.799C61.5681 140.569 73.4791 141.663 77.6571 141.656C80.6432 141.652 87.2477 140.872 88.0857 140.424C88.5804 140.159 88.655 139.984 88.3864 139.716C87.9741 139.304 84.409 139.376 82.8302 139.829C81.426 140.231 78.2944 140.205 76.5124 139.775C71.705 138.616 62.5152 135.185 55.821 132.051C54.1642 131.276 52.7529 130.642 52.6829 130.642C52.4018 130.642 46.5453 127.164 44.4956 125.778C41.1363 123.507 37.455 119.452 35.1521 115.495C34.0764 113.646 32.4642 110.889 31.5716 109.369C27.6845 102.748 26.5616 97.9122 28.9113 97.9122C29.5747 97.9122 30.3231 98.4922 32.3619 100.595C34.5207 102.821 35.4006 104.061 37.5291 107.859C40.7928 113.683 43.5114 117.775 46.1059 120.778C48.2833 123.298 49.5035 123.955 49.5035 122.606C49.5035 122.199 49.206 121.606 48.8487 121.285C48.0568 120.574 45.5219 117.316 45.5219 117.01C45.5219 116.889 46.2425 117.473 47.1263 118.307C54.427 125.2 66.5192 130.946 77.8105 132.889C85.3457 134.185 85.9211 134.229 85.9211 133.549C85.9211 133.296 85.8496 133.089 85.7623 133.089C85.1966 133.089 80.6814 131.729 79.5215 131.208C75.9649 129.612 73.168 128.079 72.6084 127.423C72.2713 127.028 71.032 126.06 69.8533 125.271C58.6842 117.788 45.4416 102.567 38.4671 89.1916C37.414 87.1722 36.2509 85.2225 35.8775 84.8577C34.483 83.4952 31.6509 73.1201 30.2561 64.2558C28.3131 51.908 27.9603 36.5484 29.2474 20.5182C29.4371 18.1548 29.5226 17.894 30.2207 17.5581C30.6416 17.3557 34.493 16.0523 38.7855 14.6631C43.078 13.2738 47.164 11.8871 47.8635 11.5793C48.5631 11.2715 49.3241 11.0951 49.5507 11.1901C49.777 11.2851 50.5534 12.1075 51.2789 13.0121C52.8839 15.0134 56.0673 17.6313 58.4811 18.9377C62.4491 21.0852 67.4317 22.0229 71.7529 21.4318C79.7083 20.3435 85.6089 16.3098 89.7973 9.10887C90.5552 7.80481 91.2136 6.73845 91.2597 6.73863L91.2591 6.73912ZM22.9652 21.3204C23.3939 21.245 23.4137 21.7833 22.9772 22.8948C22.4373 24.2686 21.7268 24.5518 21.0069 23.6848C20.6528 23.2584 20.7579 23.0533 21.7678 22.1282C22.3052 21.6357 22.708 21.3657 22.9652 21.3204ZM19.839 25.094C19.9736 25.094 20.4468 25.4095 20.8891 25.7897L21.6913 26.4795L21.2253 28.4665C20.9693 29.5586 20.6828 30.9665 20.5824 31.5974C20.482 32.2284 20.2911 32.7472 20.1635 32.7472C19.8751 32.7472 17.9751 30.8069 17.9751 30.5125C17.9751 30.3944 18.1653 30.3003 18.3998 30.3003C18.9815 30.3003 19.2143 29.5914 19.4202 27.1635C19.5167 26.0278 19.7045 25.094 19.839 25.094ZM121.726 27.8477C122.127 27.8477 122.96 31.7591 123.372 35.5718C123.726 38.8488 123.825 39.1965 124.569 39.7816C125.623 40.6103 126.003 42.0421 125.69 44.0211C125.47 45.4129 125.57 45.9767 126.521 48.7321C129.303 56.7848 133.104 69.534 132.809 69.8116C132.496 70.1068 129.886 70.8674 124.51 72.2346C121.915 72.8946 119.609 73.4377 119.384 73.4377C118.884 73.4377 118.861 71.9025 119.266 65.5837C119.426 63.0886 119.628 54.1927 119.714 45.8197L119.874 30.5955L120.676 29.2218C121.119 28.4663 121.592 27.8478 121.726 27.8478V27.8477ZM114.601 29.4395C115.385 29.4452 115.605 29.9271 115.568 31.2144C115.542 32.1206 115.233 32.5663 113.568 34.1095L111.604 35.9314L111.798 34.5694C111.906 33.8189 112.103 32.7923 112.241 32.2874C112.379 31.7826 112.577 30.9974 112.678 30.5421C112.822 29.8861 113.09 29.6682 113.964 29.5044C114.208 29.4586 114.419 29.4382 114.601 29.4395ZM16.9832 32.7769C17.1971 32.7752 17.6417 33.1125 18.5168 33.8972L20.1331 35.3476L19.7792 36.5682C19.4153 37.8363 19.5202 44.2437 20.0977 56.1494C20.2526 59.3463 20.5254 65.4443 20.6994 69.6989C20.8733 73.9534 21.0939 77.5583 21.1889 77.7116C21.284 77.8655 21.0886 78.1365 20.7583 78.3134C19.2922 79.0977 10.5066 78.2146 9.66304 77.1989C9.46477 76.9601 9.30931 76.1201 9.31501 75.3298C9.3212 74.4674 9.13494 73.6764 8.85489 73.3546C8.45775 72.8983 8.44605 72.6268 8.77231 71.5207C9.57239 68.8092 11.8393 66.1177 15.0072 64.1152C15.9847 63.4971 16.861 62.794 16.9536 62.5528C17.3584 61.4983 16.5976 60.3109 13.6917 57.4818L10.6599 54.5337L10.9784 53.3544C11.1543 52.7048 11.6985 50.7391 12.1876 48.9854C12.6768 47.2316 13.0783 45.4377 13.0783 44.9995C13.0783 43.8342 13.8865 42.8686 15.4084 42.2165C16.9042 41.5755 17.0795 41.0052 16.2696 39.4394C15.837 38.6031 15.8399 38.2737 16.2636 36.0137C16.5216 34.638 16.7707 33.2744 16.8181 32.9831C16.8394 32.8525 16.886 32.7778 16.9832 32.7769ZM117.868 33.7086C117.888 33.7078 117.911 33.7155 117.927 33.7321C118.188 33.9925 117.406 73.6268 117.119 74.7116C116.792 75.9474 115.515 77.1886 113.851 77.8837C113.261 78.1298 112.514 78.3316 112.188 78.3316C111.607 78.3316 111.597 78.0995 111.798 68.6146C111.974 60.3472 112.095 58.5629 112.612 56.6099C113.543 53.0926 113.954 51.4194 114.376 49.4165C114.589 48.4069 114.868 47.1678 115.002 46.6629C115.135 46.158 115.473 44.4406 115.75 42.8421C116.029 41.2437 116.388 39.3554 116.547 38.6499C116.705 37.9444 116.836 36.9438 116.836 36.4212C116.836 35.5648 117.56 33.7184 117.868 33.7089V33.7086ZM115.373 34.7344L115.202 35.6542C115.107 36.1591 114.942 37.1906 114.836 37.9478C114.487 40.4287 112.342 50.7946 112.134 51.0021C112.069 51.0678 111.932 50.6986 111.828 50.1767C111.723 49.655 111.5 49.3125 111.332 49.4161C111.165 49.5197 110.898 50.045 110.742 50.5837C110.368 51.8789 110.327 45.4474 110.689 42.3231C110.912 40.4008 111.119 39.8699 112.323 38.1899C113.083 37.1304 114.082 35.922 114.541 35.5012L115.373 34.7344ZM133.216 71.7043C133.487 71.6837 133.672 71.8886 133.783 72.3292C133.886 72.7395 134.049 73.2813 134.148 73.5383C134.266 73.8468 134.026 74.1607 133.441 74.4637C131.975 75.2213 126.985 76.7964 123.566 77.5825C119.88 78.4304 118.67 78.5134 118.67 77.9128C118.67 77.6843 118.755 76.8801 118.859 76.1261C119.028 74.8916 119.114 74.7704 119.761 74.894C120.43 75.0219 124.074 74.354 126.167 73.7207C126.672 73.568 128.327 73.0928 129.842 72.6595C131.357 72.2262 132.823 71.8013 133.098 71.7219C133.14 71.7098 133.177 71.7074 133.216 71.7043ZM23.9034 71.9461C23.9098 71.9431 23.9137 71.9449 23.9211 71.9522C24.0393 72.0607 24.6193 73.8474 25.2129 75.9261C25.8064 78.0043 26.3687 79.9474 26.4574 80.2419C26.5724 80.6225 26.4457 80.7789 26.0269 80.7789C24.9387 80.7789 24.3484 80.0546 24.2691 78.6207C24.2279 77.8728 24.0849 76.0195 23.9505 74.5049C23.8247 73.0849 23.808 71.988 23.9034 71.9461ZM116.694 78.5789C116.785 78.5661 116.836 78.5765 116.836 78.6146C116.836 79.1049 115.259 80.788 114.364 81.2504C113.329 81.7855 111.754 81.8358 111.45 81.3443C111.209 80.9546 112.112 80.1655 112.801 80.1655C113.043 80.1655 114.048 79.7534 115.037 79.2516C115.778 78.8746 116.42 78.6189 116.694 78.5789ZM28.056 85.8492C28.1302 85.8558 28.2048 86.0177 28.3155 86.2855C28.808 87.4752 29.8519 90.3395 30.0674 91.1025C30.1744 91.4813 30.2152 91.7874 30.1618 91.7807C30.1084 91.774 29.4005 91.1558 28.587 90.4074L27.1064 89.0449L27.5547 87.2819C27.8157 86.2528 27.9323 85.8389 28.056 85.8492ZM33.1407 93.5261C33.2568 93.5655 33.8004 94.3831 34.515 95.6134C38.7077 102.831 42.807 107.653 48.5833 112.158C51.8846 114.733 54.3992 117.189 54.3992 117.842C54.3992 119.031 51.6293 118.088 47.7514 115.578C44.6649 113.58 43.1682 111.896 40.4313 107.359C39.0724 105.106 37.3794 102.326 36.6739 101.179C35.4332 99.1643 33.5753 95.1958 33.1347 93.6267C33.1126 93.5474 33.1139 93.5171 33.1407 93.5261ZM25.2956 106.934L25.8738 108.314C29.2654 116.411 33.4916 123.218 36.7332 125.802C38.0669 126.866 46.557 131.253 47.2858 131.256C47.59 131.258 51.6262 132.913 52.7655 133.503C53.2659 133.761 53.8562 134.189 54.075 134.452C54.6495 135.144 54.2061 135.045 49.5035 133.479C45.8774 132.272 37.4382 128.713 31.8253 126.02C29.7641 125.031 27.8927 124.222 27.6668 124.222C27.4409 124.222 26.9992 123.458 26.6816 122.524C26.1056 120.83 26.1027 120.821 26.7821 118.927C27.7259 116.296 27.6637 114.624 26.5343 112.212C26.024 111.121 25.5408 109.492 25.4548 108.585L25.2956 106.934ZM27.2659 125.749C27.3406 125.749 29.1727 126.615 31.3359 127.672L37.5648 130.714C40.2178 132.009 40.174 132.025 36.4914 131.115C32.3444 130.09 29.8056 129.662 28.4928 129.776L27.3131 129.883L27.2187 127.813C27.1689 126.677 27.1911 125.749 27.2659 125.749Z" fill="black" fill-opacity="0.07107"/>
<path d="M53.4502 0.0776436C53.3861 0.0746212 53.3198 0.0791285 53.2498 0.08354H53.2379C53.1841 0.0832982 53.1211 0.094806 53.0552 0.107125C53.0478 0.108502 53.0391 0.105574 53.0316 0.107125C52.1904 0.240195 50.938 0.843764 48.82 2.08826C44.8386 4.42751 32.3518 8.84242 26.2749 10.0599C22.7637 10.7636 20.5141 11.6836 18.6597 13.1731C17.245 14.3096 15.1082 17.4147 14.165 19.7061C13.1971 22.0572 11.9413 26.4206 11.9413 27.4242C11.9413 27.9797 11.5406 28.8372 10.8972 29.6706C9.80846 31.0812 9.18948 32.8046 9.18657 34.4289C9.18566 34.9553 8.99298 35.5472 8.75603 35.7438C7.82134 36.5193 7.31392 38.2563 7.18696 41.1153C7.08492 43.4134 6.80584 44.7678 5.83618 47.7604C3.1111 56.171 1.22184 63.4546 0.769201 67.2776C0.704789 67.8213 0.603525 69.2461 0.515549 70.8267C0.51168 70.8964 0.507576 70.957 0.503752 71.0273C0.457926 71.7194 0.414438 72.4073 0.391677 73.0382C0.365397 73.7661 0.35262 74.3352 0.344488 74.8188C0.325979 75.9188 0.360729 76.4813 0.486056 76.8055C0.48811 76.8128 0.48985 76.8219 0.491955 76.8291C0.693056 77.5104 1.12489 77.674 1.93711 77.8431C2.47256 77.9546 3.66567 78.3643 4.59141 78.7516C6.31085 79.4704 9.47548 80.4546 11.9412 81.0449C12.6987 81.2261 15.4489 81.4552 18.0581 81.5522C22.4934 81.7164 22.8556 81.774 23.5791 82.4479C24.0048 82.8449 24.8122 83.3322 25.3723 83.5273C25.6732 83.6322 25.884 83.7061 26.0271 83.7988L26.0329 83.8043C26.1196 83.871 26.1853 83.9534 26.2394 84.0461C26.3201 84.2504 26.2789 84.5546 26.1923 85.0958C26.0854 85.7643 25.7109 87.0885 25.3606 88.0376C25.0103 88.9873 24.5963 90.5897 24.4346 91.5988C24.1118 93.6128 24.322 97.694 24.8415 99.4352C25.1145 100.35 25.0656 100.831 24.5642 102.189C22.9596 106.536 23.0312 109.492 24.8238 113.279C25.8753 115.501 25.9201 116.304 25.101 118.215C24.4107 119.824 24.2986 122.356 24.8709 123.362C25.1303 123.818 25.31 126.458 25.4372 131.676C25.5949 138.131 25.7272 139.772 26.3103 142.189C26.8624 144.476 27.0675 145.458 28.0976 145.844L28.1153 145.85C28.4066 145.995 28.7569 146.053 29.1888 146.045C29.9953 146.099 31.0894 146.051 32.6513 145.992C38.2008 145.781 41.142 146.144 46.7492 147.725C50.9868 148.92 52.957 149.336 56.6234 149.83C56.9698 149.876 57.6067 149.924 58.3989 149.965C58.5921 150.007 58.7286 150.047 58.7529 150.072C58.8521 150.171 60.9041 150.176 63.5542 150.131H63.6252C64.0969 150.138 64.5716 150.139 65.0409 150.142C75.9739 150.219 80.6904 149.301 91.0534 145.072C99.1209 141.78 101.905 140.946 106.561 140.426C107.913 140.275 109.157 140.018 109.321 139.853C110.673 138.502 110.324 126.39 108.832 122.819C108.405 121.798 108.43 121.621 109.251 119.63C110.786 115.908 111.217 114.085 111.215 111.333C111.213 109.224 111.082 108.476 110.513 107.377C109.74 105.884 109.748 105.536 110.678 100.779C111.086 98.6952 111.224 96.4091 111.239 91.3867L111.256 84.771L111.551 84.7534H113.132C115.366 84.7534 116.988 84.1413 118.446 82.7431C119.398 81.8316 119.901 81.6413 122.936 81.0685C128.982 79.9273 136.275 77.454 137.517 76.1213C137.668 75.9588 137.779 75.8255 137.853 75.6673L137.859 75.6558C137.979 75.4746 138.036 75.2946 138.036 75.1134C138.036 74.9673 137.97 74.6134 137.865 74.1407C137.783 73.6267 137.652 72.9588 137.464 72.0176C136.905 69.2176 132.706 55.3708 130.51 49.0763C129.576 46.4027 129.467 45.7804 129.636 44.1648C129.871 41.9302 129.461 40.2533 128.292 38.6401C127.617 37.7091 127.38 36.9634 127.224 35.3027C126.852 31.3551 124.5 22.1287 123.224 19.6187C120.893 15.0319 117.41 12.9198 105.345 8.78733C96.6975 5.82507 93.2149 4.39036 90.8345 2.79677C89.6098 1.97664 88.3602 1.21039 88.0564 1.09866C87.7405 0.982431 86.7589 1.20792 85.7621 1.62342C82.3244 3.05577 76.5438 3.92719 70.3958 3.94058C63.8265 3.95487 60.2374 3.13783 53.9623 0.202472C53.8096 0.130976 53.6418 0.0877248 53.4491 0.0786509L53.4502 0.0776436ZM52.8603 2.73085C52.8626 2.73172 52.8639 2.72979 52.8664 2.73085C52.8683 2.73175 52.8702 2.73572 52.8722 2.73675L54.3351 5.24845C56.1834 8.42824 60.5548 12.8613 63.2123 14.2579C64.226 14.7903 66.0838 15.4636 67.3419 15.7496C69.3215 16.1997 69.8944 16.2151 71.6181 15.8793C74.0452 15.4066 76.7687 14.2188 79.1625 12.5833C80.9353 11.3722 85.4311 6.92708 86.9547 4.88292L87.7448 3.82749L89.1666 4.7296C90.0487 5.28685 90.5938 5.85526 90.5938 6.21545C90.5944 7.04787 88.7476 10.2141 87.0135 12.3534C83.7577 16.3692 79.5275 18.9157 74.2962 20.0067C64.9294 21.9599 54.9861 16.8822 50.288 7.7483C48.9393 5.12583 48.9803 4.9579 51.3026 3.62092L52.8598 2.73058L52.8603 2.73085ZM55.2906 4.01622C55.5541 4.032 56.4835 4.30815 57.538 4.68839C61.3436 6.06072 63.0759 6.43642 67.6068 6.51624C69.3663 6.69957 70.4922 6.69957 72.6501 6.51624C77.6218 6.42739 80.8595 6.03134 83.8577 5.17189C84.4276 5.00855 84.9479 4.92889 85.0139 4.995C85.08 5.06111 84.2621 6.03375 83.1968 7.15309C81.2348 9.21557 81.1111 9.27612 77.5873 10.0776C75.7253 10.5012 68.0828 10.6822 65.5247 10.3607C64.277 10.2039 62.1367 9.72957 60.7646 9.31115C58.2761 8.55242 58.2615 8.54896 56.6768 6.35715C55.8029 5.14838 55.1494 4.09868 55.22 4.02811C55.2287 4.0193 55.253 4.01398 55.2906 4.01622ZM47.7226 5.80279C47.725 5.80304 47.7262 5.80836 47.7286 5.8087L49.0322 8.30872C50.0741 10.3108 51.0177 11.5038 53.7098 14.2108C56.4579 16.9742 57.5368 17.8327 59.5317 18.8451C65.5939 21.9219 71.2622 22.3834 77.4933 20.3074C83.1538 18.4211 88.0619 14.0757 91.0661 8.2849C91.6718 7.11642 92.0471 6.69448 92.3988 6.80496C92.6692 6.88969 94.2032 7.47121 95.802 8.09036C97.4014 8.70951 101.652 10.2281 105.252 11.4688C117.231 15.5981 120.06 17.5705 121.821 23.0195L122.417 24.8533C122.421 24.9174 122.423 24.9834 122.423 25.0419C122.423 25.0859 122.412 25.1384 122.4 25.2012L121.049 27.6185C120.259 29.0238 119.288 30.5695 118.89 31.0561C118.185 31.9172 118.163 31.9236 118.152 31.2389C118.14 30.4493 117.321 28.6933 116.802 28.3499C116.264 27.9948 114.627 28.0818 114.224 28.4855C113.455 29.2544 113.805 29.664 115.055 29.4642C116.059 29.3038 116.302 29.3746 116.583 29.9006C117.086 30.8404 117.016 33.0138 116.483 33.0138C116.244 33.0138 115.227 33.9195 114.224 35.0304C113.221 36.1412 112.326 36.9334 112.236 36.7874C112.075 36.5268 112.311 35.1376 113.085 31.7874C113.299 30.8619 113.407 29.9965 113.327 29.8593C112.981 29.2646 112.12 30.695 111.758 32.4653C110.834 36.9853 110.694 37.8684 110.307 41.5336C110.136 43.1548 109.625 55.5333 109.269 66.6637C109.1 71.9643 108.857 77.1976 108.726 78.291C108.59 79.4291 107.359 83.6146 105.848 88.0788C104.395 92.3698 102.762 97.257 102.22 98.9394C99.84 106.327 95.6832 116.513 93.6435 119.955C92.9778 121.078 92.434 122.081 92.434 122.19C92.434 122.298 92.7274 122.344 93.0888 122.29C94.5427 122.073 98.7547 112.639 103.441 99.0934C103.819 98.0001 104.589 95.9364 105.152 94.5061C105.714 93.0758 106.611 90.6358 107.145 89.0819C107.68 87.5279 108.236 86.331 108.384 86.4225C108.762 86.6558 108.719 95.0091 108.325 98.1619C107.446 105.187 106.867 107.221 104.326 112.183C101.857 117.005 99.0027 121.996 95.5661 127.496C94.2159 129.656 93.6884 130.76 93.903 130.975C94.0752 131.147 94.3596 131.2 94.5336 131.092C95.3333 130.599 102.671 118.076 105.83 111.817C107.637 108.238 107.867 107.919 108.242 108.432C108.933 109.376 108.89 112.333 108.154 115.001C107.378 117.81 105.575 121.789 104.273 123.568C103.595 124.493 101.541 126.73 99.7072 128.538C96.5132 131.686 95.6656 133.098 97.6779 131.911C98.6632 131.33 103.211 126.738 105.034 124.487L106.149 123.108L106.491 123.981C107.104 125.564 107.58 129.772 107.7 133.102C107.7 133.13 107.7 133.157 107.7 133.184C107.697 133.439 107.689 133.692 107.682 133.945L107.606 136.876V136.881C107.548 137.238 107.47 137.482 107.37 137.583C107.167 137.785 106.54 137.949 105.978 137.949C103.109 137.949 97.4257 139.664 89.9863 142.772C83.1562 145.624 77.7346 147.081 71.5709 147.73C68.9007 148.012 62.7254 148.073 60.2983 147.842C56.3926 147.472 51.3277 146.423 46.4777 144.983C42.5695 143.822 37.2417 143.109 32.9581 143.173C31.1352 143.199 29.5291 143.101 29.3894 142.955C28.7996 142.335 28.17 136.523 28.0504 130.59C27.9481 125.52 27.8161 124.003 27.3661 122.736C27.1026 121.995 26.9633 121.594 26.965 121.174C26.9673 121.115 26.9724 121.052 26.9767 120.991C26.9779 120.978 26.9816 120.964 26.9828 120.95C27.0298 120.547 27.1961 120.064 27.49 119.228C28.4398 116.525 28.3671 114.919 27.1832 112.371C25.8485 109.498 25.8159 107.042 27.0652 103.309L27.956 100.638L27.4486 98.5207C26.6979 95.4116 26.784 92.3206 27.7023 89.4285C28.1229 88.1043 28.5489 86.5704 28.6519 86.0207C28.8696 84.8613 29.2433 84.7194 29.4777 85.7079C29.9328 87.6267 33.4588 97.2231 34.7985 100.189C37.4544 106.07 42.2645 114.359 45.5281 118.674C46.8889 120.473 49.5581 123.261 49.9167 123.261C50.5766 123.261 50.0962 122.261 48.6367 120.602C47.7772 119.624 46.4853 118.003 45.7699 116.993C42.5799 112.49 36.2524 100.405 33.7544 94.0461C32.7297 91.437 30.7649 85.4407 28.9412 79.3649C28.4866 77.8504 27.9945 76.2655 27.8499 75.8449C26.7838 72.7425 25.2117 63.2582 25.5199 61.7879C25.6105 61.3564 25.4927 59.834 25.2604 58.4036C24.1409 51.5119 23.9351 44.0744 24.6764 37.6017C25.4984 30.4242 25.5241 29.061 24.8887 27.3601C24.4533 26.1938 23.9976 25.6255 22.9481 24.9308C22.1944 24.4319 21.4724 23.8419 21.3378 23.6218C20.9781 23.0334 19.6584 23.1385 19.3145 23.781C19.1509 24.0865 18.9708 25.2219 18.9135 26.3046C18.8561 27.3872 18.6761 28.2629 18.5123 28.2563C18.0502 28.2374 15.8403 24.4104 15.8403 23.6278C15.8403 22.5563 17.123 19.5936 18.424 17.655C20.2802 14.8888 21.9932 13.8119 25.8682 12.9734C31.4436 11.767 41.4957 8.57272 45.9764 6.58193L47.7224 5.80366L47.7226 5.80279ZM61.4194 11.0622C61.5437 11.0563 61.7838 11.0959 62.1628 11.1625C62.7369 11.2634 63.6852 11.5013 64.2745 11.6872C65.8352 12.1796 75.4567 12.1392 76.9209 11.6342C77.5636 11.4125 78.162 11.3005 78.2481 11.3865C78.4725 11.6108 75.8769 13.0804 73.9894 13.798C72.1359 14.5031 68.6357 14.7675 66.9114 14.3346C65.4338 13.9637 62.3471 12.3402 61.6438 11.5633C61.3261 11.2124 61.2127 11.0719 61.4194 11.0621V11.0622ZM20.8537 25.1248C21.6175 25.1536 23.1969 26.934 23.567 28.2557C23.9229 29.5257 23.7977 32.9802 23.3547 34.1342C23.2692 34.3572 23.1091 34.5384 23.0008 34.5351C22.4415 34.5185 19.8655 32.6119 19.0251 31.5929C17.8389 30.1544 17.7718 29.5599 18.8245 29.824C19.7388 30.0533 19.8446 29.8433 20.14 27.2002C20.259 26.1338 20.5175 25.207 20.7121 25.1425C20.7551 25.1282 20.8029 25.1227 20.8537 25.1248ZM122.829 27.3889C122.939 27.3953 123.01 27.5606 123.113 27.831C123.684 29.3423 124.54 33.8495 124.747 36.4395C124.939 38.8495 125.038 39.1753 125.826 39.877C126.909 40.8421 127.144 41.7393 126.929 44.1106C126.776 45.7967 126.921 46.4359 128.433 50.8853C129.883 55.1508 134.288 69.4473 134.355 70.0946C134.353 70.1128 134.355 70.1303 134.349 70.1479C134.099 70.4237 130.053 71.7322 127.631 72.3122C126.537 72.574 125.159 72.9164 124.57 73.0728C123.98 73.2285 120.296 74.1388 119.497 74.3394C118.571 75.2831 118.695 74.2455 119.072 75.1134C119.956 75.1134 127.593 73.5831 131.418 72.4237C133.079 71.9201 134.537 71.6237 134.662 71.7637C134.788 71.9031 135.054 72.5013 135.252 73.0904C135.573 74.0461 135.542 74.2134 134.98 74.6704C134.126 75.3655 128.525 77.2007 124.416 78.1316C122.564 78.551 120.664 78.8964 120.193 78.8982L119.332 78.9037L119.497 76.3801C119.883 70.394 120.076 63.034 120.252 47.3878L120.441 30.7957C120.472 30.7218 120.507 30.6448 120.547 30.5599L121.632 28.8972C122.352 27.801 122.646 27.377 122.829 27.3878V27.3889ZM14.6191 27.8134C14.7456 27.8134 15.1895 28.4657 15.6101 29.2638C16.3747 30.7151 19.6632 34.0884 21.9392 35.7616L23.1425 36.6519L22.8771 39.1933C22.58 41.9987 22.829 52.0529 23.2841 55.6497C23.444 56.9116 23.696 59.7359 23.8503 61.9231C24.0049 64.1104 24.2756 66.7273 24.4463 67.737C24.809 69.8843 26.3676 75.9716 27.2717 78.7685C27.6181 79.8407 27.8152 80.8594 27.7082 81.0328C27.297 81.6976 26.1891 81.3055 25.0714 80.0952C23.83 78.751 23.6673 78.711 20.6592 79.0637C20.5008 79.0819 20.3344 79.0976 20.1696 79.1104L18.8071 79.0988C18.1099 79.091 17.523 79.08 16.9844 79.0691C13.3646 78.7546 8.92652 77.5964 4.43791 75.7437C2.92969 75.1213 2.58874 74.8419 2.50901 74.1873C2.45197 73.7188 2.58602 73.3273 2.83345 73.2322C3.06486 73.1437 12.2362 75.7437 14.4069 75.8449C16.9844 76.4152 26.7251 77.0631 26.9592 76.8291C27.59 75.3843 21.1836 76.2031 6.00701 72.3479C4.46956 71.8128 3.16886 71.3358 2.95141 71.2273C2.92861 71.1916 2.90875 71.1534 2.89243 71.1152C2.8843 70.3413 3.94579 64.5679 4.62072 61.7813C5.46346 58.3023 7.89113 50.0351 8.59045 48.2616C9.26624 46.548 10.0991 41.9855 10.1005 39.9951C10.1012 38.9218 10.2934 38.341 10.8614 37.6661C11.8705 36.4676 12.2476 35.3959 12.2476 33.7274C12.2476 32.5872 12.4332 32.1219 13.3153 31.0918C14.0731 30.2068 14.3888 29.5463 14.3888 28.8276C14.3888 28.2691 14.4923 27.8134 14.6189 27.8134H14.6191ZM119.143 33.3265C119.164 33.3287 119.181 33.335 119.196 33.3501C119.422 33.5755 118.825 72.531 118.571 74.1576C118.289 75.9655 117.635 76.8734 115.81 77.9782C114.548 78.7431 113.704 79.0073 112.129 79.134L110.088 79.2988L110.295 78.1079C110.715 75.6922 111.092 64.4037 111.074 54.7344C111.056 45.2718 111.33 41.0518 112.053 39.6872C112.611 38.6338 116.022 34.5399 116.341 34.5399C116.562 34.5399 116.604 35.0789 116.471 36.1495C115.886 40.8629 113.627 51.6599 112.808 53.6612C112.602 54.1661 112.178 55.577 111.864 56.798C111.405 58.5836 111.365 59.0919 111.676 59.3982C111.984 59.7023 112.14 59.6759 112.454 59.2508C112.777 58.8131 114.032 54.0689 115.705 46.9336C116.184 44.8895 116.835 41.2648 117.22 38.5197C117.421 37.0895 117.641 35.6427 117.71 35.3063C117.855 34.5957 118.826 33.2889 119.143 33.3251V33.3265ZM117.851 78.2904C118.969 78.2904 116.803 81.171 115.173 81.8522C114.208 82.2552 113.107 82.3316 111.87 82.0704L110.566 81.7928C109.377 81.5388 109.731 80.7376 111.032 80.7376C112.309 80.7376 114.846 79.8934 116.495 78.9213C117.084 78.574 117.693 78.2904 117.851 78.2904ZM36.5086 85.6728C35.8503 85.6376 36.0786 86.4867 37.3755 89.0807C44.4499 103.227 57.6461 118.53 70.2437 127.188C72.3754 128.653 74.1192 128.946 73.2225 127.689C73.0988 127.516 71.583 126.373 69.8544 125.148C65.7091 122.211 63.5797 120.429 59.5729 116.546C51.8246 109.035 44.0114 98.6885 39.1287 89.4643C37.9435 87.2249 36.984 85.7534 36.6571 85.6904C36.6056 85.6807 36.5537 85.6752 36.5097 85.6728H36.5086ZM28.7754 125.042C28.5457 125.061 28.4687 125.193 28.4687 125.419C28.4687 125.766 33.2903 128.209 38.3606 130.432C40.4092 131.33 43.0514 132.524 44.2298 133.079C45.4083 133.635 47.8183 134.6 49.5858 135.231C52.8536 136.398 54.6351 136.615 54.6351 135.844C54.6351 135.762 54.4861 135.646 54.2339 135.502L54.2221 135.49C54.1118 135.399 53.9625 135.322 53.8092 135.278L53.7915 135.272C53.1386 134.967 52.1302 134.584 50.8069 134.14C46.4443 132.676 39.2542 129.678 33.1698 126.782C30.5065 125.513 29.2805 125.001 28.7754 125.042V125.042Z" fill="black"/>
</g>
</g>
<defs>
<clipPath id="clip0_685_1176">
<rect width="136.848" height="150" fill="white" transform="translate(0.25)"/>
</clipPath>
</defs>
</svg>
