<svg width="138" height="150" viewBox="0 0 138 150" fill="none" xmlns="http://www.w3.org/2000/svg">
<g clip-path="url(#clip0_685_1231)">
<mask id="mask0_685_1231" style="mask-type:luminance" maskUnits="userSpaceOnUse" x="0" y="0" width="138" height="150">
<path d="M137.598 0H0.75V150H137.598V0Z" fill="white"/>
</mask>
<g mask="url(#mask0_685_1231)">
<path fill-rule="evenodd" clip-rule="evenodd" d="M52.5612 1.3335L36.037 8.83247L23.1006 11.9842L19.6219 14.3752L16.0346 19.2658L13.9685 25.5693L13.534 28.6123L11.36 31.2206V34.4811L9.62064 37.3068L8.75095 43.2842L6.79397 50.7832L4.72852 57.0867L2.55398 64.5856L2.11943 70.128L1.90186 75.6711L8.09822 78.388L15.817 80.1268L23.4267 80.2359L28.2097 83.0614L26.797 88.4953L26.3619 92.625L26.2534 97.0814L27.1231 99.4723L26.9055 100.559L25.3837 105.123L25.1661 108.601L26.5794 113.383L27.2315 115.774L26.3619 118.817L26.0358 121.317L27.014 125.012L27.3406 133.924L28.4273 143.487L29.297 144.357L39.1897 144.249L47.3431 145.987L57.0188 148.487L70.4988 149.03L82.2394 146.748L93.6546 142.836L101.59 140.119L109.526 138.597C109.49 135.554 109.454 132.511 109.418 129.468L107.352 121.752L110.505 111.97L109.635 107.841L109.092 105.558L110.178 97.0814C110.142 94.0383 110.106 90.9947 110.07 87.9517L109.744 82.1917L113.44 82.8438L116.375 82.3008L119.528 80.5614L131.051 77.5183L137.356 75.4535L135.835 68.1723L128.659 46.2186L129.203 41.0019L126.702 38.0676L121.811 19.2658L119.528 15.3533L107.135 10.1366L96.6982 6.7675L88.8709 2.20293L78.6521 4.05051L66.8025 4.48522L57.8885 2.42029L52.5612 1.3335Z" fill="white"/>
<path fill-rule="evenodd" clip-rule="evenodd" d="M2.13609 72.4849L27.8337 76.7109L29.4167 82.303L1.71973 76.7867L2.13609 72.4849Z" fill="#D37F1F"/>
<path fill-rule="evenodd" clip-rule="evenodd" d="M110.048 80.2688C113.48 78.9706 117.016 79.6506 120.031 74.7063L135.997 70.7275C136.205 72.0354 138.939 73.5785 135.788 75.4427C132.637 77.3075 120.813 80.85 117.092 81.9148C113.372 82.9791 114.174 82.4136 112.924 82.7269C111.674 83.0409 110.079 83.1924 109.235 82.276L110.048 80.2688Z" fill="#D37F1F"/>
<path fill-rule="evenodd" clip-rule="evenodd" d="M53.2224 2.0618C53.6042 2.0591 54.0199 2.06073 54.4745 2.06703C60.9109 2.05315 63.9436 6.70995 86.0921 3.35789C92.4418 3.81593 93.1921 2.69163 92.5739 4.81531C88.92 10.4368 90.5175 12.1232 83.9036 16.8703C81.3781 19.2403 77.5502 20.1078 74.566 20.5555C71.9157 22.0441 67.2018 20.9163 65.4787 19.8684C59.2612 17.9946 55.9818 15.7043 51.9109 11.5611L48.9927 4.21151C49.5721 3.12494 47.4987 2.10244 53.2224 2.0618ZM61.6218 10.1921C61.0278 10.2524 60.7666 10.4802 61.0393 10.9781C62.1303 12.9699 67.5666 14.8993 70.6793 14.9756C73.7915 15.052 79.7145 12.655 79.7145 11.4361C79.7145 10.2173 73.6248 11.4709 70.5127 11.3945C68.1781 11.3373 63.403 10.0113 61.6218 10.1921Z" fill="#D37F1F"/>
<path d="M52.5277 1.85103C51.9154 1.84835 49.3651 3.19154 48.1627 4.15065C47.4817 4.69376 40.3584 7.40912 35.463 8.99142C29.9262 10.7811 28.3385 11.218 25.3704 11.7803C20.7234 12.6607 18.0754 14.6989 15.9325 19.0386C15.3256 20.2677 14.6049 22.2357 14.334 23.4137C14.0629 24.5916 13.7119 25.6889 13.5553 25.8488C13.3987 26.0086 13.2722 26.7067 13.2722 27.4054C13.2722 28.625 13.1423 28.8855 11.2844 31.4031C11.0226 31.7577 10.6993 32.9572 10.5647 34.074C10.3872 35.548 10.1301 36.315 9.61505 36.8629C9.01929 37.4969 8.85899 38.1233 8.6241 40.7663C8.32095 44.1769 8.17762 44.7644 6.08757 51.4089C4.47885 56.5237 3.16127 61.5667 2.28298 65.9371C1.61195 69.2758 1.05586 74.2037 1.26251 75.0116C1.33409 75.291 1.96674 75.7298 2.66639 75.9843L5.65101 77.0692C10.922 78.9849 12.6099 79.3098 17.9496 79.4334L23.0874 79.5516L24.161 80.6249C25.0972 81.5607 25.4214 81.6977 26.7506 81.6977C27.5865 81.6977 28.2725 81.7958 28.2723 81.9219C28.2715 82.5401 26.6354 88.6558 26.2904 89.3334C25.6676 90.5564 25.4436 94.4377 25.854 96.8395C26.4038 100.059 26.3334 101.158 25.376 104.327C24.3615 107.687 24.4603 108.796 26.1074 112.547C27.2049 115.046 27.2713 116.279 26.4319 118.407C25.733 120.18 25.6474 121.817 26.2019 122.789C26.462 123.244 26.6414 125.838 26.7681 130.949C26.9561 138.524 27.5054 142.821 28.3961 143.738C28.6924 144.043 29.2016 144.071 30.5904 143.85C32.6332 143.524 39.4743 143.876 41.8864 144.433C42.7288 144.628 45.0749 145.248 47.0949 145.807C50.7749 146.827 56.1192 147.955 58.4144 148.195C59.0879 148.266 62.6053 148.287 66.2244 148.243C71.555 148.176 73.4128 148.032 76.0163 147.493C81.4579 146.369 84.1833 145.504 90.1142 143.007C96.6381 140.259 101.416 138.804 105.179 138.419C106.717 138.262 107.333 138.064 107.55 137.659C107.94 136.93 107.925 130.384 107.527 127.376C107.352 126.059 106.92 124.138 106.565 123.107L105.922 121.238L107.049 118.608C109.225 113.543 109.543 109.544 107.951 107.199C107.358 106.325 107.224 105.846 107.379 105.123C109.183 96.7262 109.469 89.6783 108.264 83.2589L108.069 82.2274L110.175 82.4631C113.979 82.8928 115.601 82.4613 117.442 80.5231C118.103 79.8274 118.703 79.5461 119.89 79.3855C123.632 78.8795 128.551 77.6025 132.484 76.1128C136.138 74.7292 136.072 74.8443 135.091 71.608C134.758 70.5098 134.059 68.0934 133.54 66.2425C132.287 61.7789 130.48 55.9555 128.608 50.358C127.238 46.2604 127.101 45.6097 127.281 44.055C127.537 41.8484 127.069 40.1011 125.954 39.108C125.149 38.3912 125.063 38.112 124.874 35.4643C124.682 32.7529 123.496 27.2261 122.839 26.0008C122.674 25.6921 122.539 25.0963 122.539 24.6742C122.539 24.2521 122.168 22.9144 121.719 21.7025C120.48 18.3624 118.144 16.0131 114.139 14.0788C112.444 13.26 109.197 11.9567 106.925 11.1778C94.5815 6.94724 92.1126 5.93859 89.0167 3.88426C87.5695 2.92405 87.1287 2.76575 86.6042 3.01748C83.8449 4.34124 75.9259 5.51748 69.7634 5.51748C63.5918 5.51743 59.2639 4.66539 54.7456 2.56354C53.9039 2.17201 52.9039 1.85173 52.5277 1.8501V1.85103ZM52.1147 3.07156C52.2918 3.07156 52.7124 3.60756 53.0468 4.26259C54.1499 6.42409 57.408 10.4483 59.3524 12.0515C63.1601 15.1911 67.6074 16.6798 71.0257 15.9549C74.7194 15.1715 77.9304 13.5343 81.1656 10.7898C82.7657 9.43263 85.7882 6.08318 86.7576 4.59882L87.253 3.84999L88.5214 4.68726C89.2186 5.14858 89.7892 5.66635 89.7892 5.83703C89.7892 6.56469 87.869 9.85306 86.2859 11.8393C83.0422 15.9088 78.8083 18.3829 73.2612 19.4514C66.5342 20.7471 60.2858 18.7682 54.9404 13.6437C52.0749 10.8965 49.0831 6.53251 49.0831 5.10005C49.0831 4.66959 51.472 3.07175 52.1149 3.07175L52.1147 3.07156ZM91.7591 6.73912C91.8058 6.73912 92.7941 7.13421 93.9533 7.61172C95.1132 8.08924 96.8897 8.76378 97.8998 9.1153L105.515 11.7568C112.318 14.1162 115.745 15.7094 117.666 17.3994C119.151 18.7059 120.726 21.3494 121.294 23.4844C121.682 24.9435 121.565 25.2628 119.365 28.7497L118.126 30.7131L117.702 29.6635C117.04 28.0272 116.453 27.5467 115.141 27.5467C114.202 27.5467 113.723 27.7772 112.746 28.6965C111.339 30.022 111.051 30.9218 109.992 37.3344C109.617 39.606 109.255 41.5214 109.19 41.5914C109.124 41.6614 109.072 39.8321 109.072 37.5231C109.072 30.2946 107.821 23.5667 106.482 23.5667C105.716 23.5667 105.349 29.7482 105.781 35.3474C105.961 37.6889 106.157 40.1074 106.465 43.7614C107.196 52.4576 106.916 61.2843 105.68 68.5371C104.726 74.1377 104.484 74.9886 99.2682 90.6898C96.9151 97.7734 94.8525 103.993 94.6851 104.51C94.3171 105.646 94.2825 107.087 94.6257 107.087C95.2563 107.087 96.9473 104.757 101.067 98.2134L101.74 97.1461L101.533 98.0601C101.196 99.5328 99.7781 103.497 97.6518 108.921C95.3709 114.739 94.0661 117.59 92.6382 119.864C91.5208 121.643 91.3874 122.31 92.0956 122.582C92.9268 122.901 93.7939 121.712 95.9238 117.335C98.3381 112.373 99.9449 108.321 103.391 98.5195C103.954 96.9213 104.511 95.3758 104.63 95.0819C104.891 94.4395 105.397 94.6686 105.397 95.4298C105.397 95.7298 105.833 96.8443 106.364 97.9068C107.413 100.004 107.413 100.062 106.329 105.407C105.79 108.064 99.492 119.823 94.4784 127.541C92.7753 130.163 92.5479 131.102 93.6174 131.102C94.0412 131.102 94.7512 130.313 95.9535 128.501C98.4345 124.761 102.676 117.418 105.173 112.541C106.357 110.227 107.434 108.399 107.562 108.478C108.038 108.773 108.19 111.096 107.845 112.812C107.123 116.399 105.245 120.89 103.592 122.995C101.337 125.866 98.8359 128.527 97.2334 129.764C96.0239 130.696 95.5976 131.223 95.6643 131.686C95.7146 132.036 95.9657 132.363 96.2185 132.411C96.9182 132.544 100.363 129.512 103.096 126.361L105.539 123.543L105.893 124.416C106.457 125.827 106.988 131.176 106.878 134.316L106.777 137.223L105.858 137.305C101.824 137.664 95.9699 139.423 89.329 142.27C84.9005 144.168 80.0658 145.669 75.5439 146.544C71.7733 147.274 62.5556 147.615 58.5677 147.175C55.3551 146.821 50.3727 145.771 46.9414 144.722C43.108 143.55 39.4214 142.882 36.7309 142.876C35.5291 142.875 34.2657 142.796 33.929 142.706C33.1534 142.496 28.9624 134.311 29.328 133.72C29.6874 133.138 31.6554 133.459 37.4504 135.052C41.5912 136.19 48.2531 137.862 50.7636 138.39C52.8309 138.824 54.3841 139.129 57.96 139.799C62.0681 140.569 73.9791 141.663 78.1571 141.656C81.1432 141.652 87.7477 140.872 88.5857 140.424C89.0804 140.159 89.155 139.984 88.8864 139.716C88.4741 139.304 84.909 139.376 83.3302 139.829C81.926 140.231 78.7944 140.205 77.0124 139.775C72.205 138.616 63.0152 135.185 56.321 132.051C54.6642 131.276 53.2529 130.642 53.1829 130.642C52.9018 130.642 47.0453 127.164 44.9956 125.778C41.6363 123.507 37.955 119.452 35.6521 115.495C34.5764 113.646 32.9642 110.889 32.0716 109.369C28.1845 102.748 27.0616 97.9122 29.4113 97.9122C30.0747 97.9122 30.8231 98.4922 32.8619 100.595C35.0207 102.821 35.9006 104.061 38.0291 107.859C41.2928 113.683 44.0114 117.775 46.6059 120.778C48.7833 123.298 50.0035 123.955 50.0035 122.606C50.0035 122.199 49.706 121.606 49.3487 121.285C48.5568 120.574 46.0219 117.316 46.0219 117.01C46.0219 116.889 46.7425 117.473 47.6263 118.307C54.927 125.2 67.0192 130.946 78.3105 132.889C85.8457 134.185 86.4211 134.229 86.4211 133.549C86.4211 133.296 86.3496 133.089 86.2623 133.089C85.6966 133.089 81.1814 131.729 80.0215 131.208C76.4649 129.612 73.668 128.079 73.1084 127.423C72.7713 127.028 71.532 126.06 70.3533 125.271C59.1842 117.788 45.9416 102.567 38.9671 89.1916C37.914 87.1722 36.7509 85.2225 36.3775 84.8577C34.983 83.4952 32.1509 73.1201 30.7561 64.2558C28.8131 51.908 28.4603 36.5484 29.7474 20.5182C29.9371 18.1548 30.0226 17.894 30.7207 17.5581C31.1416 17.3557 34.993 16.0523 39.2855 14.6631C43.578 13.2738 47.664 11.8871 48.3635 11.5793C49.0631 11.2715 49.8241 11.0951 50.0507 11.1901C50.277 11.2851 51.0534 12.1075 51.7789 13.0121C53.3839 15.0134 56.5673 17.6313 58.9811 18.9377C62.9491 21.0852 67.9317 22.0229 72.2529 21.4318C80.2083 20.3435 86.1089 16.3098 90.2973 9.10887C91.0552 7.80481 91.7136 6.73845 91.7597 6.73863L91.7591 6.73912ZM23.4652 21.3204C23.8939 21.245 23.9137 21.7833 23.4772 22.8948C22.9373 24.2686 22.2268 24.5518 21.5069 23.6848C21.1528 23.2584 21.2579 23.0533 22.2678 22.1282C22.8052 21.6357 23.208 21.3657 23.4652 21.3204ZM20.339 25.094C20.4736 25.094 20.9468 25.4095 21.3891 25.7897L22.1913 26.4795L21.7253 28.4665C21.4693 29.5586 21.1828 30.9665 21.0824 31.5974C20.982 32.2284 20.7911 32.7472 20.6635 32.7472C20.3751 32.7472 18.4751 30.8069 18.4751 30.5125C18.4751 30.3944 18.6653 30.3003 18.8998 30.3003C19.4815 30.3003 19.7143 29.5914 19.9202 27.1635C20.0167 26.0278 20.2045 25.094 20.339 25.094ZM122.226 27.8477C122.627 27.8477 123.46 31.7591 123.872 35.5718C124.226 38.8488 124.325 39.1965 125.069 39.7816C126.123 40.6103 126.503 42.0421 126.19 44.0211C125.97 45.4129 126.07 45.9767 127.021 48.7321C129.803 56.7848 133.604 69.534 133.309 69.8116C132.996 70.1068 130.386 70.8674 125.01 72.2346C122.415 72.8946 120.109 73.4377 119.884 73.4377C119.384 73.4377 119.361 71.9025 119.766 65.5837C119.926 63.0886 120.128 54.1927 120.214 45.8197L120.374 30.5955L121.176 29.2218C121.619 28.4663 122.092 27.8478 122.226 27.8478V27.8477ZM115.101 29.4395C115.885 29.4452 116.105 29.9271 116.068 31.2144C116.042 32.1206 115.733 32.5663 114.068 34.1095L112.104 35.9314L112.298 34.5694C112.406 33.8189 112.603 32.7923 112.741 32.2874C112.879 31.7826 113.077 30.9974 113.178 30.5421C113.322 29.8861 113.59 29.6682 114.464 29.5044C114.708 29.4586 114.919 29.4382 115.101 29.4395ZM17.4832 32.7769C17.6971 32.7752 18.1417 33.1125 19.0168 33.8972L20.6331 35.3476L20.2792 36.5682C19.9153 37.8363 20.0202 44.2437 20.5977 56.1494C20.7526 59.3463 21.0254 65.4443 21.1994 69.6989C21.3733 73.9534 21.5939 77.5583 21.6889 77.7116C21.784 77.8655 21.5886 78.1365 21.2583 78.3134C19.7922 79.0977 11.0066 78.2146 10.163 77.1989C9.96477 76.9601 9.80931 76.1201 9.81501 75.3298C9.8212 74.4674 9.63494 73.6764 9.35489 73.3546C8.95775 72.8983 8.94605 72.6268 9.27231 71.5207C10.0724 68.8092 12.3393 66.1177 15.5072 64.1152C16.4847 63.4971 17.361 62.794 17.4536 62.5528C17.8584 61.4983 17.0976 60.3109 14.1917 57.4818L11.1599 54.5337L11.4784 53.3544C11.6543 52.7048 12.1985 50.7391 12.6876 48.9854C13.1768 47.2316 13.5783 45.4377 13.5783 44.9995C13.5783 43.8342 14.3865 42.8686 15.9084 42.2165C17.4042 41.5755 17.5795 41.0052 16.7696 39.4394C16.337 38.6031 16.3399 38.2737 16.7636 36.0137C17.0216 34.638 17.2707 33.2744 17.3181 32.9831C17.3394 32.8525 17.386 32.7778 17.4832 32.7769ZM118.368 33.7086C118.388 33.7078 118.411 33.7155 118.427 33.7321C118.688 33.9925 117.906 73.6268 117.619 74.7116C117.292 75.9474 116.015 77.1886 114.351 77.8837C113.761 78.1298 113.014 78.3316 112.688 78.3316C112.107 78.3316 112.097 78.0995 112.298 68.6146C112.474 60.3472 112.595 58.5629 113.112 56.6099C114.043 53.0926 114.454 51.4194 114.876 49.4165C115.089 48.4069 115.368 47.1678 115.502 46.6629C115.635 46.158 115.973 44.4406 116.25 42.8421C116.529 41.2437 116.888 39.3554 117.047 38.6499C117.205 37.9444 117.336 36.9438 117.336 36.4212C117.336 35.5648 118.06 33.7184 118.368 33.7089V33.7086ZM115.873 34.7344L115.702 35.6542C115.607 36.1591 115.442 37.1906 115.336 37.9478C114.987 40.4287 112.842 50.7946 112.634 51.0021C112.569 51.0678 112.432 50.6986 112.328 50.1767C112.223 49.655 112 49.3125 111.832 49.4161C111.665 49.5197 111.398 50.045 111.242 50.5837C110.868 51.8789 110.827 45.4474 111.189 42.3231C111.412 40.4008 111.619 39.8699 112.823 38.1899C113.583 37.1304 114.582 35.922 115.041 35.5012L115.873 34.7344ZM133.716 71.7043C133.987 71.6837 134.172 71.8886 134.283 72.3292C134.386 72.7395 134.549 73.2813 134.648 73.5383C134.766 73.8468 134.526 74.1607 133.941 74.4637C132.475 75.2213 127.485 76.7964 124.066 77.5825C120.38 78.4304 119.17 78.5134 119.17 77.9128C119.17 77.6843 119.255 76.8801 119.359 76.1261C119.528 74.8916 119.614 74.7704 120.261 74.894C120.93 75.0219 124.574 74.354 126.667 73.7207C127.172 73.568 128.827 73.0928 130.342 72.6595C131.857 72.2262 133.323 71.8013 133.598 71.7219C133.64 71.7098 133.677 71.7074 133.716 71.7043ZM24.4034 71.9461C24.4098 71.9431 24.4137 71.9449 24.4211 71.9522C24.5393 72.0607 25.1193 73.8474 25.7129 75.9261C26.3064 78.0043 26.8687 79.9474 26.9574 80.2419C27.0724 80.6225 26.9457 80.7789 26.5269 80.7789C25.4387 80.7789 24.8484 80.0546 24.7691 78.6207C24.7279 77.8728 24.5849 76.0195 24.4505 74.5049C24.3247 73.0849 24.308 71.988 24.4034 71.9461ZM117.194 78.5789C117.285 78.5661 117.336 78.5765 117.336 78.6146C117.336 79.1049 115.759 80.788 114.864 81.2504C113.829 81.7855 112.254 81.8358 111.95 81.3443C111.709 80.9546 112.612 80.1655 113.301 80.1655C113.543 80.1655 114.548 79.7534 115.537 79.2516C116.278 78.8746 116.92 78.6189 117.194 78.5789ZM28.556 85.8492C28.6302 85.8558 28.7048 86.0177 28.8155 86.2855C29.308 87.4752 30.3519 90.3395 30.5674 91.1025C30.6744 91.4813 30.7152 91.7874 30.6618 91.7807C30.6084 91.774 29.9005 91.1558 29.087 90.4074L27.6064 89.0449L28.0547 87.2819C28.3157 86.2528 28.4323 85.8389 28.556 85.8492ZM33.6407 93.5261C33.7568 93.5655 34.3004 94.3831 35.015 95.6134C39.2077 102.831 43.307 107.653 49.0833 112.158C52.3846 114.733 54.8992 117.189 54.8992 117.842C54.8992 119.031 52.1293 118.088 48.2514 115.578C45.1649 113.58 43.6682 111.896 40.9313 107.359C39.5724 105.106 37.8794 102.326 37.1739 101.179C35.9332 99.1643 34.0753 95.1958 33.6347 93.6267C33.6126 93.5474 33.6139 93.5171 33.6407 93.5261ZM25.7956 106.934L26.3738 108.314C29.7654 116.411 33.9916 123.218 37.2332 125.802C38.5669 126.866 47.057 131.253 47.7858 131.256C48.09 131.258 52.1262 132.913 53.2655 133.503C53.7659 133.761 54.3562 134.189 54.575 134.452C55.1495 135.144 54.7061 135.045 50.0035 133.479C46.3774 132.272 37.9382 128.713 32.3253 126.02C30.2641 125.031 28.3927 124.222 28.1668 124.222C27.9409 124.222 27.4992 123.458 27.1816 122.524C26.6056 120.83 26.6027 120.821 27.2821 118.927C28.2259 116.296 28.1637 114.624 27.0343 112.212C26.524 111.121 26.0408 109.492 25.9548 108.585L25.7956 106.934ZM27.7659 125.749C27.8406 125.749 29.6727 126.615 31.8359 127.672L38.0648 130.714C40.7178 132.009 40.674 132.025 36.9914 131.115C32.8444 130.09 30.3056 129.662 28.9928 129.776L27.8131 129.883L27.7187 127.813C27.6689 126.677 27.6911 125.749 27.7659 125.749Z" fill="black" fill-opacity="0.07107"/>
<path d="M53.9502 0.0776436C53.8861 0.0746212 53.8198 0.0791285 53.7498 0.08354H53.7379C53.6841 0.0832982 53.6211 0.094806 53.5552 0.107125C53.5478 0.108502 53.5391 0.105574 53.5316 0.107125C52.6904 0.240195 51.438 0.843764 49.32 2.08826C45.3386 4.42751 32.8518 8.84242 26.7749 10.0599C23.2637 10.7636 21.0141 11.6836 19.1597 13.1731C17.745 14.3096 15.6082 17.4147 14.665 19.7061C13.6971 22.0572 12.4413 26.4206 12.4413 27.4242C12.4413 27.9797 12.0406 28.8372 11.3972 29.6706C10.3085 31.0812 9.68948 32.8046 9.68657 34.4289C9.68566 34.9553 9.49298 35.5472 9.25603 35.7438C8.32134 36.5193 7.81392 38.2563 7.68696 41.1153C7.58492 43.4134 7.30584 44.7678 6.33618 47.7604C3.6111 56.171 1.72184 63.4546 1.2692 67.2776C1.20479 67.8213 1.10353 69.2461 1.01555 70.8267C1.01168 70.8964 1.00758 70.957 1.00375 71.0273C0.957926 71.7194 0.914438 72.4073 0.891677 73.0382C0.865397 73.7661 0.85262 74.3352 0.844488 74.8188C0.825979 75.9188 0.860729 76.4813 0.986056 76.8055C0.98811 76.8128 0.98985 76.8219 0.991955 76.8291C1.19306 77.5104 1.62489 77.674 2.43711 77.8431C2.97256 77.9546 4.16567 78.3643 5.09141 78.7516C6.81085 79.4704 9.97548 80.4546 12.4412 81.0449C13.1987 81.2261 15.9489 81.4552 18.5581 81.5522C22.9934 81.7164 23.3556 81.774 24.0791 82.4479C24.5048 82.8449 25.3122 83.3322 25.8723 83.5273C26.1732 83.6322 26.384 83.7061 26.5271 83.7988L26.5329 83.8043C26.6196 83.871 26.6853 83.9534 26.7394 84.0461C26.8201 84.2504 26.7789 84.5546 26.6923 85.0958C26.5854 85.7643 26.2109 87.0885 25.8606 88.0376C25.5103 88.9873 25.0963 90.5897 24.9346 91.5988C24.6118 93.6128 24.822 97.694 25.3415 99.4352C25.6145 100.35 25.5656 100.831 25.0642 102.189C23.4596 106.536 23.5312 109.492 25.3238 113.279C26.3753 115.501 26.4201 116.304 25.601 118.215C24.9107 119.824 24.7986 122.356 25.3709 123.362C25.6303 123.818 25.81 126.458 25.9372 131.676C26.0949 138.131 26.2272 139.772 26.8103 142.189C27.3624 144.476 27.5675 145.458 28.5976 145.844L28.6153 145.85C28.9066 145.995 29.2569 146.053 29.6888 146.045C30.4953 146.099 31.5894 146.051 33.1513 145.992C38.7008 145.781 41.642 146.144 47.2492 147.725C51.4868 148.92 53.457 149.336 57.1234 149.83C57.4698 149.876 58.1067 149.924 58.8989 149.965C59.0921 150.007 59.2286 150.047 59.2529 150.072C59.3521 150.171 61.4041 150.176 64.0542 150.131H64.1252C64.5969 150.138 65.0716 150.139 65.5409 150.142C76.4739 150.219 81.1904 149.301 91.5534 145.072C99.6209 141.78 102.405 140.946 107.061 140.426C108.413 140.275 109.657 140.018 109.821 139.853C111.173 138.502 110.824 126.39 109.332 122.819C108.905 121.798 108.93 121.621 109.751 119.63C111.286 115.908 111.717 114.085 111.715 111.333C111.713 109.224 111.582 108.476 111.013 107.377C110.24 105.884 110.248 105.536 111.178 100.779C111.586 98.6952 111.724 96.4091 111.739 91.3867L111.756 84.771L112.051 84.7534H113.632C115.866 84.7534 117.488 84.1413 118.946 82.7431C119.898 81.8316 120.401 81.6413 123.436 81.0685C129.482 79.9273 136.775 77.454 138.017 76.1213C138.168 75.9588 138.279 75.8255 138.353 75.6673L138.359 75.6558C138.479 75.4746 138.536 75.2946 138.536 75.1134C138.536 74.9673 138.47 74.6134 138.365 74.1407C138.283 73.6267 138.152 72.9588 137.964 72.0176C137.405 69.2176 133.206 55.3708 131.01 49.0763C130.076 46.4027 129.967 45.7804 130.136 44.1648C130.371 41.9302 129.961 40.2533 128.792 38.6401C128.117 37.7091 127.88 36.9634 127.724 35.3027C127.352 31.3551 125 22.1287 123.724 19.6187C121.393 15.0319 117.91 12.9198 105.845 8.78733C97.1975 5.82507 93.7149 4.39036 91.3345 2.79677C90.1098 1.97664 88.8602 1.21039 88.5564 1.09866C88.2405 0.982431 87.2589 1.20792 86.2621 1.62342C82.8244 3.05577 77.0438 3.92719 70.8958 3.94058C64.3265 3.95487 60.7374 3.13783 54.4623 0.202472C54.3096 0.130976 54.1418 0.0877248 53.9491 0.0786509L53.9502 0.0776436ZM53.3603 2.73085C53.3626 2.73172 53.3639 2.72979 53.3664 2.73085C53.3683 2.73175 53.3702 2.73572 53.3722 2.73675L54.8351 5.24845C56.6834 8.42824 61.0548 12.8613 63.7123 14.2579C64.726 14.7903 66.5838 15.4636 67.8419 15.7496C69.8215 16.1997 70.3944 16.2151 72.1181 15.8793C74.5452 15.4066 77.2687 14.2188 79.6625 12.5833C81.4353 11.3722 85.9311 6.92708 87.4547 4.88292L88.2448 3.82749L89.6666 4.7296C90.5487 5.28685 91.0938 5.85526 91.0938 6.21545C91.0944 7.04787 89.2476 10.2141 87.5135 12.3534C84.2577 16.3692 80.0275 18.9157 74.7962 20.0067C65.4294 21.9599 55.4861 16.8822 50.788 7.7483C49.4393 5.12583 49.4803 4.9579 51.8026 3.62092L53.3598 2.73058L53.3603 2.73085ZM55.7906 4.01622C56.0541 4.032 56.9835 4.30815 58.038 4.68839C61.8436 6.06072 63.5759 6.43642 68.1068 6.51624C69.8663 6.69957 70.9922 6.69957 73.1501 6.51624C78.1218 6.42739 81.3595 6.03134 84.3577 5.17189C84.9276 5.00855 85.4479 4.92889 85.5139 4.995C85.58 5.06111 84.7621 6.03375 83.6968 7.15309C81.7348 9.21557 81.6111 9.27612 78.0873 10.0776C76.2253 10.5012 68.5828 10.6822 66.0247 10.3607C64.777 10.2039 62.6367 9.72957 61.2646 9.31115C58.7761 8.55242 58.7615 8.54896 57.1768 6.35715C56.3029 5.14838 55.6494 4.09868 55.72 4.02811C55.7287 4.0193 55.753 4.01398 55.7906 4.01622ZM48.2226 5.80279C48.225 5.80304 48.2262 5.80836 48.2286 5.8087L49.5322 8.30872C50.5741 10.3108 51.5177 11.5038 54.2098 14.2108C56.9579 16.9742 58.0368 17.8327 60.0317 18.8451C66.0939 21.9219 71.7622 22.3834 77.9933 20.3074C83.6538 18.4211 88.5619 14.0757 91.5661 8.2849C92.1718 7.11642 92.5471 6.69448 92.8988 6.80496C93.1692 6.88969 94.7032 7.47121 96.302 8.09036C97.9014 8.70951 102.152 10.2281 105.752 11.4688C117.731 15.5981 120.56 17.5705 122.321 23.0195L122.917 24.8533C122.921 24.9174 122.923 24.9834 122.923 25.0419C122.923 25.0859 122.912 25.1384 122.9 25.2012L121.549 27.6185C120.759 29.0238 119.788 30.5695 119.39 31.0561C118.685 31.9172 118.663 31.9236 118.652 31.2389C118.64 30.4493 117.821 28.6933 117.302 28.3499C116.764 27.9948 115.127 28.0818 114.724 28.4855C113.955 29.2544 114.305 29.664 115.555 29.4642C116.559 29.3038 116.802 29.3746 117.083 29.9006C117.586 30.8404 117.516 33.0138 116.983 33.0138C116.744 33.0138 115.727 33.9195 114.724 35.0304C113.721 36.1412 112.826 36.9334 112.736 36.7874C112.575 36.5268 112.811 35.1376 113.585 31.7874C113.799 30.8619 113.907 29.9965 113.827 29.8593C113.481 29.2646 112.62 30.695 112.258 32.4653C111.334 36.9853 111.194 37.8684 110.807 41.5336C110.636 43.1548 110.125 55.5333 109.769 66.6637C109.6 71.9643 109.357 77.1976 109.226 78.291C109.09 79.4291 107.859 83.6146 106.348 88.0788C104.895 92.3698 103.262 97.257 102.72 98.9394C100.34 106.327 96.1832 116.513 94.1435 119.955C93.4778 121.078 92.934 122.081 92.934 122.19C92.934 122.298 93.2274 122.344 93.5888 122.29C95.0427 122.073 99.2547 112.639 103.941 99.0934C104.319 98.0001 105.089 95.9364 105.652 94.5061C106.214 93.0758 107.111 90.6358 107.645 89.0819C108.18 87.5279 108.736 86.331 108.884 86.4225C109.262 86.6558 109.219 95.0091 108.825 98.1619C107.946 105.187 107.367 107.221 104.826 112.183C102.357 117.005 99.5027 121.996 96.0661 127.496C94.7159 129.656 94.1884 130.76 94.403 130.975C94.5752 131.147 94.8596 131.2 95.0336 131.092C95.8333 130.599 103.171 118.076 106.33 111.817C108.137 108.238 108.367 107.919 108.742 108.432C109.433 109.376 109.39 112.333 108.654 115.001C107.878 117.81 106.075 121.789 104.773 123.568C104.095 124.493 102.041 126.73 100.207 128.538C97.0132 131.686 96.1656 133.098 98.1779 131.911C99.1632 131.33 103.711 126.738 105.534 124.487L106.649 123.108L106.991 123.981C107.604 125.564 108.08 129.772 108.2 133.102C108.2 133.13 108.2 133.157 108.2 133.184C108.197 133.439 108.189 133.692 108.182 133.945L108.106 136.876V136.881C108.048 137.238 107.97 137.482 107.87 137.583C107.667 137.785 107.04 137.949 106.478 137.949C103.609 137.949 97.9257 139.664 90.4863 142.772C83.6562 145.624 78.2346 147.081 72.0709 147.73C69.4007 148.012 63.2254 148.073 60.7983 147.842C56.8926 147.472 51.8277 146.423 46.9777 144.983C43.0695 143.822 37.7417 143.109 33.4581 143.173C31.6352 143.199 30.0291 143.101 29.8894 142.955C29.2996 142.335 28.67 136.523 28.5504 130.59C28.4481 125.52 28.3161 124.003 27.8661 122.736C27.6026 121.995 27.4633 121.594 27.465 121.174C27.4673 121.115 27.4724 121.052 27.4767 120.991C27.4779 120.978 27.4816 120.964 27.4828 120.95C27.5298 120.547 27.6961 120.064 27.99 119.228C28.9398 116.525 28.8671 114.919 27.6832 112.371C26.3485 109.498 26.3159 107.042 27.5652 103.309L28.456 100.638L27.9486 98.5207C27.1979 95.4116 27.284 92.3206 28.2023 89.4285C28.6229 88.1043 29.0489 86.5704 29.1519 86.0207C29.3696 84.8613 29.7433 84.7194 29.9777 85.7079C30.4328 87.6267 33.9588 97.2231 35.2985 100.189C37.9544 106.07 42.7645 114.359 46.0281 118.674C47.3889 120.473 50.0581 123.261 50.4167 123.261C51.0766 123.261 50.5962 122.261 49.1367 120.602C48.2772 119.624 46.9853 118.003 46.2699 116.993C43.0799 112.49 36.7524 100.405 34.2544 94.0461C33.2297 91.437 31.2649 85.4407 29.4412 79.3649C28.9866 77.8504 28.4945 76.2655 28.3499 75.8449C27.2838 72.7425 25.7117 63.2582 26.0199 61.7879C26.1105 61.3564 25.9927 59.834 25.7604 58.4036C24.6409 51.5119 24.4351 44.0744 25.1764 37.6017C25.9984 30.4242 26.0241 29.061 25.3887 27.3601C24.9533 26.1938 24.4976 25.6255 23.4481 24.9308C22.6944 24.4319 21.9724 23.8419 21.8378 23.6218C21.4781 23.0334 20.1584 23.1385 19.8145 23.781C19.6509 24.0865 19.4708 25.2219 19.4135 26.3046C19.3561 27.3872 19.1761 28.2629 19.0123 28.2563C18.5502 28.2374 16.3403 24.4104 16.3403 23.6278C16.3403 22.5563 17.623 19.5936 18.924 17.655C20.7802 14.8888 22.4932 13.8119 26.3682 12.9734C31.9436 11.767 41.9957 8.57272 46.4764 6.58193L48.2224 5.80366L48.2226 5.80279ZM61.9194 11.0622C62.0437 11.0563 62.2838 11.0959 62.6628 11.1625C63.2369 11.2634 64.1852 11.5013 64.7745 11.6872C66.3352 12.1796 75.9567 12.1392 77.4209 11.6342C78.0636 11.4125 78.662 11.3005 78.7481 11.3865C78.9725 11.6108 76.3769 13.0804 74.4894 13.798C72.6359 14.5031 69.1357 14.7675 67.4114 14.3346C65.9338 13.9637 62.8471 12.3402 62.1438 11.5633C61.8261 11.2124 61.7127 11.0719 61.9194 11.0621V11.0622ZM21.3537 25.1248C22.1175 25.1536 23.6969 26.934 24.067 28.2557C24.4229 29.5257 24.2977 32.9802 23.8547 34.1342C23.7692 34.3572 23.6091 34.5384 23.5008 34.5351C22.9415 34.5185 20.3655 32.6119 19.5251 31.5929C18.3389 30.1544 18.2718 29.5599 19.3245 29.824C20.2388 30.0533 20.3446 29.8433 20.64 27.2002C20.759 26.1338 21.0175 25.207 21.2121 25.1425C21.2551 25.1282 21.3029 25.1227 21.3537 25.1248ZM123.329 27.3889C123.439 27.3953 123.51 27.5606 123.613 27.831C124.184 29.3423 125.04 33.8495 125.247 36.4395C125.439 38.8495 125.538 39.1753 126.326 39.877C127.409 40.8421 127.644 41.7393 127.429 44.1106C127.276 45.7967 127.421 46.4359 128.933 50.8853C130.383 55.1508 134.788 69.4473 134.855 70.0946C134.853 70.1128 134.855 70.1303 134.849 70.1479C134.599 70.4237 130.553 71.7322 128.131 72.3122C127.037 72.574 125.659 72.9164 125.07 73.0728C124.48 73.2285 120.796 74.1388 119.997 74.3394C119.071 75.2831 119.195 74.2455 119.572 75.1134C120.456 75.1134 128.093 73.5831 131.918 72.4237C133.579 71.9201 135.037 71.6237 135.162 71.7637C135.288 71.9031 135.554 72.5013 135.752 73.0904C136.073 74.0461 136.042 74.2134 135.48 74.6704C134.626 75.3655 129.025 77.2007 124.916 78.1316C123.064 78.551 121.164 78.8964 120.693 78.8982L119.832 78.9037L119.997 76.3801C120.383 70.394 120.576 63.034 120.752 47.3878L120.941 30.7957C120.972 30.7218 121.007 30.6448 121.047 30.5599L122.132 28.8972C122.852 27.801 123.146 27.377 123.329 27.3878V27.3889ZM15.1191 27.8134C15.2456 27.8134 15.6895 28.4657 16.1101 29.2638C16.8747 30.7151 20.1632 34.0884 22.4392 35.7616L23.6425 36.6519L23.3771 39.1933C23.08 41.9987 23.329 52.0529 23.7841 55.6497C23.944 56.9116 24.196 59.7359 24.3503 61.9231C24.5049 64.1104 24.7756 66.7273 24.9463 67.737C25.309 69.8843 26.8676 75.9716 27.7717 78.7685C28.1181 79.8407 28.3152 80.8594 28.2082 81.0328C27.797 81.6976 26.6891 81.3055 25.5714 80.0952C24.33 78.751 24.1673 78.711 21.1592 79.0637C21.0008 79.0819 20.8344 79.0976 20.6696 79.1104L19.3071 79.0988C18.6099 79.091 18.023 79.08 17.4844 79.0691C13.8646 78.7546 9.42652 77.5964 4.93791 75.7437C3.42969 75.1213 3.08874 74.8419 3.00901 74.1873C2.95197 73.7188 3.08602 73.3273 3.33345 73.2322C3.56486 73.1437 12.7362 75.7437 14.9069 75.8449C17.4844 76.4152 27.2251 77.0631 27.4592 76.8291C28.09 75.3843 21.6836 76.2031 6.50701 72.3479C4.96956 71.8128 3.66886 71.3358 3.45141 71.2273C3.42861 71.1916 3.40875 71.1534 3.39243 71.1152C3.3843 70.3413 4.44579 64.5679 5.12072 61.7813C5.96346 58.3023 8.39113 50.0351 9.09045 48.2616C9.76624 46.548 10.5991 41.9855 10.6005 39.9951C10.6012 38.9218 10.7934 38.341 11.3614 37.6661C12.3705 36.4676 12.7476 35.3959 12.7476 33.7274C12.7476 32.5872 12.9332 32.1219 13.8153 31.0918C14.5731 30.2068 14.8888 29.5463 14.8888 28.8276C14.8888 28.2691 14.9923 27.8134 15.1189 27.8134H15.1191ZM119.643 33.3265C119.664 33.3287 119.681 33.335 119.696 33.3501C119.922 33.5755 119.325 72.531 119.071 74.1576C118.789 75.9655 118.135 76.8734 116.31 77.9782C115.048 78.7431 114.204 79.0073 112.629 79.134L110.588 79.2988L110.795 78.1079C111.215 75.6922 111.592 64.4037 111.574 54.7344C111.556 45.2718 111.83 41.0518 112.553 39.6872C113.111 38.6338 116.522 34.5399 116.841 34.5399C117.062 34.5399 117.104 35.0789 116.971 36.1495C116.386 40.8629 114.127 51.6599 113.308 53.6612C113.102 54.1661 112.678 55.577 112.364 56.798C111.905 58.5836 111.865 59.0919 112.176 59.3982C112.484 59.7023 112.64 59.6759 112.954 59.2508C113.277 58.8131 114.532 54.0689 116.205 46.9336C116.684 44.8895 117.335 41.2648 117.72 38.5197C117.921 37.0895 118.141 35.6427 118.21 35.3063C118.355 34.5957 119.326 33.2889 119.643 33.3251V33.3265ZM118.351 78.2904C119.469 78.2904 117.303 81.171 115.673 81.8522C114.708 82.2552 113.607 82.3316 112.37 82.0704L111.066 81.7928C109.877 81.5388 110.231 80.7376 111.532 80.7376C112.809 80.7376 115.346 79.8934 116.995 78.9213C117.584 78.574 118.193 78.2904 118.351 78.2904ZM37.0086 85.6728C36.3503 85.6376 36.5786 86.4867 37.8755 89.0807C44.9499 103.227 58.1461 118.53 70.7437 127.188C72.8754 128.653 74.6192 128.946 73.7225 127.689C73.5988 127.516 72.083 126.373 70.3544 125.148C66.2091 122.211 64.0797 120.429 60.0729 116.546C52.3246 109.035 44.5114 98.6885 39.6287 89.4643C38.4435 87.2249 37.484 85.7534 37.1571 85.6904C37.1056 85.6807 37.0537 85.6752 37.0097 85.6728H37.0086ZM29.2754 125.042C29.0457 125.061 28.9687 125.193 28.9687 125.419C28.9687 125.766 33.7903 128.209 38.8606 130.432C40.9092 131.33 43.5514 132.524 44.7298 133.079C45.9083 133.635 48.3183 134.6 50.0858 135.231C53.3536 136.398 55.1351 136.615 55.1351 135.844C55.1351 135.762 54.9861 135.646 54.7339 135.502L54.7221 135.49C54.6118 135.399 54.4625 135.322 54.3092 135.278L54.2915 135.272C53.6386 134.967 52.6302 134.584 51.3069 134.14C46.9443 132.676 39.7542 129.678 33.6698 126.782C31.0065 125.513 29.7805 125.001 29.2754 125.042V125.042Z" fill="black"/>
</g>
</g>
<defs>
<clipPath id="clip0_685_1231">
<rect width="136.848" height="150" fill="white" transform="translate(0.75)"/>
</clipPath>
</defs>
</svg>
