<svg width="2258" height="2475" xmlns="http://www.w3.org/2000/svg" xmlns:xlink="http://www.w3.org/1999/xlink" xml:space="preserve" overflow="hidden"><defs><clipPath id="clip0"><rect x="1071" y="0" width="2258" height="2475"/></clipPath></defs><g clip-path="url(#clip0)" transform="translate(-1071 0)"><path d="M1925.88 22 1653.23 145.733 1653.23 145.733 1439.78 197.736 1382.38 237.188 1323.19 317.883 1289.1 421.89 1281.93 472.101 1246.06 515.138 1246.06 568.935 1217.36 615.559 1203.01 714.187 1170.72 837.92 1136.64 941.927 1100.76 1065.66 1093.59 1157.11 1090 1248.57 1192.24 1293.4 1319.6 1322.09 1445.16 1323.89 1524.08 1370.51 1500.77 1460.17 1493.59 1528.31 1491.8 1601.84 1506.15 1641.29 1502.56 1659.22 1477.45 1734.53 1473.86 1791.92 1497.18 1870.82 1507.94 1910.27 1493.59 1960.48 1488.21 2001.73 1504.35 2062.7 1509.74 2209.74 1527.67 2367.54 1542.02 2381.89 1705.25 2380.1 1839.78 2408.79 1999.43 2450.03 2221.85 2459 2415.57 2421.34 2603.92 2356.79 2734.86 2311.96 2865.8 2286.85C2865.2 2236.64 2864.61 2186.43 2864.01 2136.22L2829.93 2008.9 2881.95 1847.51 2867.6 1779.37 2858.63 1741.71 2876.56 1601.84C2875.97 1551.63 2875.37 1501.41 2874.77 1451.2L2869.39 1356.16 2930.38 1366.92 2978.81 1357.96 3030.83 1329.26 3220.96 1279.05 3325 1244.98 3299.89 1124.84 3181.5 762.604 3190.47 676.529 3149.21 628.112 3068.5 317.883 3030.83 253.327 2826.34 167.252 2654.14 111.661 2524.99 36.3457 2356.38 66.8307 2160.86 74.0035 2013.78 39.9321 1925.88 22Z" fill="#213C4C" fill-rule="evenodd"/><path d="M1093.87 1196 1517.88 1265.73 1544 1358 1087 1266.98 1093.87 1196Z" fill="#FFFFFF" fill-rule="evenodd"/><path d="M2874.41 1324.43C2931.04 1303.01 2989.39 1314.23 3039.14 1232.65L3302.57 1167C3306.01 1188.58 3351.12 1214.04 3299.13 1244.8 3247.14 1275.57 3052.04 1334.02 2990.65 1351.59 2929.26 1369.15 2942.5 1359.82 2921.87 1364.99 2901.24 1370.17 2874.93 1372.67 2861 1357.55L2874.41 1324.43Z" fill="#FFFFFF" fill-rule="evenodd"/><path d="M1936.79 34.0206C1943.09 33.9759 1949.95 34.0029 1957.45 34.1068 2063.65 33.8778 2113.69 110.715 2479.14 55.406 2583.91 62.9637 2596.29 44.4128 2586.09 79.4534 2525.8 172.208 2552.16 200.034 2443.03 278.36 2401.36 317.466 2338.2 331.78 2288.96 339.166 2245.23 363.729 2167.45 345.12 2139.02 327.829 2036.43 296.911 1982.32 259.122 1915.15 190.759L1867 69.4907C1876.56 51.5623 1842.35 34.6911 1936.79 34.0206ZM2075.38 168.171C2065.58 169.166 2061.27 172.924 2065.77 181.14 2083.77 214.004 2173.47 245.839 2224.83 247.098 2276.18 248.358 2373.91 208.809 2373.91 188.697 2373.91 168.586 2273.43 189.27 2222.08 188.01 2183.56 187.066 2104.77 165.187 2075.38 168.171Z" fill="#FFFFFF" fill-rule="evenodd"/><path d="M853.978 30.5406C843.878 30.4964 801.816 52.659 781.985 68.4843 770.752 77.4457 653.266 122.249 572.525 148.357 481.205 177.886 455.02 185.096 406.065 194.373 329.421 208.9 285.748 242.531 250.404 314.135 240.394 334.415 228.508 366.888 224.039 386.324 219.569 405.76 213.78 423.866 211.197 426.503 208.614 429.14 206.527 440.659 206.527 452.187 206.527 472.311 204.385 476.61 173.742 518.15 169.424 524 164.091 543.793 161.872 562.22 158.945 586.541 154.703 599.196 146.209 608.237 136.383 618.697 133.739 629.033 129.865 672.643 124.865 728.917 122.501 738.612 88.0294 848.246 61.4964 932.639 39.7653 1015.85 25.2794 1087.96 14.212 1143.05 5.04016 1224.36 8.4485 1237.69 9.62903 1242.3 20.0636 1249.54 31.6031 1253.74L80.8291 1271.64C167.765 1303.25 195.604 1308.61 283.673 1310.65L368.411 1312.6 386.119 1330.31C401.56 1345.75 406.906 1348.01 428.829 1348.01 442.617 1348.01 453.931 1349.63 453.927 1351.71 453.915 1361.91 426.93 1462.82 421.239 1474 410.968 1494.18 407.273 1558.22 414.041 1597.85 423.11 1650.98 421.949 1669.11 406.158 1721.4 389.425 1776.83 391.056 1795.13 418.222 1857.02 436.322 1898.26 437.418 1918.61 423.574 1953.72 412.046 1982.97 410.635 2009.98 419.779 2026.01 424.069 2033.53 427.029 2076.33 429.118 2160.66 432.219 2285.64 441.279 2356.55 455.97 2371.67 460.857 2376.7 469.254 2377.17 492.161 2373.52 525.852 2368.15 638.684 2373.96 678.468 2383.15 692.362 2386.36 731.056 2396.59 764.373 2405.82 825.068 2422.64 913.213 2441.25 951.069 2445.22 962.177 2446.39 1020.19 2446.74 1079.88 2446 1167.8 2444.91 1198.44 2442.52 1241.38 2433.64 1331.13 2415.09 1376.08 2400.81 1473.9 2359.61 1581.5 2314.27 1660.31 2290.26 1722.37 2283.92 1747.74 2281.33 1757.89 2278.06 1761.47 2271.37 1767.91 2259.35 1767.66 2151.33 1761.09 2101.7 1758.21 2079.98 1751.08 2048.28 1745.23 2031.26L1734.62 2000.42 1753.21 1957.03C1789.1 1873.46 1794.35 1807.47 1768.09 1768.78 1758.31 1754.36 1756.09 1746.45 1758.65 1734.53 1788.41 1595.98 1793.12 1479.69 1773.25 1373.77L1770.04 1356.75 1804.77 1360.64C1867.51 1367.73 1894.26 1360.61 1924.63 1328.63 1935.53 1317.15 1945.42 1312.51 1965 1309.86 2026.71 1301.51 2107.85 1280.44 2172.71 1255.86 2232.98 1233.03 2231.9 1234.93 2215.71 1181.53 2210.22 1163.41 2198.69 1123.54 2190.13 1093 2169.47 1019.35 2139.67 923.265 2108.79 830.906 2086.19 763.296 2083.93 752.559 2086.9 726.906 2091.13 690.497 2083.4 661.666 2065.01 645.281 2051.74 633.454 2050.32 628.846 2047.21 585.159 2044.03 540.422 2024.47 449.23 2013.64 429.012 2010.92 423.919 2008.69 414.088 2008.69 407.123 2008.69 400.159 2002.57 378.087 1995.16 358.09 1974.73 302.978 1936.2 264.215 1870.15 232.299 1842.19 218.789 1788.64 197.284 1751.16 184.433 1547.58 114.628 1506.86 97.9854 1455.8 64.0888 1431.93 48.2454 1424.66 45.6334 1416.01 49.787 1370.5 71.629 1239.89 91.037 1138.25 91.037 1036.46 91.0361 965.079 76.9775 890.558 42.297 876.676 35.8368 860.182 30.5522 853.978 30.5252L853.978 30.5406ZM847.166 50.6793C850.086 50.6793 857.023 59.5233 862.539 70.3314 880.733 105.996 934.47 172.395 966.539 198.848 1029.34 250.652 1102.69 275.215 1159.07 263.254 1219.99 250.328 1272.95 223.314 1326.31 178.03 1352.7 155.637 1402.55 100.371 1418.54 75.8791L1426.71 63.5234 1447.63 77.3383C1459.13 84.9501 1468.54 93.4934 1468.54 96.3096 1468.54 108.316 1436.87 162.574 1410.76 195.347 1357.26 262.493 1287.43 303.316 1195.94 320.947 1084.99 342.325 981.934 309.674 893.771 225.119 846.509 179.79 797.165 107.785 797.165 84.1494 797.165 77.0469 836.566 50.6824 847.169 50.6824L847.166 50.6793ZM1501.03 111.194C1501.8 111.194 1518.1 117.713 1537.22 125.592 1556.35 133.471 1585.65 144.601 1602.31 150.401L1727.91 193.986C1840.11 232.916 1896.64 259.204 1928.32 287.089 1952.81 308.646 1978.79 352.263 1988.15 387.492 1994.55 411.566 1992.62 416.834 1956.34 474.369L1935.91 506.765 1928.91 489.446C1917.99 462.448 1908.32 454.519 1886.68 454.519 1871.19 454.519 1863.29 458.323 1847.18 473.491 1823.97 495.361 1819.22 510.208 1801.75 616.017 1795.56 653.497 1789.6 685.102 1788.52 686.257 1787.43 687.412 1786.57 657.229 1786.57 619.13 1786.57 499.86 1765.95 388.849 1743.86 388.849 1731.23 388.849 1725.17 490.844 1732.29 583.231 1735.26 621.866 1738.5 661.771 1743.57 722.062 1755.63 865.549 1751.01 1011.19 1730.63 1130.86 1714.89 1223.27 1710.9 1237.31 1624.88 1496.38 1586.07 1613.26 1552.05 1715.89 1549.29 1724.42 1543.22 1743.15 1542.65 1766.94 1548.31 1766.94 1558.71 1766.94 1586.6 1728.49 1654.55 1620.52L1665.64 1602.91 1662.24 1617.99C1656.68 1642.29 1633.29 1707.7 1598.22 1797.19 1560.6 1893.19 1539.08 1940.24 1515.53 1977.76 1497.1 2007.11 1494.9 2018.12 1506.58 2022.6 1520.29 2027.87 1534.59 2008.24 1569.72 1936.02 1609.54 1854.16 1636.04 1787.29 1692.88 1625.57 1702.16 1599.2 1711.35 1573.7 1713.31 1568.85 1717.61 1558.25 1725.96 1562.03 1725.96 1574.59 1725.96 1579.54 1733.16 1597.93 1741.92 1615.46 1759.22 1650.07 1759.21 1651.02 1741.33 1739.21 1732.44 1783.06 1628.57 1977.08 1545.88 2104.42 1517.79 2147.69 1514.04 2163.18 1531.68 2163.18 1538.67 2163.18 1550.38 2150.17 1570.21 2120.27 1611.13 2058.56 1681.09 1937.39 1722.27 1856.92 1741.8 1818.74 1759.56 1788.58 1761.67 1789.89 1769.53 1794.75 1772.03 1833.09 1766.34 1861.39 1754.43 1920.58 1723.45 1994.69 1696.19 2029.41 1659 2076.78 1617.75 2120.7 1591.32 2141.1 1571.37 2156.48 1564.34 2165.17 1565.44 2172.81 1566.27 2178.59 1570.41 2183.99 1574.58 2184.78 1586.12 2186.98 1642.94 2136.94 1688.02 2084.96L1728.3 2038.46 1734.14 2052.86C1743.44 2076.15 1752.21 2164.4 1750.39 2216.21L1748.73 2264.17 1733.56 2265.53C1667.03 2271.46 1570.48 2300.47 1460.95 2347.45 1387.91 2378.77 1308.17 2403.53 1233.59 2417.98 1171.4 2430.02 1019.37 2435.65 953.597 2428.39 900.61 2422.54 818.434 2405.22 761.842 2387.91 698.616 2368.58 637.812 2357.55 593.437 2357.46 573.615 2357.43 552.778 2356.14 547.224 2354.64 534.432 2351.19 465.309 2216.13 471.34 2206.38 477.267 2196.78 509.725 2202.08 605.304 2228.36 673.599 2247.14 783.476 2274.72 824.882 2283.43 858.978 2290.6 884.596 2295.63 943.573 2306.68 1011.33 2319.38 1207.78 2337.43 1276.69 2337.33 1325.94 2337.25 1434.87 2324.39 1448.69 2317 1456.85 2312.63 1458.08 2309.74 1453.65 2305.32 1446.85 2298.52 1388.05 2299.7 1362.01 2307.17 1338.85 2313.81 1287.2 2313.38 1257.81 2306.29 1178.52 2287.16 1026.95 2230.55 916.541 2178.84 889.216 2166.05 865.939 2155.59 864.784 2155.59 860.148 2155.59 763.555 2098.2 729.748 2075.33 674.343 2037.86 613.626 1970.95 575.645 1905.66 557.902 1875.16 531.312 1829.67 516.59 1804.58 452.48 1695.34 433.959 1615.55 472.713 1615.55 483.655 1615.55 495.999 1625.12 529.625 1659.82 565.231 1696.55 579.742 1717 614.849 1779.67 668.677 1875.76 713.516 1943.29 756.307 1992.83 792.221 2034.42 812.345 2045.25 812.345 2022.99 812.345 2016.29 807.438 2006.49 801.545 2001.2 788.485 1989.47 746.675 1935.72 746.675 1930.67 746.675 1928.66 758.561 1938.3 773.137 1952.07 893.55 2065.8 1092.99 2160.6 1279.22 2192.66 1403.5 2214.05 1412.99 2214.77 1412.99 2203.56 1412.99 2199.39 1411.81 2195.97 1410.37 2195.97 1401.04 2195.97 1326.57 2173.53 1307.44 2164.93 1248.78 2138.59 1202.65 2113.31 1193.42 2102.48 1187.86 2095.96 1167.42 2079.99 1147.98 2066.97 963.765 1943.5 745.352 1692.36 630.319 1471.66 612.95 1438.34 593.767 1406.17 587.609 1400.15 564.608 1377.67 517.898 1206.48 494.894 1060.22 462.847 856.481 457.028 603.047 478.257 338.549 481.386 299.552 482.796 295.25 494.309 289.708 501.251 286.368 564.773 264.862 635.571 241.939 706.368 219.016 773.76 196.135 785.297 191.057 796.835 185.979 809.387 183.068 813.123 184.636 816.856 186.203 829.661 199.773 841.628 214.698 868.099 247.719 920.604 290.915 960.415 312.47 1025.86 347.904 1108.04 363.377 1179.31 353.623 1310.52 335.666 1407.84 269.11 1476.92 150.295 1489.42 128.778 1500.28 111.183 1501.04 111.186L1501.03 111.194ZM374.643 351.786C381.714 350.541 382.04 359.423 374.84 377.763 365.936 400.43 354.218 405.103 342.344 390.798 336.503 383.762 338.238 380.378 354.893 365.114 363.757 356.988 370.4 352.533 374.643 351.786ZM323.082 414.05C325.302 414.05 333.107 419.256 340.401 425.529L353.632 436.911 345.946 469.696C341.724 487.715 336.999 510.946 335.342 521.356 333.686 531.767 330.539 540.328 328.434 540.328 323.677 540.328 292.34 508.312 292.34 503.455 292.34 501.507 295.477 499.953 299.344 499.953 308.938 499.953 312.778 488.257 316.174 448.196 317.765 429.458 320.863 414.05 323.082 414.05ZM2003.53 459.485C2010.15 459.485 2023.88 524.024 2030.67 586.933 2036.51 641.003 2038.15 646.741 2050.42 656.395 2067.8 670.068 2074.07 693.694 2068.91 726.346 2065.28 749.312 2066.93 758.614 2082.62 804.079 2128.49 936.948 2191.18 1147.31 2186.33 1151.89 2181.16 1156.76 2138.12 1169.31 2049.45 1191.87 2006.65 1202.76 1968.61 1211.72 1964.9 1211.72 1956.66 1211.72 1956.27 1186.39 1962.96 1082.13 1965.6 1040.96 1968.93 894.179 1970.35 756.024L1972.98 504.825 1986.21 482.158C1993.51 469.693 2001.32 459.488 2003.53 459.488L2003.53 459.485ZM1886.01 485.751C1898.95 485.844 1902.58 493.795 1901.96 515.037 1901.53 529.989 1896.44 537.343 1868.98 562.806L1836.58 592.867 1839.79 570.393C1841.56 558.011 1844.81 541.072 1847.09 532.741 1849.37 524.411 1852.63 511.456 1854.29 503.944 1856.68 493.12 1861.09 489.524 1875.5 486.822 1879.54 486.065 1883.02 485.729 1886.01 485.751ZM275.98 540.817C279.508 540.789 286.841 546.355 301.275 559.303L327.933 583.234 322.096 603.374C316.093 624.298 317.824 730.019 327.348 926.463 329.904 979.213 334.402 1079.83 337.272 1150.03 340.14 1220.23 343.779 1279.71 345.345 1282.24 346.914 1284.78 343.692 1289.25 338.244 1292.17 314.063 1305.11 169.16 1290.54 155.247 1273.78 151.977 1269.84 149.413 1255.98 149.507 1242.94 149.609 1228.71 146.537 1215.66 141.918 1210.35 135.368 1202.82 135.175 1198.34 140.556 1180.09 153.752 1135.35 191.14 1090.94 243.389 1057.9 259.512 1047.7 273.965 1036.1 275.492 1032.12 282.168 1014.72 269.621 995.128 221.693 948.448L171.688 899.804 176.942 880.347C179.842 869.628 188.819 837.194 196.886 808.257 204.953 779.32 211.576 749.72 211.576 742.491 211.576 723.263 224.905 707.33 250.006 696.571 274.677 685.995 277.569 676.584 264.21 650.748 257.075 636.95 257.123 631.514 264.112 594.224 268.367 571.526 272.475 549.027 273.257 544.22 273.608 542.065 274.377 540.833 275.98 540.817ZM1939.9 556.19C1940.23 556.178 1940.6 556.305 1940.87 556.579 1945.17 560.875 1932.27 1214.84 1927.54 1232.74 1922.15 1253.13 1901.09 1273.61 1873.64 1285.08 1863.92 1289.14 1851.6 1292.47 1846.21 1292.47 1836.63 1292.47 1836.46 1288.64 1839.79 1132.14 1842.69 995.728 1844.69 966.287 1853.21 934.062 1868.57 876.026 1875.34 848.418 1882.3 815.371 1885.81 798.712 1890.41 778.268 1892.62 769.937 1894.82 761.606 1900.39 733.269 1904.97 706.894 1909.56 680.519 1915.49 649.362 1918.11 637.722 1920.72 626.082 1922.87 609.572 1922.87 600.949 1922.87 586.818 1934.81 556.352 1939.9 556.196L1939.9 556.19ZM1898.74 573.117 1895.92 588.293C1894.36 596.624 1891.64 613.644 1889.89 626.138 1884.14 667.073 1848.75 838.11 1845.33 841.534 1844.25 842.618 1842 836.525 1840.27 827.914 1838.55 819.306 1834.87 813.655 1832.1 815.365 1829.34 817.074 1824.94 825.741 1822.37 834.629 1816.19 856.001 1815.52 749.881 1821.5 698.33 1825.17 666.612 1828.58 657.852 1848.45 630.132 1860.98 612.651 1877.46 592.711 1885.03 585.769L1898.74 573.117ZM2193.04 1183.12C2197.5 1182.78 2200.55 1186.16 2202.38 1193.43 2204.08 1200.2 2206.78 1209.14 2208.41 1213.38 2210.36 1218.47 2206.4 1223.65 2196.74 1228.65 2172.56 1241.15 2090.27 1267.14 2033.88 1280.11 1973.08 1294.1 1953.13 1295.47 1953.13 1285.56 1953.13 1281.79 1954.53 1268.52 1956.24 1256.08 1959.03 1235.71 1960.45 1233.71 1971.12 1235.75 1982.16 1237.86 2042.25 1226.84 2076.78 1216.39 2085.11 1213.87 2112.4 1206.03 2137.39 1198.88 2162.38 1191.73 2186.56 1184.72 2191.09 1183.41 2191.79 1183.21 2192.4 1183.17 2193.04 1183.12ZM390.116 1187.11C390.222 1187.06 390.287 1187.09 390.409 1187.21 392.358 1189 401.924 1218.48 411.715 1252.78 421.503 1287.07 430.778 1319.13 432.241 1323.99 434.137 1330.27 432.048 1332.85 425.14 1332.85 407.192 1332.85 397.457 1320.9 396.149 1297.24 395.468 1284.9 393.111 1254.32 390.894 1229.33 388.818 1205.9 388.544 1187.8 390.116 1187.11ZM1920.54 1296.55C1922.04 1296.34 1922.87 1296.51 1922.87 1297.14 1922.87 1305.23 1896.86 1333 1882.11 1340.63 1865.03 1349.46 1839.06 1350.29 1834.05 1342.18 1830.07 1335.75 1844.97 1322.73 1856.32 1322.73 1860.31 1322.73 1876.89 1315.93 1893.2 1307.65 1905.43 1301.43 1916.02 1297.21 1920.54 1296.55ZM458.607 1416.51C459.83 1416.62 461.06 1419.29 462.887 1423.71 471.01 1443.34 488.226 1490.6 491.781 1503.19 493.546 1509.44 494.219 1514.49 493.338 1514.38 492.457 1514.27 480.782 1504.07 467.364 1491.72L442.944 1469.24 450.338 1440.15C454.643 1423.17 456.567 1416.34 458.607 1416.51ZM542.47 1543.18C544.385 1543.83 553.351 1557.32 565.137 1577.62 634.288 1696.71 701.898 1776.27 797.168 1850.61 851.618 1893.09 893.092 1933.61 893.092 1944.39 893.092 1964.01 847.406 1948.45 783.448 1907.04 732.541 1874.07 707.856 1846.28 662.715 1771.42 640.303 1734.25 612.38 1688.37 600.743 1669.46 580.28 1636.21 549.637 1570.73 542.371 1544.84 542.006 1543.53 542.028 1543.03 542.47 1543.18ZM413.079 1764.41 422.615 1787.18C478.553 1920.78 548.258 2033.1 601.721 2075.73 623.719 2093.28 763.748 2165.67 775.768 2165.72 780.786 2165.75 847.356 2193.07 866.147 2202.79 874.4 2207.06 884.135 2214.11 887.744 2218.45 897.22 2229.87 889.907 2228.24 812.345 2202.4 752.54 2182.48 613.349 2123.77 520.774 2079.33 486.778 2063.01 455.914 2049.66 452.187 2049.66 448.461 2049.66 441.176 2037.05 435.939 2021.64 426.438 1993.69 426.391 1993.54 437.596 1962.3 453.162 1918.88 452.137 1891.3 433.508 1851.49 425.093 1833.5 417.123 1806.61 415.704 1791.65L413.079 1764.41ZM445.575 2074.86C446.808 2074.86 477.024 2089.14 512.702 2106.58L615.438 2156.78C659.194 2178.14 658.471 2178.41 597.733 2163.39 529.336 2146.48 487.463 2139.42 465.811 2141.31L446.353 2143.06 444.796 2108.91C443.975 2090.17 444.342 2074.86 445.575 2074.86Z" fill="#000000" fill-opacity="0.07107" transform="matrix(1.00041 0 0 1 1071 0)"/><path d="M877.442 1.28021C876.384 1.23034 875.291 1.30471 874.136 1.3775L873.94 1.3775C873.052 1.37351 872.013 1.56339 870.926 1.76665 870.805 1.78938 870.661 1.74106 870.537 1.76665 856.664 3.9623 836.008 13.9212 801.075 34.4554 735.408 73.053 529.46 145.899 429.233 165.988 371.322 177.598 334.218 192.778 303.633 217.356 280.3 236.107 245.058 287.341 229.501 325.15 213.537 363.943 192.825 435.939 192.825 452.499 192.825 461.664 186.217 475.813 175.605 489.564 157.648 512.839 147.439 541.275 147.391 568.076 147.376 576.762 144.198 586.528 140.29 589.772 124.874 602.568 116.505 631.228 114.411 678.402 112.728 716.321 108.125 738.668 92.1323 788.046 47.1869 926.821 16.0268 1047 8.56132 1110.08 7.49897 1119.05 5.8288 1142.56 4.37779 1168.64 4.31397 1169.79 4.24629 1170.79 4.18322 1171.95 3.42739 1183.37 2.71013 1194.72 2.33474 1205.13 1.90129 1217.14 1.69056 1226.53 1.55644 1234.51 1.25116 1252.66 1.8243 1261.94 3.89135 1267.29 3.92523 1267.41 3.95393 1267.56 3.98864 1267.68 7.30545 1278.92 14.4278 1281.62 27.824 1284.41 36.6552 1286.25 56.3335 1293.01 71.6019 1299.4 99.961 1311.26 152.156 1327.5 192.824 1337.24 205.318 1340.23 250.677 1344.01 293.711 1345.61 366.863 1348.32 372.838 1349.27 384.771 1360.39 391.791 1366.94 405.109 1374.98 414.346 1378.2 419.309 1379.93 422.786 1381.15 425.146 1382.68L425.242 1382.77C426.671 1383.87 427.755 1385.23 428.648 1386.76 429.978 1390.13 429.299 1395.15 427.87 1404.08 426.108 1415.11 419.931 1436.96 414.153 1452.62 408.375 1468.29 401.548 1494.73 398.88 1511.38 393.556 1544.61 397.024 1611.95 405.592 1640.68 410.094 1655.77 409.287 1663.71 401.018 1686.11 374.553 1757.84 375.733 1806.61 405.299 1869.11 422.643 1905.77 423.381 1919.02 409.872 1950.54 398.487 1977.1 396.638 2018.87 406.077 2035.47 410.355 2042.99 413.319 2086.56 415.417 2172.65 418.017 2279.16 420.199 2306.23 429.816 2346.11 438.922 2383.86 442.306 2400.06 459.295 2406.43L459.587 2406.53C464.391 2408.91 470.169 2409.87 477.292 2409.74 490.595 2410.64 508.639 2409.84 534.401 2408.86 625.929 2405.39 674.439 2411.38 766.92 2437.46 836.812 2457.18 869.307 2464.05 929.778 2472.2 935.491 2472.96 945.995 2473.74 959.061 2474.43 962.249 2475.12 964.5 2475.78 964.901 2476.18 966.536 2477.82 1000.38 2477.9 1044.09 2477.16L1045.26 2477.16C1053.04 2477.28 1060.87 2477.3 1068.61 2477.35 1248.93 2478.61 1326.72 2463.46 1497.64 2393.68 1630.7 2339.37 1676.62 2325.61 1753.41 2317.02 1775.71 2314.53 1796.22 2310.3 1798.94 2307.58 1821.23 2285.29 1815.48 2085.44 1790.87 2026.52 1783.82 2009.67 1784.23 2006.74 1797.77 1973.89 1823.1 1912.48 1830.21 1882.4 1830.17 1837 1830.14 1802.2 1827.97 1789.85 1818.59 1771.72 1805.84 1747.09 1805.97 1741.35 1821.32 1662.86 1828.04 1628.47 1830.32 1590.75 1830.56 1507.88L1830.85 1398.72 1835.72 1398.43 1861.79 1398.43C1898.63 1398.43 1925.39 1388.33 1949.44 1365.26 1965.13 1350.22 1973.43 1347.08 2023.48 1337.63 2123.21 1318.8 2243.49 1277.99 2263.97 1256 2266.47 1253.32 2268.29 1251.12 2269.52 1248.51L2269.62 1248.32C2271.6 1245.33 2272.54 1242.36 2272.54 1239.37 2272.54 1236.96 2271.45 1231.12 2269.72 1223.32 2268.36 1214.84 2266.2 1203.82 2263.1 1188.29 2253.88 1142.09 2184.63 913.617 2148.4 809.758 2133.01 765.644 2131.2 755.376 2134 728.718 2137.87 691.848 2131.1 664.178 2111.82 637.56 2100.69 622.199 2096.78 609.896 2094.21 582.494 2088.08 517.359 2049.28 365.123 2028.24 323.708 1989.8 248.025 1932.35 213.176 1733.36 144.99 1590.73 96.1128 1533.29 72.44 1494.03 46.1458 1473.83 32.6137 1453.22 19.9706 1448.21 18.127 1443 16.2092 1426.81 19.9298 1410.37 26.7855 1353.67 50.4193 1258.33 64.7977 1156.93 65.0187 1048.58 65.2544 989.384 51.7733 885.888 3.33988 883.37 2.16019 880.602 1.44655 877.423 1.29683L877.442 1.28021ZM867.713 45.0581C867.751 45.0724 867.772 45.0406 867.813 45.0581 867.844 45.073 867.875 45.1384 867.909 45.1555L892.037 86.5985C922.521 139.065 994.62 212.21 1038.45 235.254 1055.17 244.039 1085.81 255.149 1106.56 259.868 1139.21 267.294 1148.66 267.549 1177.09 262.008 1217.12 254.208 1262.04 234.609 1301.52 207.624 1330.76 187.64 1404.91 114.296 1430.04 80.5673L1443.07 63.1527 1466.52 78.0375C1481.07 87.2321 1490.06 96.6109 1490.06 102.554 1490.07 116.289 1459.61 168.532 1431.01 203.83 1377.31 270.091 1307.54 312.108 1221.26 330.109 1066.77 362.337 902.774 278.556 825.286 127.846 803.043 84.5753 803.718 81.8045 842.02 59.7443L867.704 45.0537 867.713 45.0581ZM907.796 66.2668C912.142 66.5271 927.471 71.0836 944.862 77.3576 1007.63 100.001 1036.2 106.2 1110.93 107.517 1139.95 110.542 1158.52 110.542 1194.11 107.517 1276.11 106.051 1329.51 99.5162 1378.96 85.3352 1388.36 82.6401 1396.94 81.3257 1398.03 82.4166 1399.12 83.5074 1385.63 99.556 1368.06 118.025 1335.7 152.056 1333.66 153.055 1275.54 166.28 1244.83 173.269 1118.78 176.255 1076.59 170.95 1056.01 168.363 1020.71 160.537 998.079 153.633 957.037 141.114 956.795 141.057 930.659 104.892 916.245 84.9473 905.467 67.6273 906.631 66.4629 906.775 66.3176 907.176 66.2298 907.796 66.2668ZM782.975 95.7451C783.015 95.7492 783.034 95.837 783.074 95.8426L804.574 137.093C821.759 170.127 837.322 189.812 881.723 234.477 927.048 280.073 944.843 294.238 977.746 310.943 1077.73 361.711 1171.22 369.326 1273.99 335.071 1367.35 303.948 1448.3 232.248 1497.85 136.7 1507.84 117.42 1514.03 110.458 1519.83 112.281 1524.29 113.679 1549.59 123.274 1575.96 133.49 1602.34 143.706 1672.45 168.762 1731.82 189.235 1929.4 257.367 1976.06 289.913 2005.1 379.821L2014.93 410.078C2014.99 411.136 2015.03 412.226 2015.03 413.191 2015.02 413.917 2014.85 414.782 2014.64 415.819L1992.36 455.705C1979.34 478.892 1963.32 504.396 1956.75 512.425 1945.13 526.633 1944.76 526.739 1944.59 515.441 1944.38 502.413 1930.88 473.438 1922.31 467.772 1913.45 461.913 1886.45 463.348 1879.8 470.01 1867.11 482.697 1872.89 489.455 1893.51 486.159 1910.06 483.512 1914.07 484.68 1918.71 493.359 1927.01 508.866 1925.85 544.727 1917.06 544.727 1913.11 544.727 1896.34 559.671 1879.8 578.001 1863.25 596.329 1848.5 609.401 1847.01 606.991 1844.35 602.692 1848.25 579.77 1861.02 524.491 1864.55 509.221 1866.32 494.941 1865.01 492.678 1859.3 482.865 1845.1 506.466 1839.13 535.677 1823.88 610.257 1821.57 624.827 1815.2 685.304 1812.38 712.053 1803.94 916.298 1798.07 1099.95 1795.28 1187.41 1791.28 1273.76 1789.12 1291.8 1786.88 1310.58 1766.57 1379.64 1741.65 1453.3 1717.69 1524.1 1690.76 1604.74 1681.81 1632.5 1642.56 1754.39 1574 1922.46 1540.36 1979.25 1529.38 1997.79 1520.41 2014.34 1520.41 2016.13 1520.41 2017.92 1525.25 2018.67 1531.21 2017.78 1555.19 2014.21 1624.66 1858.55 1701.95 1635.04 1708.19 1617 1720.89 1582.95 1730.17 1559.35 1739.44 1535.75 1754.24 1495.49 1763.05 1469.85 1771.86 1444.21 1781.04 1424.46 1783.48 1425.97 1789.71 1429.82 1789.01 1567.65 1782.5 1619.67 1768.01 1735.59 1758.45 1769.14 1716.54 1851.02 1675.83 1930.58 1628.75 2012.94 1572.07 2103.68 1549.8 2139.32 1541.1 2157.54 1544.64 2161.08 1547.48 2163.92 1552.17 2164.8 1555.04 2163.02 1568.23 2154.88 1689.25 1948.25 1741.35 1844.98 1771.15 1785.93 1774.95 1780.67 1781.14 1789.13 1792.53 1804.7 1791.83 1853.5 1779.68 1897.51 1766.88 1943.87 1737.15 2009.51 1715.67 2038.87 1704.49 2054.14 1670.62 2091.05 1640.37 2120.88 1587.69 2172.82 1573.71 2196.12 1606.9 2176.53 1623.15 2166.94 1698.16 2091.18 1728.22 2054.04L1746.61 2031.28 1752.25 2045.68C1762.37 2071.81 1770.22 2141.24 1772.19 2196.18 1772.19 2196.64 1772.2 2197.09 1772.19 2197.54 1772.15 2201.74 1772.01 2205.91 1771.9 2210.09L1770.64 2258.45 1770.64 2258.54C1769.69 2264.42 1768.4 2268.46 1766.75 2270.12 1763.41 2273.45 1753.06 2276.15 1743.79 2276.15 1696.48 2276.15 1602.74 2304.46 1480.04 2355.73 1367.39 2402.8 1277.97 2426.84 1176.31 2437.55 1132.27 2442.19 1030.42 2443.2 990.389 2439.4 925.971 2433.28 842.434 2415.98 762.443 2392.22 697.984 2373.07 610.111 2361.3 539.46 2362.35 509.395 2362.79 482.905 2361.17 480.601 2358.75 470.873 2348.52 460.49 2252.63 458.516 2154.74 456.829 2071.08 454.653 2046.05 447.231 2025.15 442.885 2012.92 440.587 2006.3 440.615 1999.37 440.653 1998.39 440.737 1997.35 440.808 1996.35 440.827 1996.13 440.889 1995.9 440.908 1995.67 441.683 1989.02 444.426 1981.06 449.273 1967.26 464.939 1922.66 463.74 1896.17 444.214 1854.12 422.201 1806.71 421.662 1766.2 442.268 1704.59L456.96 1660.52 448.591 1625.59C436.21 1574.29 437.63 1523.29 452.776 1475.57 459.712 1453.72 466.738 1428.41 468.438 1419.34 472.028 1400.21 478.192 1397.87 482.058 1414.18 489.564 1445.84 547.719 1604.18 569.814 1653.12 613.619 1750.16 692.953 1886.93 746.781 1958.12 769.224 1987.8 813.248 2033.81 819.163 2033.81 830.047 2033.81 822.123 2017.31 798.052 1989.93 783.875 1973.8 762.568 1947.05 750.769 1930.39 698.155 1856.09 593.794 1656.68 552.594 1551.76 535.693 1508.71 503.287 1409.77 473.208 1309.52 465.711 1284.53 457.595 1258.38 455.21 1251.44 437.627 1200.25 411.697 1043.76 416.781 1019.5 418.275 1012.38 416.332 987.26 412.5 963.659 394.036 849.946 390.642 727.227 402.868 620.428 416.426 501.999 416.849 479.506 406.37 451.44 399.188 432.197 391.673 422.82 374.363 411.357 361.932 403.126 350.024 393.391 347.804 389.758 341.871 380.051 320.106 381.785 314.434 392.386 311.735 397.426 308.764 416.161 307.819 434.025 306.873 451.888 303.904 466.337 301.203 466.228 293.581 465.916 257.133 402.771 257.133 389.858 257.133 372.178 278.288 323.294 299.746 291.306 330.361 245.664 358.613 227.896 422.525 214.061 514.482 194.154 680.273 141.449 754.175 108.601L782.972 95.7595 782.975 95.7451ZM1008.88 182.526C1010.93 182.428 1014.89 183.082 1021.14 184.18 1030.61 185.846 1046.25 189.771 1055.97 192.838 1081.71 200.963 1240.4 200.296 1264.55 191.963 1275.15 188.306 1285.02 186.457 1286.44 187.876 1290.14 191.578 1247.33 215.825 1216.2 227.666 1185.63 239.3 1127.9 243.663 1099.46 236.52 1075.09 230.4 1024.18 203.613 1012.58 190.793 1007.34 185.004 1005.47 182.686 1008.88 182.524L1008.88 182.526ZM339.819 414.558C352.418 415.034 378.466 444.41 384.571 466.218 390.44 487.173 388.376 544.173 381.069 563.214 379.659 566.893 377.019 569.882 375.232 569.829 366.007 569.555 323.521 538.096 309.66 521.282 290.096 497.547 288.989 487.737 306.352 492.095 321.432 495.878 323.176 492.413 328.048 448.803 330.012 431.207 334.274 415.915 337.484 414.85 338.194 414.614 338.982 414.524 339.819 414.558ZM2021.73 451.916C2023.54 452.022 2024.71 454.749 2026.4 459.211 2035.83 484.147 2049.94 558.516 2053.35 601.251 2056.52 641.016 2058.16 646.392 2071.15 657.97 2089.02 673.894 2092.89 688.698 2089.35 727.824 2086.82 755.644 2089.21 766.192 2114.15 839.607 2138.07 909.987 2210.72 1145.88 2211.83 1156.56 2211.79 1156.86 2211.82 1157.15 2211.73 1157.44 2207.6 1161.99 2140.87 1183.58 2100.92 1193.15 2082.88 1197.47 2060.15 1203.12 2050.43 1205.7 2040.71 1208.27 1979.95 1223.29 1966.76 1226.6 1951.49 1242.17 1953.54 1225.05 1959.76 1239.37 1974.34 1239.37 2100.29 1214.12 2163.38 1194.99 2190.78 1186.68 2214.82 1181.79 2216.89 1184.1 2218.96 1186.4 2223.35 1196.27 2226.62 1205.99 2231.92 1221.76 2231.4 1224.52 2222.14 1232.06 2208.05 1243.53 2115.67 1273.81 2047.9 1289.17 2017.36 1296.09 1986.02 1301.79 1978.24 1301.82L1964.04 1301.91 1966.76 1260.27C1973.14 1161.5 1976.32 1040.06 1979.22 781.898L1982.33 508.128C1982.85 506.908 1983.43 505.638 1984.08 504.237L2001.98 476.803C2013.86 458.716 2018.7 451.72 2021.73 451.898L2021.73 451.916ZM236.991 458.921C239.078 458.921 246.399 469.683 253.335 482.852 265.947 506.799 320.184 562.457 357.723 590.065L377.57 604.756 373.193 646.688C368.292 692.978 372.399 858.872 379.905 918.219 382.542 939.04 386.698 985.642 389.244 1021.73 391.794 1057.82 396.258 1101 399.073 1117.66 405.056 1153.09 430.762 1253.53 445.674 1299.68 451.387 1317.37 454.637 1334.18 452.872 1337.04 446.091 1348.01 427.817 1341.54 409.384 1321.57 388.908 1299.39 386.225 1298.73 336.612 1304.55 334 1304.85 331.255 1305.11 328.537 1305.32L306.064 1305.13C294.565 1305 284.886 1304.82 276.002 1304.64 216.3 1299.45 143.102 1280.34 69.0702 1249.77 44.1948 1239.5 38.5714 1234.89 37.2564 1224.09 36.3156 1216.36 38.5266 1209.9 42.6074 1208.33 46.4242 1206.87 197.689 1249.77 233.491 1251.44 276.002 1260.85 436.658 1271.54 440.519 1267.68 450.923 1243.84 345.261 1257.35 94.9497 1193.74 69.5923 1184.91 48.1395 1177.04 44.5531 1175.25 44.177 1174.66 43.8495 1174.03 43.5802 1173.4 43.4461 1160.63 60.9535 1065.37 72.0854 1019.39 85.9849 961.987 126.025 825.579 137.559 796.315 148.705 768.041 162.442 692.76 162.465 659.919 162.477 642.208 165.647 632.626 175.015 621.49 191.657 601.715 197.877 584.032 197.878 556.501 197.878 537.688 200.938 530.011 215.487 513.013 227.986 498.412 233.193 487.513 233.193 475.655 233.193 466.439 234.9 458.921 236.988 458.921L236.991 458.921ZM1960.93 549.886C1961.28 549.923 1961.56 550.026 1961.81 550.275 1965.53 553.995 1955.68 1196.76 1951.49 1223.6 1946.84 1253.43 1936.05 1268.41 1905.96 1286.64 1885.14 1299.26 1871.23 1303.62 1845.25 1305.71L1811.59 1308.43 1815 1288.78C1821.93 1248.92 1828.14 1062.66 1827.84 903.117 1827.55 746.983 1832.07 677.353 1843.99 654.838 1853.2 637.457 1909.45 569.907 1914.72 569.907 1918.36 569.907 1919.05 578.801 1916.86 596.466 1907.21 674.237 1869.95 852.387 1856.45 885.409 1853.04 893.74 1846.06 917.02 1840.88 937.166 1833.3 966.629 1832.64 975.016 1837.77 980.069 1842.85 985.087 1845.43 984.652 1850.61 977.637 1855.94 970.415 1876.63 892.136 1904.22 774.404 1912.12 740.676 1922.87 680.868 1929.22 635.574 1932.53 611.976 1936.16 588.104 1937.29 582.553 1939.68 570.828 1955.7 549.266 1960.93 549.864L1960.93 549.886ZM1939.62 1291.79C1958.06 1291.79 1922.34 1339.32 1895.45 1350.56 1879.53 1357.21 1861.37 1358.47 1840.97 1354.16L1819.47 1349.58C1799.85 1345.39 1805.7 1332.17 1827.16 1332.17 1848.21 1332.17 1890.06 1318.24 1917.25 1302.2 1926.97 1296.47 1937.01 1291.79 1939.62 1291.79ZM598.019 1413.6C587.163 1413.02 590.927 1427.03 612.318 1469.83 728.998 1703.25 946.646 1955.74 1154.42 2098.6 1189.58 2122.78 1218.34 2127.6 1203.55 2106.87 1201.51 2104.01 1176.51 2085.15 1148 2064.94 1079.63 2016.48 1044.51 1987.08 978.425 1923 850.631 1799.08 721.766 1628.36 641.234 1476.16 621.686 1439.21 605.861 1414.93 600.469 1413.89 599.619 1413.73 598.763 1413.64 598.038 1413.6L598.019 1413.6ZM470.474 2063.2C466.685 2063.51 465.415 2065.68 465.415 2069.42 465.415 2075.13 544.939 2115.44 628.566 2152.12 662.354 2166.94 705.932 2186.64 725.368 2195.8 744.804 2204.97 784.553 2220.9 813.705 2231.31 867.601 2250.56 896.984 2254.15 896.984 2241.43 896.984 2240.08 894.527 2238.16 890.368 2235.78L890.172 2235.59C888.354 2234.09 885.891 2232.81 883.363 2232.09L883.071 2231.99C872.302 2226.96 855.671 2220.64 833.845 2213.31 761.892 2189.16 643.304 2139.69 542.953 2091.9 499.025 2070.97 478.805 2062.52 470.474 2063.19L470.474 2063.2Z" transform="matrix(1.00041 0 0 1 1071 0)"/></g></svg>