<svg width="137" height="150" viewBox="0 0 137 150" fill="none" xmlns="http://www.w3.org/2000/svg">
<g clip-path="url(#clip0_685_1275)">
<mask id="mask0_685_1275" style="mask-type:luminance" maskUnits="userSpaceOnUse" x="0" y="0" width="137" height="150">
<path d="M136.848 0H0V150H136.848V0Z" fill="white"/>
</mask>
<g mask="url(#mask0_685_1275)">
<path fill-rule="evenodd" clip-rule="evenodd" d="M51.8112 1.3335L35.287 8.83247L22.3506 11.9842L18.8719 14.3752L15.2846 19.2658L13.2185 25.5693L12.784 28.6123L10.61 31.2206V34.4811L8.87064 37.3068L8.00095 43.2842L6.04397 50.7832L3.97852 57.0867L1.80398 64.5856L1.36943 70.128L1.15186 75.6711L7.34822 78.388L15.067 80.1268L22.6767 80.2359L27.4597 83.0614L26.047 88.4953L25.6119 92.625L25.5034 97.0814L26.3731 99.4723L26.1555 100.559L24.6337 105.123L24.4161 108.601L25.8294 113.383L26.4815 115.774L25.6119 118.817L25.2858 121.317L26.264 125.012L26.5906 133.924L27.6773 143.487L28.547 144.357L38.4397 144.249L46.5931 145.987L56.2688 148.487L69.7488 149.03L81.4894 146.748L92.9046 142.836L100.84 140.119L108.776 138.597C108.74 135.554 108.704 132.511 108.668 129.468L106.602 121.752L109.755 111.97L108.885 107.841L108.342 105.558L109.428 97.0814C109.392 94.0383 109.356 90.9947 109.32 87.9517L108.994 82.1917L112.69 82.8438L115.625 82.3008L118.778 80.5614L130.301 77.5183L136.606 75.4535L135.085 68.1723L127.909 46.2186L128.453 41.0019L125.952 38.0676L121.061 19.2658L118.778 15.3533L106.385 10.1366L95.9482 6.7675L88.1209 2.20293L77.9021 4.05051L66.0525 4.48522L57.1385 2.42029L51.8112 1.3335Z" fill="#D3414B"/>
<path fill-rule="evenodd" clip-rule="evenodd" d="M1.38609 72.4849L27.0837 76.7109L28.6667 82.303L0.969727 76.7867L1.38609 72.4849Z" fill="white"/>
<path fill-rule="evenodd" clip-rule="evenodd" d="M109.298 80.2688C112.73 78.9706 116.266 79.6506 119.281 74.7063L135.247 70.7275C135.455 72.0354 138.189 73.5785 135.038 75.4427C131.887 77.3075 120.063 80.85 116.342 81.9148C112.622 82.9791 113.424 82.4136 112.174 82.7269C110.924 83.0409 109.329 83.1924 108.485 82.276L109.298 80.2688Z" fill="white"/>
<path fill-rule="evenodd" clip-rule="evenodd" d="M52.4724 2.0618C52.8542 2.0591 53.2699 2.06073 53.7245 2.06703C60.1609 2.05315 63.1936 6.70995 85.3421 3.35789C91.6918 3.81593 92.4421 2.69163 91.8239 4.81531C88.17 10.4368 89.7675 12.1232 83.1536 16.8703C80.6281 19.2403 76.8002 20.1078 73.816 20.5555C71.1657 22.0441 66.4518 20.9163 64.7287 19.8684C58.5112 17.9946 55.2318 15.7043 51.1609 11.5611L48.2427 4.21151C48.8221 3.12494 46.7487 2.10244 52.4724 2.0618ZM60.8718 10.1921C60.2778 10.2524 60.0166 10.4802 60.2893 10.9781C61.3803 12.9699 66.8166 14.8993 69.9293 14.9756C73.0415 15.052 78.9645 12.655 78.9645 11.4361C78.9645 10.2173 72.8748 11.4709 69.7627 11.3945C67.4281 11.3373 62.653 10.0113 60.8718 10.1921Z" fill="white"/>
<path d="M51.7777 1.85103C51.1654 1.84835 48.6151 3.19154 47.4127 4.15065C46.7317 4.69376 39.6084 7.40912 34.713 8.99142C29.1762 10.7811 27.5885 11.218 24.6204 11.7803C19.9734 12.6607 17.3254 14.6989 15.1825 19.0386C14.5756 20.2677 13.8549 22.2357 13.584 23.4137C13.3129 24.5916 12.9619 25.6889 12.8053 25.8488C12.6487 26.0086 12.5222 26.7067 12.5222 27.4054C12.5222 28.625 12.3923 28.8855 10.5344 31.4031C10.2726 31.7577 9.94925 32.9572 9.81471 34.074C9.63725 35.548 9.38005 36.315 8.86505 36.8629C8.26929 37.4969 8.10899 38.1233 7.8741 40.7663C7.57095 44.1769 7.42762 44.7644 5.33757 51.4089C3.72885 56.5237 2.41127 61.5667 1.53298 65.9371C0.861955 69.2758 0.305858 74.2037 0.512509 75.0116C0.584085 75.291 1.21674 75.7298 1.91639 75.9843L4.90101 77.0692C10.172 78.9849 11.8599 79.3098 17.1996 79.4334L22.3374 79.5516L23.411 80.6249C24.3472 81.5607 24.6714 81.6977 26.0006 81.6977C26.8365 81.6977 27.5225 81.7958 27.5223 81.9219C27.5215 82.5401 25.8854 88.6558 25.5404 89.3334C24.9176 90.5564 24.6936 94.4377 25.104 96.8395C25.6538 100.059 25.5834 101.158 24.626 104.327C23.6115 107.687 23.7103 108.796 25.3574 112.547C26.4549 115.046 26.5213 116.279 25.6819 118.407C24.983 120.18 24.8974 121.817 25.4519 122.789C25.712 123.244 25.8914 125.838 26.0181 130.949C26.2061 138.524 26.7554 142.821 27.6461 143.738C27.9424 144.043 28.4516 144.071 29.8404 143.85C31.8832 143.524 38.7243 143.876 41.1364 144.433C41.9788 144.628 44.3249 145.248 46.3449 145.807C50.0249 146.827 55.3692 147.955 57.6644 148.195C58.3379 148.266 61.8553 148.287 65.4744 148.243C70.805 148.176 72.6628 148.032 75.2663 147.493C80.7079 146.369 83.4333 145.504 89.3642 143.007C95.8881 140.259 100.666 138.804 104.429 138.419C105.967 138.262 106.583 138.064 106.8 137.659C107.19 136.93 107.175 130.384 106.777 127.376C106.602 126.059 106.17 124.138 105.815 123.107L105.172 121.238L106.299 118.608C108.475 113.543 108.793 109.544 107.201 107.199C106.608 106.325 106.474 105.846 106.629 105.123C108.433 96.7262 108.719 89.6783 107.514 83.2589L107.319 82.2274L109.425 82.4631C113.229 82.8928 114.851 82.4613 116.692 80.5231C117.353 79.8274 117.953 79.5461 119.14 79.3855C122.882 78.8795 127.801 77.6025 131.734 76.1128C135.388 74.7292 135.322 74.8443 134.341 71.608C134.008 70.5098 133.309 68.0934 132.79 66.2425C131.537 61.7789 129.73 55.9555 127.858 50.358C126.488 46.2604 126.351 45.6097 126.531 44.055C126.787 41.8484 126.319 40.1011 125.204 39.108C124.399 38.3912 124.313 38.112 124.124 35.4643C123.932 32.7529 122.746 27.2261 122.089 26.0008C121.924 25.6921 121.789 25.0963 121.789 24.6742C121.789 24.2521 121.418 22.9144 120.969 21.7025C119.73 18.3624 117.394 16.0131 113.389 14.0788C111.694 13.26 108.447 11.9567 106.175 11.1778C93.8315 6.94724 91.3626 5.93859 88.2667 3.88426C86.8195 2.92405 86.3787 2.76575 85.8542 3.01748C83.0949 4.34124 75.1759 5.51748 69.0134 5.51748C62.8418 5.51743 58.5139 4.66539 53.9956 2.56354C53.1539 2.17201 52.1539 1.85173 51.7777 1.8501V1.85103ZM51.3647 3.07156C51.5418 3.07156 51.9624 3.60756 52.2968 4.26259C53.3999 6.42409 56.658 10.4483 58.6024 12.0515C62.4101 15.1911 66.8574 16.6798 70.2757 15.9549C73.9694 15.1715 77.1804 13.5343 80.4156 10.7898C82.0157 9.43263 85.0382 6.08318 86.0076 4.59882L86.503 3.84999L87.7714 4.68726C88.4686 5.14858 89.0392 5.66635 89.0392 5.83703C89.0392 6.56469 87.119 9.85306 85.5359 11.8393C82.2922 15.9088 78.0583 18.3829 72.5112 19.4514C65.7842 20.7471 59.5358 18.7682 54.1904 13.6437C51.3249 10.8965 48.3331 6.53251 48.3331 5.10005C48.3331 4.66959 50.722 3.07175 51.3649 3.07175L51.3647 3.07156ZM91.0091 6.73912C91.0558 6.73912 92.0441 7.13421 93.2033 7.61172C94.3632 8.08924 96.1397 8.76378 97.1498 9.1153L104.765 11.7568C111.568 14.1162 114.995 15.7094 116.916 17.3994C118.401 18.7059 119.976 21.3494 120.544 23.4844C120.932 24.9435 120.815 25.2628 118.615 28.7497L117.376 30.7131L116.952 29.6635C116.29 28.0272 115.703 27.5467 114.391 27.5467C113.452 27.5467 112.973 27.7772 111.996 28.6965C110.589 30.022 110.301 30.9218 109.242 37.3344C108.867 39.606 108.505 41.5214 108.44 41.5914C108.374 41.6614 108.322 39.8321 108.322 37.5231C108.322 30.2946 107.071 23.5667 105.732 23.5667C104.966 23.5667 104.599 29.7482 105.031 35.3474C105.211 37.6889 105.407 40.1074 105.715 43.7614C106.446 52.4576 106.166 61.2843 104.93 68.5371C103.976 74.1377 103.734 74.9886 98.5182 90.6898C96.1651 97.7734 94.1025 103.993 93.9351 104.51C93.5671 105.646 93.5325 107.087 93.8757 107.087C94.5063 107.087 96.1973 104.757 100.317 98.2134L100.99 97.1461L100.783 98.0601C100.446 99.5328 99.0281 103.497 96.9018 108.921C94.6209 114.739 93.3161 117.59 91.8882 119.864C90.7708 121.643 90.6374 122.31 91.3456 122.582C92.1768 122.901 93.0439 121.712 95.1738 117.335C97.5881 112.373 99.1949 108.321 102.641 98.5195C103.204 96.9213 103.761 95.3758 103.88 95.0819C104.141 94.4395 104.647 94.6686 104.647 95.4298C104.647 95.7298 105.083 96.8443 105.614 97.9068C106.663 100.004 106.663 100.062 105.579 105.407C105.04 108.064 98.742 119.823 93.7284 127.541C92.0253 130.163 91.7979 131.102 92.8674 131.102C93.2912 131.102 94.0012 130.313 95.2035 128.501C97.6845 124.761 101.926 117.418 104.423 112.541C105.607 110.227 106.684 108.399 106.812 108.478C107.288 108.773 107.44 111.096 107.095 112.812C106.373 116.399 104.495 120.89 102.842 122.995C100.587 125.866 98.0859 128.527 96.4834 129.764C95.2739 130.696 94.8476 131.223 94.9143 131.686C94.9646 132.036 95.2157 132.363 95.4685 132.411C96.1682 132.544 99.6132 129.512 102.346 126.361L104.789 123.543L105.143 124.416C105.707 125.827 106.238 131.176 106.128 134.316L106.027 137.223L105.108 137.305C101.074 137.664 95.2199 139.423 88.579 142.27C84.1505 144.168 79.3158 145.669 74.7939 146.544C71.0233 147.274 61.8056 147.615 57.8177 147.175C54.6051 146.821 49.6227 145.771 46.1914 144.722C42.358 143.55 38.6714 142.882 35.9809 142.876C34.7791 142.875 33.5157 142.796 33.179 142.706C32.4034 142.496 28.2124 134.311 28.578 133.72C28.9374 133.138 30.9054 133.459 36.7004 135.052C40.8412 136.19 47.5031 137.862 50.0136 138.39C52.0809 138.824 53.6341 139.129 57.21 139.799C61.3181 140.569 73.2291 141.663 77.4071 141.656C80.3932 141.652 86.9977 140.872 87.8357 140.424C88.3304 140.159 88.405 139.984 88.1364 139.716C87.7241 139.304 84.159 139.376 82.5802 139.829C81.176 140.231 78.0444 140.205 76.2624 139.775C71.455 138.616 62.2652 135.185 55.571 132.051C53.9142 131.276 52.5029 130.642 52.4329 130.642C52.1518 130.642 46.2953 127.164 44.2456 125.778C40.8863 123.507 37.205 119.452 34.9021 115.495C33.8264 113.646 32.2142 110.889 31.3216 109.369C27.4345 102.748 26.3116 97.9122 28.6613 97.9122C29.3247 97.9122 30.0731 98.4922 32.1119 100.595C34.2707 102.821 35.1506 104.061 37.2791 107.859C40.5428 113.683 43.2614 117.775 45.8559 120.778C48.0333 123.298 49.2535 123.955 49.2535 122.606C49.2535 122.199 48.956 121.606 48.5987 121.285C47.8068 120.574 45.2719 117.316 45.2719 117.01C45.2719 116.889 45.9925 117.473 46.8763 118.307C54.177 125.2 66.2692 130.946 77.5605 132.889C85.0957 134.185 85.6711 134.229 85.6711 133.549C85.6711 133.296 85.5996 133.089 85.5123 133.089C84.9466 133.089 80.4314 131.729 79.2715 131.208C75.7149 129.612 72.918 128.079 72.3584 127.423C72.0213 127.028 70.782 126.06 69.6033 125.271C58.4342 117.788 45.1916 102.567 38.2171 89.1916C37.164 87.1722 36.0009 85.2225 35.6275 84.8577C34.233 83.4952 31.4009 73.1201 30.0061 64.2558C28.0631 51.908 27.7103 36.5484 28.9974 20.5182C29.1871 18.1548 29.2726 17.894 29.9707 17.5581C30.3916 17.3557 34.243 16.0523 38.5355 14.6631C42.828 13.2738 46.914 11.8871 47.6135 11.5793C48.3131 11.2715 49.0741 11.0951 49.3007 11.1901C49.527 11.2851 50.3034 12.1075 51.0289 13.0121C52.6339 15.0134 55.8173 17.6313 58.2311 18.9377C62.1991 21.0852 67.1817 22.0229 71.5029 21.4318C79.4583 20.3435 85.3589 16.3098 89.5473 9.10887C90.3052 7.80481 90.9636 6.73845 91.0097 6.73863L91.0091 6.73912ZM22.7152 21.3204C23.1439 21.245 23.1637 21.7833 22.7272 22.8948C22.1873 24.2686 21.4768 24.5518 20.7569 23.6848C20.4028 23.2584 20.5079 23.0533 21.5178 22.1282C22.0552 21.6357 22.458 21.3657 22.7152 21.3204ZM19.589 25.094C19.7236 25.094 20.1968 25.4095 20.6391 25.7897L21.4413 26.4795L20.9753 28.4665C20.7193 29.5586 20.4328 30.9665 20.3324 31.5974C20.232 32.2284 20.0411 32.7472 19.9135 32.7472C19.6251 32.7472 17.7251 30.8069 17.7251 30.5125C17.7251 30.3944 17.9153 30.3003 18.1498 30.3003C18.7315 30.3003 18.9643 29.5914 19.1702 27.1635C19.2667 26.0278 19.4545 25.094 19.589 25.094ZM121.476 27.8477C121.877 27.8477 122.71 31.7591 123.122 35.5718C123.476 38.8488 123.575 39.1965 124.319 39.7816C125.373 40.6103 125.753 42.0421 125.44 44.0211C125.22 45.4129 125.32 45.9767 126.271 48.7321C129.053 56.7848 132.854 69.534 132.559 69.8116C132.246 70.1068 129.636 70.8674 124.26 72.2346C121.665 72.8946 119.359 73.4377 119.134 73.4377C118.634 73.4377 118.611 71.9025 119.016 65.5837C119.176 63.0886 119.378 54.1927 119.464 45.8197L119.624 30.5955L120.426 29.2218C120.869 28.4663 121.342 27.8478 121.476 27.8478V27.8477ZM114.351 29.4395C115.135 29.4452 115.355 29.9271 115.318 31.2144C115.292 32.1206 114.983 32.5663 113.318 34.1095L111.354 35.9314L111.548 34.5694C111.656 33.8189 111.853 32.7923 111.991 32.2874C112.129 31.7826 112.327 30.9974 112.428 30.5421C112.572 29.8861 112.84 29.6682 113.714 29.5044C113.958 29.4586 114.169 29.4382 114.351 29.4395ZM16.7332 32.7769C16.9471 32.7752 17.3917 33.1125 18.2668 33.8972L19.8831 35.3476L19.5292 36.5682C19.1653 37.8363 19.2702 44.2437 19.8477 56.1494C20.0026 59.3463 20.2754 65.4443 20.4494 69.6989C20.6233 73.9534 20.8439 77.5583 20.9389 77.7116C21.034 77.8655 20.8386 78.1365 20.5083 78.3134C19.0422 79.0977 10.2566 78.2146 9.41304 77.1989C9.21477 76.9601 9.05931 76.1201 9.06501 75.3298C9.0712 74.4674 8.88494 73.6764 8.60489 73.3546C8.20775 72.8983 8.19605 72.6268 8.52231 71.5207C9.32239 68.8092 11.5893 66.1177 14.7572 64.1152C15.7347 63.4971 16.611 62.794 16.7036 62.5528C17.1084 61.4983 16.3476 60.3109 13.4417 57.4818L10.4099 54.5337L10.7284 53.3544C10.9043 52.7048 11.4485 50.7391 11.9376 48.9854C12.4268 47.2316 12.8283 45.4377 12.8283 44.9995C12.8283 43.8342 13.6365 42.8686 15.1584 42.2165C16.6542 41.5755 16.8295 41.0052 16.0196 39.4394C15.587 38.6031 15.5899 38.2737 16.0136 36.0137C16.2716 34.638 16.5207 33.2744 16.5681 32.9831C16.5894 32.8525 16.636 32.7778 16.7332 32.7769ZM117.618 33.7086C117.638 33.7078 117.661 33.7155 117.677 33.7321C117.938 33.9925 117.156 73.6268 116.869 74.7116C116.542 75.9474 115.265 77.1886 113.601 77.8837C113.011 78.1298 112.264 78.3316 111.938 78.3316C111.357 78.3316 111.347 78.0995 111.548 68.6146C111.724 60.3472 111.845 58.5629 112.362 56.6099C113.293 53.0926 113.704 51.4194 114.126 49.4165C114.339 48.4069 114.618 47.1678 114.752 46.6629C114.885 46.158 115.223 44.4406 115.5 42.8421C115.779 41.2437 116.138 39.3554 116.297 38.6499C116.455 37.9444 116.586 36.9438 116.586 36.4212C116.586 35.5648 117.31 33.7184 117.618 33.7089V33.7086ZM115.123 34.7344L114.952 35.6542C114.857 36.1591 114.692 37.1906 114.586 37.9478C114.237 40.4287 112.092 50.7946 111.884 51.0021C111.819 51.0678 111.682 50.6986 111.578 50.1767C111.473 49.655 111.25 49.3125 111.082 49.4161C110.915 49.5197 110.648 50.045 110.492 50.5837C110.118 51.8789 110.077 45.4474 110.439 42.3231C110.662 40.4008 110.869 39.8699 112.073 38.1899C112.833 37.1304 113.832 35.922 114.291 35.5012L115.123 34.7344ZM132.966 71.7043C133.237 71.6837 133.422 71.8886 133.533 72.3292C133.636 72.7395 133.799 73.2813 133.898 73.5383C134.016 73.8468 133.776 74.1607 133.191 74.4637C131.725 75.2213 126.735 76.7964 123.316 77.5825C119.63 78.4304 118.42 78.5134 118.42 77.9128C118.42 77.6843 118.505 76.8801 118.609 76.1261C118.778 74.8916 118.864 74.7704 119.511 74.894C120.18 75.0219 123.824 74.354 125.917 73.7207C126.422 73.568 128.077 73.0928 129.592 72.6595C131.107 72.2262 132.573 71.8013 132.848 71.7219C132.89 71.7098 132.927 71.7074 132.966 71.7043ZM23.6534 71.9461C23.6598 71.9431 23.6637 71.9449 23.6711 71.9522C23.7893 72.0607 24.3693 73.8474 24.9629 75.9261C25.5564 78.0043 26.1187 79.9474 26.2074 80.2419C26.3224 80.6225 26.1957 80.7789 25.7769 80.7789C24.6887 80.7789 24.0984 80.0546 24.0191 78.6207C23.9779 77.8728 23.8349 76.0195 23.7005 74.5049C23.5747 73.0849 23.558 71.988 23.6534 71.9461ZM116.444 78.5789C116.535 78.5661 116.586 78.5765 116.586 78.6146C116.586 79.1049 115.009 80.788 114.114 81.2504C113.079 81.7855 111.504 81.8358 111.2 81.3443C110.959 80.9546 111.862 80.1655 112.551 80.1655C112.793 80.1655 113.798 79.7534 114.787 79.2516C115.528 78.8746 116.17 78.6189 116.444 78.5789ZM27.806 85.8492C27.8802 85.8558 27.9548 86.0177 28.0655 86.2855C28.558 87.4752 29.6019 90.3395 29.8174 91.1025C29.9244 91.4813 29.9652 91.7874 29.9118 91.7807C29.8584 91.774 29.1505 91.1558 28.337 90.4074L26.8564 89.0449L27.3047 87.2819C27.5657 86.2528 27.6823 85.8389 27.806 85.8492ZM32.8907 93.5261C33.0068 93.5655 33.5504 94.3831 34.265 95.6134C38.4577 102.831 42.557 107.653 48.3333 112.158C51.6346 114.733 54.1492 117.189 54.1492 117.842C54.1492 119.031 51.3793 118.088 47.5014 115.578C44.4149 113.58 42.9182 111.896 40.1813 107.359C38.8224 105.106 37.1294 102.326 36.4239 101.179C35.1832 99.1643 33.3253 95.1958 32.8847 93.6267C32.8626 93.5474 32.8639 93.5171 32.8907 93.5261ZM25.0456 106.934L25.6238 108.314C29.0154 116.411 33.2416 123.218 36.4832 125.802C37.8169 126.866 46.307 131.253 47.0358 131.256C47.34 131.258 51.3762 132.913 52.5155 133.503C53.0159 133.761 53.6062 134.189 53.825 134.452C54.3995 135.144 53.9561 135.045 49.2535 133.479C45.6274 132.272 37.1882 128.713 31.5753 126.02C29.5141 125.031 27.6427 124.222 27.4168 124.222C27.1909 124.222 26.7492 123.458 26.4316 122.524C25.8556 120.83 25.8527 120.821 26.5321 118.927C27.4759 116.296 27.4137 114.624 26.2843 112.212C25.774 111.121 25.2908 109.492 25.2048 108.585L25.0456 106.934ZM27.0159 125.749C27.0906 125.749 28.9227 126.615 31.0859 127.672L37.3148 130.714C39.9678 132.009 39.924 132.025 36.2414 131.115C32.0944 130.09 29.5556 129.662 28.2428 129.776L27.0631 129.883L26.9687 127.813C26.9189 126.677 26.9411 125.749 27.0159 125.749Z" fill="black" fill-opacity="0.07107"/>
<path d="M53.2002 0.0776436C53.1361 0.0746212 53.0698 0.0791285 52.9998 0.08354H52.9879C52.9341 0.0832982 52.8711 0.094806 52.8052 0.107125C52.7978 0.108502 52.7891 0.105574 52.7816 0.107125C51.9404 0.240195 50.688 0.843764 48.57 2.08826C44.5886 4.42751 32.1018 8.84242 26.0249 10.0599C22.5137 10.7636 20.2641 11.6836 18.4097 13.1731C16.995 14.3096 14.8582 17.4147 13.915 19.7061C12.9471 22.0572 11.6913 26.4206 11.6913 27.4242C11.6913 27.9797 11.2906 28.8372 10.6472 29.6706C9.55846 31.0812 8.93948 32.8046 8.93657 34.4289C8.93566 34.9553 8.74298 35.5472 8.50603 35.7438C7.57134 36.5193 7.06392 38.2563 6.93696 41.1153C6.83492 43.4134 6.55584 44.7678 5.58618 47.7604C2.8611 56.171 0.971839 63.4546 0.519201 67.2776C0.454789 67.8213 0.353525 69.2461 0.265549 70.8267C0.26168 70.8964 0.257576 70.957 0.253752 71.0273C0.207926 71.7194 0.164438 72.4073 0.141677 73.0382C0.115397 73.7661 0.10262 74.3352 0.0944884 74.8188C0.075979 75.9188 0.110729 76.4813 0.236056 76.8055C0.23811 76.8128 0.23985 76.8219 0.241955 76.8291C0.443056 77.5104 0.874891 77.674 1.68711 77.8431C2.22256 77.9546 3.41567 78.3643 4.34141 78.7516C6.06085 79.4704 9.22548 80.4546 11.6912 81.0449C12.4487 81.2261 15.1989 81.4552 17.8081 81.5522C22.2434 81.7164 22.6056 81.774 23.3291 82.4479C23.7548 82.8449 24.5622 83.3322 25.1223 83.5273C25.4232 83.6322 25.634 83.7061 25.7771 83.7988L25.7829 83.8043C25.8696 83.871 25.9353 83.9534 25.9894 84.0461C26.0701 84.2504 26.0289 84.5546 25.9423 85.0958C25.8354 85.7643 25.4609 87.0885 25.1106 88.0376C24.7603 88.9873 24.3463 90.5897 24.1846 91.5988C23.8618 93.6128 24.072 97.694 24.5915 99.4352C24.8645 100.35 24.8156 100.831 24.3142 102.189C22.7096 106.536 22.7812 109.492 24.5738 113.279C25.6253 115.501 25.6701 116.304 24.851 118.215C24.1607 119.824 24.0486 122.356 24.6209 123.362C24.8803 123.818 25.06 126.458 25.1872 131.676C25.3449 138.131 25.4772 139.772 26.0603 142.189C26.6124 144.476 26.8175 145.458 27.8476 145.844L27.8653 145.85C28.1566 145.995 28.5069 146.053 28.9388 146.045C29.7453 146.099 30.8394 146.051 32.4013 145.992C37.9508 145.781 40.892 146.144 46.4992 147.725C50.7368 148.92 52.707 149.336 56.3734 149.83C56.7198 149.876 57.3567 149.924 58.1489 149.965C58.3421 150.007 58.4786 150.047 58.5029 150.072C58.6021 150.171 60.6541 150.176 63.3042 150.131H63.3752C63.8469 150.138 64.3216 150.139 64.7909 150.142C75.7239 150.219 80.4404 149.301 90.8034 145.072C98.8709 141.78 101.655 140.946 106.311 140.426C107.663 140.275 108.907 140.018 109.071 139.853C110.423 138.502 110.074 126.39 108.582 122.819C108.155 121.798 108.18 121.621 109.001 119.63C110.536 115.908 110.967 114.085 110.965 111.333C110.963 109.224 110.832 108.476 110.263 107.377C109.49 105.884 109.498 105.536 110.428 100.779C110.836 98.6952 110.974 96.4091 110.989 91.3867L111.006 84.771L111.301 84.7534H112.882C115.116 84.7534 116.738 84.1413 118.196 82.7431C119.148 81.8316 119.651 81.6413 122.686 81.0685C128.732 79.9273 136.025 77.454 137.267 76.1213C137.418 75.9588 137.529 75.8255 137.603 75.6673L137.609 75.6558C137.729 75.4746 137.786 75.2946 137.786 75.1134C137.786 74.9673 137.72 74.6134 137.615 74.1407C137.533 73.6267 137.402 72.9588 137.214 72.0176C136.655 69.2176 132.456 55.3708 130.26 49.0763C129.326 46.4027 129.217 45.7804 129.386 44.1648C129.621 41.9302 129.211 40.2533 128.042 38.6401C127.367 37.7091 127.13 36.9634 126.974 35.3027C126.602 31.3551 124.25 22.1287 122.974 19.6187C120.643 15.0319 117.16 12.9198 105.095 8.78733C96.4475 5.82507 92.9649 4.39036 90.5845 2.79677C89.3598 1.97664 88.1102 1.21039 87.8064 1.09866C87.4905 0.982431 86.5089 1.20792 85.5121 1.62342C82.0744 3.05577 76.2938 3.92719 70.1458 3.94058C63.5765 3.95487 59.9874 3.13783 53.7123 0.202472C53.5596 0.130976 53.3918 0.0877248 53.1991 0.0786509L53.2002 0.0776436ZM52.6103 2.73085C52.6126 2.73172 52.6139 2.72979 52.6164 2.73085C52.6183 2.73175 52.6202 2.73572 52.6222 2.73675L54.0851 5.24845C55.9334 8.42824 60.3048 12.8613 62.9623 14.2579C63.976 14.7903 65.8338 15.4636 67.0919 15.7496C69.0715 16.1997 69.6444 16.2151 71.3681 15.8793C73.7952 15.4066 76.5187 14.2188 78.9125 12.5833C80.6853 11.3722 85.1811 6.92708 86.7047 4.88292L87.4948 3.82749L88.9166 4.7296C89.7987 5.28685 90.3438 5.85526 90.3438 6.21545C90.3444 7.04787 88.4976 10.2141 86.7635 12.3534C83.5077 16.3692 79.2775 18.9157 74.0462 20.0067C64.6794 21.9599 54.7361 16.8822 50.038 7.7483C48.6893 5.12583 48.7303 4.9579 51.0526 3.62092L52.6098 2.73058L52.6103 2.73085ZM55.0406 4.01622C55.3041 4.032 56.2335 4.30815 57.288 4.68839C61.0936 6.06072 62.8259 6.43642 67.3568 6.51624C69.1163 6.69957 70.2422 6.69957 72.4001 6.51624C77.3718 6.42739 80.6095 6.03134 83.6077 5.17189C84.1776 5.00855 84.6979 4.92889 84.7639 4.995C84.83 5.06111 84.0121 6.03375 82.9468 7.15309C80.9848 9.21557 80.8611 9.27612 77.3373 10.0776C75.4753 10.5012 67.8328 10.6822 65.2747 10.3607C64.027 10.2039 61.8867 9.72957 60.5146 9.31115C58.0261 8.55242 58.0115 8.54896 56.4268 6.35715C55.5529 5.14838 54.8994 4.09868 54.97 4.02811C54.9787 4.0193 55.003 4.01398 55.0406 4.01622ZM47.4726 5.80279C47.475 5.80304 47.4762 5.80836 47.4786 5.8087L48.7822 8.30872C49.8241 10.3108 50.7677 11.5038 53.4598 14.2108C56.2079 16.9742 57.2868 17.8327 59.2817 18.8451C65.3439 21.9219 71.0122 22.3834 77.2433 20.3074C82.9038 18.4211 87.8119 14.0757 90.8161 8.2849C91.4218 7.11642 91.7971 6.69448 92.1488 6.80496C92.4192 6.88969 93.9532 7.47121 95.552 8.09036C97.1514 8.70951 101.402 10.2281 105.002 11.4688C116.981 15.5981 119.81 17.5705 121.571 23.0195L122.167 24.8533C122.171 24.9174 122.173 24.9834 122.173 25.0419C122.173 25.0859 122.162 25.1384 122.15 25.2012L120.799 27.6185C120.009 29.0238 119.038 30.5695 118.64 31.0561C117.935 31.9172 117.913 31.9236 117.902 31.2389C117.89 30.4493 117.071 28.6933 116.552 28.3499C116.014 27.9948 114.377 28.0818 113.974 28.4855C113.205 29.2544 113.555 29.664 114.805 29.4642C115.809 29.3038 116.052 29.3746 116.333 29.9006C116.836 30.8404 116.766 33.0138 116.233 33.0138C115.994 33.0138 114.977 33.9195 113.974 35.0304C112.971 36.1412 112.076 36.9334 111.986 36.7874C111.825 36.5268 112.061 35.1376 112.835 31.7874C113.049 30.8619 113.157 29.9965 113.077 29.8593C112.731 29.2646 111.87 30.695 111.508 32.4653C110.584 36.9853 110.444 37.8684 110.057 41.5336C109.886 43.1548 109.375 55.5333 109.019 66.6637C108.85 71.9643 108.607 77.1976 108.476 78.291C108.34 79.4291 107.109 83.6146 105.598 88.0788C104.145 92.3698 102.512 97.257 101.97 98.9394C99.59 106.327 95.4332 116.513 93.3935 119.955C92.7278 121.078 92.184 122.081 92.184 122.19C92.184 122.298 92.4774 122.344 92.8388 122.29C94.2927 122.073 98.5047 112.639 103.191 99.0934C103.569 98.0001 104.339 95.9364 104.902 94.5061C105.464 93.0758 106.361 90.6358 106.895 89.0819C107.43 87.5279 107.986 86.331 108.134 86.4225C108.512 86.6558 108.469 95.0091 108.075 98.1619C107.196 105.187 106.617 107.221 104.076 112.183C101.607 117.005 98.7527 121.996 95.3161 127.496C93.9659 129.656 93.4384 130.76 93.653 130.975C93.8252 131.147 94.1096 131.2 94.2836 131.092C95.0833 130.599 102.421 118.076 105.58 111.817C107.387 108.238 107.617 107.919 107.992 108.432C108.683 109.376 108.64 112.333 107.904 115.001C107.128 117.81 105.325 121.789 104.023 123.568C103.345 124.493 101.291 126.73 99.4572 128.538C96.2632 131.686 95.4156 133.098 97.4279 131.911C98.4132 131.33 102.961 126.738 104.784 124.487L105.899 123.108L106.241 123.981C106.854 125.564 107.33 129.772 107.45 133.102C107.45 133.13 107.45 133.157 107.45 133.184C107.447 133.439 107.439 133.692 107.432 133.945L107.356 136.876V136.881C107.298 137.238 107.22 137.482 107.12 137.583C106.917 137.785 106.29 137.949 105.728 137.949C102.859 137.949 97.1757 139.664 89.7363 142.772C82.9062 145.624 77.4846 147.081 71.3209 147.73C68.6507 148.012 62.4754 148.073 60.0483 147.842C56.1426 147.472 51.0777 146.423 46.2277 144.983C42.3195 143.822 36.9917 143.109 32.7081 143.173C30.8852 143.199 29.2791 143.101 29.1394 142.955C28.5496 142.335 27.92 136.523 27.8004 130.59C27.6981 125.52 27.5661 124.003 27.1161 122.736C26.8526 121.995 26.7133 121.594 26.715 121.174C26.7173 121.115 26.7224 121.052 26.7267 120.991C26.7279 120.978 26.7316 120.964 26.7328 120.95C26.7798 120.547 26.9461 120.064 27.24 119.228C28.1898 116.525 28.1171 114.919 26.9332 112.371C25.5985 109.498 25.5659 107.042 26.8152 103.309L27.706 100.638L27.1986 98.5207C26.4479 95.4116 26.534 92.3206 27.4523 89.4285C27.8729 88.1043 28.2989 86.5704 28.4019 86.0207C28.6196 84.8613 28.9933 84.7194 29.2277 85.7079C29.6828 87.6267 33.2088 97.2231 34.5485 100.189C37.2044 106.07 42.0145 114.359 45.2781 118.674C46.6389 120.473 49.3081 123.261 49.6667 123.261C50.3266 123.261 49.8462 122.261 48.3867 120.602C47.5272 119.624 46.2353 118.003 45.5199 116.993C42.3299 112.49 36.0024 100.405 33.5044 94.0461C32.4797 91.437 30.5149 85.4407 28.6912 79.3649C28.2366 77.8504 27.7445 76.2655 27.5999 75.8449C26.5338 72.7425 24.9617 63.2582 25.2699 61.7879C25.3605 61.3564 25.2427 59.834 25.0104 58.4036C23.8909 51.5119 23.6851 44.0744 24.4264 37.6017C25.2484 30.4242 25.2741 29.061 24.6387 27.3601C24.2033 26.1938 23.7476 25.6255 22.6981 24.9308C21.9444 24.4319 21.2224 23.8419 21.0878 23.6218C20.7281 23.0334 19.4084 23.1385 19.0645 23.781C18.9009 24.0865 18.7208 25.2219 18.6635 26.3046C18.6061 27.3872 18.4261 28.2629 18.2623 28.2563C17.8002 28.2374 15.5903 24.4104 15.5903 23.6278C15.5903 22.5563 16.873 19.5936 18.174 17.655C20.0302 14.8888 21.7432 13.8119 25.6182 12.9734C31.1936 11.767 41.2457 8.57272 45.7264 6.58193L47.4724 5.80366L47.4726 5.80279ZM61.1694 11.0622C61.2937 11.0563 61.5338 11.0959 61.9128 11.1625C62.4869 11.2634 63.4352 11.5013 64.0245 11.6872C65.5852 12.1796 75.2067 12.1392 76.6709 11.6342C77.3136 11.4125 77.912 11.3005 77.9981 11.3865C78.2225 11.6108 75.6269 13.0804 73.7394 13.798C71.8859 14.5031 68.3857 14.7675 66.6614 14.3346C65.1838 13.9637 62.0971 12.3402 61.3938 11.5633C61.0761 11.2124 60.9627 11.0719 61.1694 11.0621V11.0622ZM20.6037 25.1248C21.3675 25.1536 22.9469 26.934 23.317 28.2557C23.6729 29.5257 23.5477 32.9802 23.1047 34.1342C23.0192 34.3572 22.8591 34.5384 22.7508 34.5351C22.1915 34.5185 19.6155 32.6119 18.7751 31.5929C17.5889 30.1544 17.5218 29.5599 18.5745 29.824C19.4888 30.0533 19.5946 29.8433 19.89 27.2002C20.009 26.1338 20.2675 25.207 20.4621 25.1425C20.5051 25.1282 20.5529 25.1227 20.6037 25.1248ZM122.579 27.3889C122.689 27.3953 122.76 27.5606 122.863 27.831C123.434 29.3423 124.29 33.8495 124.497 36.4395C124.689 38.8495 124.788 39.1753 125.576 39.877C126.659 40.8421 126.894 41.7393 126.679 44.1106C126.526 45.7967 126.671 46.4359 128.183 50.8853C129.633 55.1508 134.038 69.4473 134.105 70.0946C134.103 70.1128 134.105 70.1303 134.099 70.1479C133.849 70.4237 129.803 71.7322 127.381 72.3122C126.287 72.574 124.909 72.9164 124.32 73.0728C123.73 73.2285 120.046 74.1388 119.247 74.3394C118.321 75.2831 118.445 74.2455 118.822 75.1134C119.706 75.1134 127.343 73.5831 131.168 72.4237C132.829 71.9201 134.287 71.6237 134.412 71.7637C134.538 71.9031 134.804 72.5013 135.002 73.0904C135.323 74.0461 135.292 74.2134 134.73 74.6704C133.876 75.3655 128.275 77.2007 124.166 78.1316C122.314 78.551 120.414 78.8964 119.943 78.8982L119.082 78.9037L119.247 76.3801C119.633 70.394 119.826 63.034 120.002 47.3878L120.191 30.7957C120.222 30.7218 120.257 30.6448 120.297 30.5599L121.382 28.8972C122.102 27.801 122.396 27.377 122.579 27.3878V27.3889ZM14.3691 27.8134C14.4956 27.8134 14.9395 28.4657 15.3601 29.2638C16.1247 30.7151 19.4132 34.0884 21.6892 35.7616L22.8925 36.6519L22.6271 39.1933C22.33 41.9987 22.579 52.0529 23.0341 55.6497C23.194 56.9116 23.446 59.7359 23.6003 61.9231C23.7549 64.1104 24.0256 66.7273 24.1963 67.737C24.559 69.8843 26.1176 75.9716 27.0217 78.7685C27.3681 79.8407 27.5652 80.8594 27.4582 81.0328C27.047 81.6976 25.9391 81.3055 24.8214 80.0952C23.58 78.751 23.4173 78.711 20.4092 79.0637C20.2508 79.0819 20.0844 79.0976 19.9196 79.1104L18.5571 79.0988C17.8599 79.091 17.273 79.08 16.7344 79.0691C13.1146 78.7546 8.67652 77.5964 4.18791 75.7437C2.67969 75.1213 2.33874 74.8419 2.25901 74.1873C2.20197 73.7188 2.33602 73.3273 2.58345 73.2322C2.81486 73.1437 11.9862 75.7437 14.1569 75.8449C16.7344 76.4152 26.4751 77.0631 26.7092 76.8291C27.34 75.3843 20.9336 76.2031 5.75701 72.3479C4.21956 71.8128 2.91886 71.3358 2.70141 71.2273C2.67861 71.1916 2.65875 71.1534 2.64243 71.1152C2.6343 70.3413 3.69579 64.5679 4.37072 61.7813C5.21346 58.3023 7.64113 50.0351 8.34045 48.2616C9.01624 46.548 9.84913 41.9855 9.85052 39.9951C9.85125 38.9218 10.0434 38.341 10.6114 37.6661C11.6205 36.4676 11.9976 35.3959 11.9976 33.7274C11.9976 32.5872 12.1832 32.1219 13.0653 31.0918C13.8231 30.2068 14.1388 29.5463 14.1388 28.8276C14.1388 28.2691 14.2423 27.8134 14.3689 27.8134H14.3691ZM118.893 33.3265C118.914 33.3287 118.931 33.335 118.946 33.3501C119.172 33.5755 118.575 72.531 118.321 74.1576C118.039 75.9655 117.385 76.8734 115.56 77.9782C114.298 78.7431 113.454 79.0073 111.879 79.134L109.838 79.2988L110.045 78.1079C110.465 75.6922 110.842 64.4037 110.824 54.7344C110.806 45.2718 111.08 41.0518 111.803 39.6872C112.361 38.6338 115.772 34.5399 116.091 34.5399C116.312 34.5399 116.354 35.0789 116.221 36.1495C115.636 40.8629 113.377 51.6599 112.558 53.6612C112.352 54.1661 111.928 55.577 111.614 56.798C111.155 58.5836 111.115 59.0919 111.426 59.3982C111.734 59.7023 111.89 59.6759 112.204 59.2508C112.527 58.8131 113.782 54.0689 115.455 46.9336C115.934 44.8895 116.585 41.2648 116.97 38.5197C117.171 37.0895 117.391 35.6427 117.46 35.3063C117.605 34.5957 118.576 33.2889 118.893 33.3251V33.3265ZM117.601 78.2904C118.719 78.2904 116.553 81.171 114.923 81.8522C113.958 82.2552 112.857 82.3316 111.62 82.0704L110.316 81.7928C109.127 81.5388 109.481 80.7376 110.782 80.7376C112.059 80.7376 114.596 79.8934 116.245 78.9213C116.834 78.574 117.443 78.2904 117.601 78.2904ZM36.2586 85.6728C35.6003 85.6376 35.8286 86.4867 37.1255 89.0807C44.1999 103.227 57.3961 118.53 69.9937 127.188C72.1254 128.653 73.8692 128.946 72.9725 127.689C72.8488 127.516 71.333 126.373 69.6044 125.148C65.4591 122.211 63.3297 120.429 59.3229 116.546C51.5746 109.035 43.7614 98.6885 38.8787 89.4643C37.6935 87.2249 36.734 85.7534 36.4071 85.6904C36.3556 85.6807 36.3037 85.6752 36.2597 85.6728H36.2586ZM28.5254 125.042C28.2957 125.061 28.2187 125.193 28.2187 125.419C28.2187 125.766 33.0403 128.209 38.1106 130.432C40.1592 131.33 42.8014 132.524 43.9798 133.079C45.1583 133.635 47.5683 134.6 49.3358 135.231C52.6036 136.398 54.3851 136.615 54.3851 135.844C54.3851 135.762 54.2361 135.646 53.9839 135.502L53.9721 135.49C53.8618 135.399 53.7125 135.322 53.5592 135.278L53.5415 135.272C52.8886 134.967 51.8802 134.584 50.5569 134.14C46.1943 132.676 39.0042 129.678 32.9198 126.782C30.2565 125.513 29.0305 125.001 28.5254 125.042V125.042Z" fill="black"/>
</g>
</g>
<defs>
<clipPath id="clip0_685_1275">
<rect width="136.848" height="150" fill="white"/>
</clipPath>
</defs>
</svg>
