<svg width="138" height="150" viewBox="0 0 138 150" fill="none" xmlns="http://www.w3.org/2000/svg">
<g clip-path="url(#clip0_685_1286)">
<mask id="mask0_685_1286" style="mask-type:luminance" maskUnits="userSpaceOnUse" x="0" y="0" width="138" height="150">
<path d="M137.348 0H0.5V150H137.348V0Z" fill="white"/>
</mask>
<g mask="url(#mask0_685_1286)">
<path fill-rule="evenodd" clip-rule="evenodd" d="M52.3112 1.3335L35.787 8.83247L22.8506 11.9842L19.3719 14.3752L15.7846 19.2658L13.7185 25.5693L13.284 28.6123L11.11 31.2206V34.4811L9.37064 37.3068L8.50095 43.2842L6.54397 50.7832L4.47852 57.0867L2.30398 64.5856L1.86943 70.128L1.65186 75.6711L7.84822 78.388L15.567 80.1268L23.1767 80.2359L27.9597 83.0614L26.547 88.4953L26.1119 92.625L26.0034 97.0814L26.8731 99.4723L26.6555 100.559L25.1337 105.123L24.9161 108.601L26.3294 113.383L26.9815 115.774L26.1119 118.817L25.7858 121.317L26.764 125.012L27.0906 133.924L28.1773 143.487L29.047 144.357L38.9397 144.249L47.0931 145.987L56.7688 148.487L70.2488 149.03L81.9894 146.748L93.4046 142.836L101.34 140.119L109.276 138.597C109.24 135.554 109.204 132.511 109.168 129.468L107.102 121.752L110.255 111.97L109.385 107.841L108.842 105.558L109.928 97.0814C109.892 94.0383 109.856 90.9947 109.82 87.9517L109.494 82.1917L113.19 82.8438L116.125 82.3008L119.278 80.5614L130.801 77.5183L137.106 75.4535L135.585 68.1723L128.409 46.2186L128.953 41.0019L126.452 38.0676L121.561 19.2658L119.278 15.3533L106.885 10.1366L96.4482 6.7675L88.6209 2.20293L78.4021 4.05051L66.5525 4.48522L57.6385 2.42029L52.3112 1.3335Z" fill="#EFCE32"/>
<path fill-rule="evenodd" clip-rule="evenodd" d="M1.88609 72.4849L27.5837 76.7109L29.1667 82.303L1.46973 76.7867L1.88609 72.4849Z" fill="white"/>
<path fill-rule="evenodd" clip-rule="evenodd" d="M109.798 80.2688C113.23 78.9706 116.766 79.6506 119.781 74.7063L135.747 70.7275C135.955 72.0354 138.689 73.5785 135.538 75.4427C132.387 77.3075 120.563 80.85 116.842 81.9148C113.122 82.9791 113.924 82.4136 112.674 82.7269C111.424 83.0409 109.829 83.1924 108.985 82.276L109.798 80.2688Z" fill="white"/>
<path fill-rule="evenodd" clip-rule="evenodd" d="M52.9724 2.0618C53.3542 2.0591 53.7699 2.06073 54.2245 2.06703C60.6609 2.05315 63.6936 6.70995 85.8421 3.35789C92.1918 3.81593 92.9421 2.69163 92.3239 4.81531C88.67 10.4368 90.2675 12.1232 83.6536 16.8703C81.1281 19.2403 77.3002 20.1078 74.316 20.5555C71.6657 22.0441 66.9518 20.9163 65.2287 19.8684C59.0112 17.9946 55.7318 15.7043 51.6609 11.5611L48.7427 4.21151C49.3221 3.12494 47.2487 2.10244 52.9724 2.0618ZM61.3718 10.1921C60.7778 10.2524 60.5166 10.4802 60.7893 10.9781C61.8803 12.9699 67.3166 14.8993 70.4293 14.9756C73.5415 15.052 79.4645 12.655 79.4645 11.4361C79.4645 10.2173 73.3748 11.4709 70.2627 11.3945C67.9281 11.3373 63.153 10.0113 61.3718 10.1921Z" fill="white"/>
<path d="M52.2777 1.85103C51.6654 1.84835 49.1151 3.19154 47.9127 4.15065C47.2317 4.69376 40.1084 7.40912 35.213 8.99142C29.6762 10.7811 28.0885 11.218 25.1204 11.7803C20.4734 12.6607 17.8254 14.6989 15.6825 19.0386C15.0756 20.2677 14.3549 22.2357 14.084 23.4137C13.8129 24.5916 13.4619 25.6889 13.3053 25.8488C13.1487 26.0086 13.0222 26.7067 13.0222 27.4054C13.0222 28.625 12.8923 28.8855 11.0344 31.4031C10.7726 31.7577 10.4493 32.9572 10.3147 34.074C10.1372 35.548 9.88005 36.315 9.36505 36.8629C8.76929 37.4969 8.60899 38.1233 8.3741 40.7663C8.07095 44.1769 7.92762 44.7644 5.83757 51.4089C4.22885 56.5237 2.91127 61.5667 2.03298 65.9371C1.36195 69.2758 0.805858 74.2037 1.01251 75.0116C1.08409 75.291 1.71674 75.7298 2.41639 75.9843L5.40101 77.0692C10.672 78.9849 12.3599 79.3098 17.6996 79.4334L22.8374 79.5516L23.911 80.6249C24.8472 81.5607 25.1714 81.6977 26.5006 81.6977C27.3365 81.6977 28.0225 81.7958 28.0223 81.9219C28.0215 82.5401 26.3854 88.6558 26.0404 89.3334C25.4176 90.5564 25.1936 94.4377 25.604 96.8395C26.1538 100.059 26.0834 101.158 25.126 104.327C24.1115 107.687 24.2103 108.796 25.8574 112.547C26.9549 115.046 27.0213 116.279 26.1819 118.407C25.483 120.18 25.3974 121.817 25.9519 122.789C26.212 123.244 26.3914 125.838 26.5181 130.949C26.7061 138.524 27.2554 142.821 28.1461 143.738C28.4424 144.043 28.9516 144.071 30.3404 143.85C32.3832 143.524 39.2243 143.876 41.6364 144.433C42.4788 144.628 44.8249 145.248 46.8449 145.807C50.5249 146.827 55.8692 147.955 58.1644 148.195C58.8379 148.266 62.3553 148.287 65.9744 148.243C71.305 148.176 73.1628 148.032 75.7663 147.493C81.2079 146.369 83.9333 145.504 89.8642 143.007C96.3881 140.259 101.166 138.804 104.929 138.419C106.467 138.262 107.083 138.064 107.3 137.659C107.69 136.93 107.675 130.384 107.277 127.376C107.102 126.059 106.67 124.138 106.315 123.107L105.672 121.238L106.799 118.608C108.975 113.543 109.293 109.544 107.701 107.199C107.108 106.325 106.974 105.846 107.129 105.123C108.933 96.7262 109.219 89.6783 108.014 83.2589L107.819 82.2274L109.925 82.4631C113.729 82.8928 115.351 82.4613 117.192 80.5231C117.853 79.8274 118.453 79.5461 119.64 79.3855C123.382 78.8795 128.301 77.6025 132.234 76.1128C135.888 74.7292 135.822 74.8443 134.841 71.608C134.508 70.5098 133.809 68.0934 133.29 66.2425C132.037 61.7789 130.23 55.9555 128.358 50.358C126.988 46.2604 126.851 45.6097 127.031 44.055C127.287 41.8484 126.819 40.1011 125.704 39.108C124.899 38.3912 124.813 38.112 124.624 35.4643C124.432 32.7529 123.246 27.2261 122.589 26.0008C122.424 25.6921 122.289 25.0963 122.289 24.6742C122.289 24.2521 121.918 22.9144 121.469 21.7025C120.23 18.3624 117.894 16.0131 113.889 14.0788C112.194 13.26 108.947 11.9567 106.675 11.1778C94.3315 6.94724 91.8626 5.93859 88.7667 3.88426C87.3195 2.92405 86.8787 2.76575 86.3542 3.01748C83.5949 4.34124 75.6759 5.51748 69.5134 5.51748C63.3418 5.51743 59.0139 4.66539 54.4956 2.56354C53.6539 2.17201 52.6539 1.85173 52.2777 1.8501V1.85103ZM51.8647 3.07156C52.0418 3.07156 52.4624 3.60756 52.7968 4.26259C53.8999 6.42409 57.158 10.4483 59.1024 12.0515C62.9101 15.1911 67.3574 16.6798 70.7757 15.9549C74.4694 15.1715 77.6804 13.5343 80.9156 10.7898C82.5157 9.43263 85.5382 6.08318 86.5076 4.59882L87.003 3.84999L88.2714 4.68726C88.9686 5.14858 89.5392 5.66635 89.5392 5.83703C89.5392 6.56469 87.619 9.85306 86.0359 11.8393C82.7922 15.9088 78.5583 18.3829 73.0112 19.4514C66.2842 20.7471 60.0358 18.7682 54.6904 13.6437C51.8249 10.8965 48.8331 6.53251 48.8331 5.10005C48.8331 4.66959 51.222 3.07175 51.8649 3.07175L51.8647 3.07156ZM91.5091 6.73912C91.5558 6.73912 92.5441 7.13421 93.7033 7.61172C94.8632 8.08924 96.6397 8.76378 97.6498 9.1153L105.265 11.7568C112.068 14.1162 115.495 15.7094 117.416 17.3994C118.901 18.7059 120.476 21.3494 121.044 23.4844C121.432 24.9435 121.315 25.2628 119.115 28.7497L117.876 30.7131L117.452 29.6635C116.79 28.0272 116.203 27.5467 114.891 27.5467C113.952 27.5467 113.473 27.7772 112.496 28.6965C111.089 30.022 110.801 30.9218 109.742 37.3344C109.367 39.606 109.005 41.5214 108.94 41.5914C108.874 41.6614 108.822 39.8321 108.822 37.5231C108.822 30.2946 107.571 23.5667 106.232 23.5667C105.466 23.5667 105.099 29.7482 105.531 35.3474C105.711 37.6889 105.907 40.1074 106.215 43.7614C106.946 52.4576 106.666 61.2843 105.43 68.5371C104.476 74.1377 104.234 74.9886 99.0182 90.6898C96.6651 97.7734 94.6025 103.993 94.4351 104.51C94.0671 105.646 94.0325 107.087 94.3757 107.087C95.0063 107.087 96.6973 104.757 100.817 98.2134L101.49 97.1461L101.283 98.0601C100.946 99.5328 99.5281 103.497 97.4018 108.921C95.1209 114.739 93.8161 117.59 92.3882 119.864C91.2708 121.643 91.1374 122.31 91.8456 122.582C92.6768 122.901 93.5439 121.712 95.6738 117.335C98.0881 112.373 99.6949 108.321 103.141 98.5195C103.704 96.9213 104.261 95.3758 104.38 95.0819C104.641 94.4395 105.147 94.6686 105.147 95.4298C105.147 95.7298 105.583 96.8443 106.114 97.9068C107.163 100.004 107.163 100.062 106.079 105.407C105.54 108.064 99.242 119.823 94.2284 127.541C92.5253 130.163 92.2979 131.102 93.3674 131.102C93.7912 131.102 94.5012 130.313 95.7035 128.501C98.1845 124.761 102.426 117.418 104.923 112.541C106.107 110.227 107.184 108.399 107.312 108.478C107.788 108.773 107.94 111.096 107.595 112.812C106.873 116.399 104.995 120.89 103.342 122.995C101.087 125.866 98.5859 128.527 96.9834 129.764C95.7739 130.696 95.3476 131.223 95.4143 131.686C95.4646 132.036 95.7157 132.363 95.9685 132.411C96.6682 132.544 100.113 129.512 102.846 126.361L105.289 123.543L105.643 124.416C106.207 125.827 106.738 131.176 106.628 134.316L106.527 137.223L105.608 137.305C101.574 137.664 95.7199 139.423 89.079 142.27C84.6505 144.168 79.8158 145.669 75.2939 146.544C71.5233 147.274 62.3056 147.615 58.3177 147.175C55.1051 146.821 50.1227 145.771 46.6914 144.722C42.858 143.55 39.1714 142.882 36.4809 142.876C35.2791 142.875 34.0157 142.796 33.679 142.706C32.9034 142.496 28.7124 134.311 29.078 133.72C29.4374 133.138 31.4054 133.459 37.2004 135.052C41.3412 136.19 48.0031 137.862 50.5136 138.39C52.5809 138.824 54.1341 139.129 57.71 139.799C61.8181 140.569 73.7291 141.663 77.9071 141.656C80.8932 141.652 87.4977 140.872 88.3357 140.424C88.8304 140.159 88.905 139.984 88.6364 139.716C88.2241 139.304 84.659 139.376 83.0802 139.829C81.676 140.231 78.5444 140.205 76.7624 139.775C71.955 138.616 62.7652 135.185 56.071 132.051C54.4142 131.276 53.0029 130.642 52.9329 130.642C52.6518 130.642 46.7953 127.164 44.7456 125.778C41.3863 123.507 37.705 119.452 35.4021 115.495C34.3264 113.646 32.7142 110.889 31.8216 109.369C27.9345 102.748 26.8116 97.9122 29.1613 97.9122C29.8247 97.9122 30.5731 98.4922 32.6119 100.595C34.7707 102.821 35.6506 104.061 37.7791 107.859C41.0428 113.683 43.7614 117.775 46.3559 120.778C48.5333 123.298 49.7535 123.955 49.7535 122.606C49.7535 122.199 49.456 121.606 49.0987 121.285C48.3068 120.574 45.7719 117.316 45.7719 117.01C45.7719 116.889 46.4925 117.473 47.3763 118.307C54.677 125.2 66.7692 130.946 78.0605 132.889C85.5957 134.185 86.1711 134.229 86.1711 133.549C86.1711 133.296 86.0996 133.089 86.0123 133.089C85.4466 133.089 80.9314 131.729 79.7715 131.208C76.2149 129.612 73.418 128.079 72.8584 127.423C72.5213 127.028 71.282 126.06 70.1033 125.271C58.9342 117.788 45.6916 102.567 38.7171 89.1916C37.664 87.1722 36.5009 85.2225 36.1275 84.8577C34.733 83.4952 31.9009 73.1201 30.5061 64.2558C28.5631 51.908 28.2103 36.5484 29.4974 20.5182C29.6871 18.1548 29.7726 17.894 30.4707 17.5581C30.8916 17.3557 34.743 16.0523 39.0355 14.6631C43.328 13.2738 47.414 11.8871 48.1135 11.5793C48.8131 11.2715 49.5741 11.0951 49.8007 11.1901C50.027 11.2851 50.8034 12.1075 51.5289 13.0121C53.1339 15.0134 56.3173 17.6313 58.7311 18.9377C62.6991 21.0852 67.6817 22.0229 72.0029 21.4318C79.9583 20.3435 85.8589 16.3098 90.0473 9.10887C90.8052 7.80481 91.4636 6.73845 91.5097 6.73863L91.5091 6.73912ZM23.2152 21.3204C23.6439 21.245 23.6637 21.7833 23.2272 22.8948C22.6873 24.2686 21.9768 24.5518 21.2569 23.6848C20.9028 23.2584 21.0079 23.0533 22.0178 22.1282C22.5552 21.6357 22.958 21.3657 23.2152 21.3204ZM20.089 25.094C20.2236 25.094 20.6968 25.4095 21.1391 25.7897L21.9413 26.4795L21.4753 28.4665C21.2193 29.5586 20.9328 30.9665 20.8324 31.5974C20.732 32.2284 20.5411 32.7472 20.4135 32.7472C20.1251 32.7472 18.2251 30.8069 18.2251 30.5125C18.2251 30.3944 18.4153 30.3003 18.6498 30.3003C19.2315 30.3003 19.4643 29.5914 19.6702 27.1635C19.7667 26.0278 19.9545 25.094 20.089 25.094ZM121.976 27.8477C122.377 27.8477 123.21 31.7591 123.622 35.5718C123.976 38.8488 124.075 39.1965 124.819 39.7816C125.873 40.6103 126.253 42.0421 125.94 44.0211C125.72 45.4129 125.82 45.9767 126.771 48.7321C129.553 56.7848 133.354 69.534 133.059 69.8116C132.746 70.1068 130.136 70.8674 124.76 72.2346C122.165 72.8946 119.859 73.4377 119.634 73.4377C119.134 73.4377 119.111 71.9025 119.516 65.5837C119.676 63.0886 119.878 54.1927 119.964 45.8197L120.124 30.5955L120.926 29.2218C121.369 28.4663 121.842 27.8478 121.976 27.8478V27.8477ZM114.851 29.4395C115.635 29.4452 115.855 29.9271 115.818 31.2144C115.792 32.1206 115.483 32.5663 113.818 34.1095L111.854 35.9314L112.048 34.5694C112.156 33.8189 112.353 32.7923 112.491 32.2874C112.629 31.7826 112.827 30.9974 112.928 30.5421C113.072 29.8861 113.34 29.6682 114.214 29.5044C114.458 29.4586 114.669 29.4382 114.851 29.4395ZM17.2332 32.7769C17.4471 32.7752 17.8917 33.1125 18.7668 33.8972L20.3831 35.3476L20.0292 36.5682C19.6653 37.8363 19.7702 44.2437 20.3477 56.1494C20.5026 59.3463 20.7754 65.4443 20.9494 69.6989C21.1233 73.9534 21.3439 77.5583 21.4389 77.7116C21.534 77.8655 21.3386 78.1365 21.0083 78.3134C19.5422 79.0977 10.7566 78.2146 9.91304 77.1989C9.71477 76.9601 9.55931 76.1201 9.56501 75.3298C9.5712 74.4674 9.38494 73.6764 9.10489 73.3546C8.70775 72.8983 8.69605 72.6268 9.02231 71.5207C9.82239 68.8092 12.0893 66.1177 15.2572 64.1152C16.2347 63.4971 17.111 62.794 17.2036 62.5528C17.6084 61.4983 16.8476 60.3109 13.9417 57.4818L10.9099 54.5337L11.2284 53.3544C11.4043 52.7048 11.9485 50.7391 12.4376 48.9854C12.9268 47.2316 13.3283 45.4377 13.3283 44.9995C13.3283 43.8342 14.1365 42.8686 15.6584 42.2165C17.1542 41.5755 17.3295 41.0052 16.5196 39.4394C16.087 38.6031 16.0899 38.2737 16.5136 36.0137C16.7716 34.638 17.0207 33.2744 17.0681 32.9831C17.0894 32.8525 17.136 32.7778 17.2332 32.7769ZM118.118 33.7086C118.138 33.7078 118.161 33.7155 118.177 33.7321C118.438 33.9925 117.656 73.6268 117.369 74.7116C117.042 75.9474 115.765 77.1886 114.101 77.8837C113.511 78.1298 112.764 78.3316 112.438 78.3316C111.857 78.3316 111.847 78.0995 112.048 68.6146C112.224 60.3472 112.345 58.5629 112.862 56.6099C113.793 53.0926 114.204 51.4194 114.626 49.4165C114.839 48.4069 115.118 47.1678 115.252 46.6629C115.385 46.158 115.723 44.4406 116 42.8421C116.279 41.2437 116.638 39.3554 116.797 38.6499C116.955 37.9444 117.086 36.9438 117.086 36.4212C117.086 35.5648 117.81 33.7184 118.118 33.7089V33.7086ZM115.623 34.7344L115.452 35.6542C115.357 36.1591 115.192 37.1906 115.086 37.9478C114.737 40.4287 112.592 50.7946 112.384 51.0021C112.319 51.0678 112.182 50.6986 112.078 50.1767C111.973 49.655 111.75 49.3125 111.582 49.4161C111.415 49.5197 111.148 50.045 110.992 50.5837C110.618 51.8789 110.577 45.4474 110.939 42.3231C111.162 40.4008 111.369 39.8699 112.573 38.1899C113.333 37.1304 114.332 35.922 114.791 35.5012L115.623 34.7344ZM133.466 71.7043C133.737 71.6837 133.922 71.8886 134.033 72.3292C134.136 72.7395 134.299 73.2813 134.398 73.5383C134.516 73.8468 134.276 74.1607 133.691 74.4637C132.225 75.2213 127.235 76.7964 123.816 77.5825C120.13 78.4304 118.92 78.5134 118.92 77.9128C118.92 77.6843 119.005 76.8801 119.109 76.1261C119.278 74.8916 119.364 74.7704 120.011 74.894C120.68 75.0219 124.324 74.354 126.417 73.7207C126.922 73.568 128.577 73.0928 130.092 72.6595C131.607 72.2262 133.073 71.8013 133.348 71.7219C133.39 71.7098 133.427 71.7074 133.466 71.7043ZM24.1534 71.9461C24.1598 71.9431 24.1637 71.9449 24.1711 71.9522C24.2893 72.0607 24.8693 73.8474 25.4629 75.9261C26.0564 78.0043 26.6187 79.9474 26.7074 80.2419C26.8224 80.6225 26.6957 80.7789 26.2769 80.7789C25.1887 80.7789 24.5984 80.0546 24.5191 78.6207C24.4779 77.8728 24.3349 76.0195 24.2005 74.5049C24.0747 73.0849 24.058 71.988 24.1534 71.9461ZM116.944 78.5789C117.035 78.5661 117.086 78.5765 117.086 78.6146C117.086 79.1049 115.509 80.788 114.614 81.2504C113.579 81.7855 112.004 81.8358 111.7 81.3443C111.459 80.9546 112.362 80.1655 113.051 80.1655C113.293 80.1655 114.298 79.7534 115.287 79.2516C116.028 78.8746 116.67 78.6189 116.944 78.5789ZM28.306 85.8492C28.3802 85.8558 28.4548 86.0177 28.5655 86.2855C29.058 87.4752 30.1019 90.3395 30.3174 91.1025C30.4244 91.4813 30.4652 91.7874 30.4118 91.7807C30.3584 91.774 29.6505 91.1558 28.837 90.4074L27.3564 89.0449L27.8047 87.2819C28.0657 86.2528 28.1823 85.8389 28.306 85.8492ZM33.3907 93.5261C33.5068 93.5655 34.0504 94.3831 34.765 95.6134C38.9577 102.831 43.057 107.653 48.8333 112.158C52.1346 114.733 54.6492 117.189 54.6492 117.842C54.6492 119.031 51.8793 118.088 48.0014 115.578C44.9149 113.58 43.4182 111.896 40.6813 107.359C39.3224 105.106 37.6294 102.326 36.9239 101.179C35.6832 99.1643 33.8253 95.1958 33.3847 93.6267C33.3626 93.5474 33.3639 93.5171 33.3907 93.5261ZM25.5456 106.934L26.1238 108.314C29.5154 116.411 33.7416 123.218 36.9832 125.802C38.3169 126.866 46.807 131.253 47.5358 131.256C47.84 131.258 51.8762 132.913 53.0155 133.503C53.5159 133.761 54.1062 134.189 54.325 134.452C54.8995 135.144 54.4561 135.045 49.7535 133.479C46.1274 132.272 37.6882 128.713 32.0753 126.02C30.0141 125.031 28.1427 124.222 27.9168 124.222C27.6909 124.222 27.2492 123.458 26.9316 122.524C26.3556 120.83 26.3527 120.821 27.0321 118.927C27.9759 116.296 27.9137 114.624 26.7843 112.212C26.274 111.121 25.7908 109.492 25.7048 108.585L25.5456 106.934ZM27.5159 125.749C27.5906 125.749 29.4227 126.615 31.5859 127.672L37.8148 130.714C40.4678 132.009 40.424 132.025 36.7414 131.115C32.5944 130.09 30.0556 129.662 28.7428 129.776L27.5631 129.883L27.4687 127.813C27.4189 126.677 27.4411 125.749 27.5159 125.749Z" fill="black" fill-opacity="0.07107"/>
<path d="M53.7002 0.0776436C53.6361 0.0746212 53.5698 0.0791285 53.4998 0.08354H53.4879C53.4341 0.0832982 53.3711 0.094806 53.3052 0.107125C53.2978 0.108502 53.2891 0.105574 53.2816 0.107125C52.4404 0.240195 51.188 0.843764 49.07 2.08826C45.0886 4.42751 32.6018 8.84242 26.5249 10.0599C23.0137 10.7636 20.7641 11.6836 18.9097 13.1731C17.495 14.3096 15.3582 17.4147 14.415 19.7061C13.4471 22.0572 12.1913 26.4206 12.1913 27.4242C12.1913 27.9797 11.7906 28.8372 11.1472 29.6706C10.0585 31.0812 9.43948 32.8046 9.43657 34.4289C9.43566 34.9553 9.24298 35.5472 9.00603 35.7438C8.07134 36.5193 7.56392 38.2563 7.43696 41.1153C7.33492 43.4134 7.05584 44.7678 6.08618 47.7604C3.3611 56.171 1.47184 63.4546 1.0192 67.2776C0.954789 67.8213 0.853525 69.2461 0.765549 70.8267C0.76168 70.8964 0.757576 70.957 0.753752 71.0273C0.707926 71.7194 0.664438 72.4073 0.641677 73.0382C0.615397 73.7661 0.60262 74.3352 0.594488 74.8188C0.575979 75.9188 0.610729 76.4813 0.736056 76.8055C0.73811 76.8128 0.73985 76.8219 0.741955 76.8291C0.943056 77.5104 1.37489 77.674 2.18711 77.8431C2.72256 77.9546 3.91567 78.3643 4.84141 78.7516C6.56085 79.4704 9.72548 80.4546 12.1912 81.0449C12.9487 81.2261 15.6989 81.4552 18.3081 81.5522C22.7434 81.7164 23.1056 81.774 23.8291 82.4479C24.2548 82.8449 25.0622 83.3322 25.6223 83.5273C25.9232 83.6322 26.134 83.7061 26.2771 83.7988L26.2829 83.8043C26.3696 83.871 26.4353 83.9534 26.4894 84.0461C26.5701 84.2504 26.5289 84.5546 26.4423 85.0958C26.3354 85.7643 25.9609 87.0885 25.6106 88.0376C25.2603 88.9873 24.8463 90.5897 24.6846 91.5988C24.3618 93.6128 24.572 97.694 25.0915 99.4352C25.3645 100.35 25.3156 100.831 24.8142 102.189C23.2096 106.536 23.2812 109.492 25.0738 113.279C26.1253 115.501 26.1701 116.304 25.351 118.215C24.6607 119.824 24.5486 122.356 25.1209 123.362C25.3803 123.818 25.56 126.458 25.6872 131.676C25.8449 138.131 25.9772 139.772 26.5603 142.189C27.1124 144.476 27.3175 145.458 28.3476 145.844L28.3653 145.85C28.6566 145.995 29.0069 146.053 29.4388 146.045C30.2453 146.099 31.3394 146.051 32.9013 145.992C38.4508 145.781 41.392 146.144 46.9992 147.725C51.2368 148.92 53.207 149.336 56.8734 149.83C57.2198 149.876 57.8567 149.924 58.6489 149.965C58.8421 150.007 58.9786 150.047 59.0029 150.072C59.1021 150.171 61.1541 150.176 63.8042 150.131H63.8752C64.3469 150.138 64.8216 150.139 65.2909 150.142C76.2239 150.219 80.9404 149.301 91.3034 145.072C99.3709 141.78 102.155 140.946 106.811 140.426C108.163 140.275 109.407 140.018 109.571 139.853C110.923 138.502 110.574 126.39 109.082 122.819C108.655 121.798 108.68 121.621 109.501 119.63C111.036 115.908 111.467 114.085 111.465 111.333C111.463 109.224 111.332 108.476 110.763 107.377C109.99 105.884 109.998 105.536 110.928 100.779C111.336 98.6952 111.474 96.4091 111.489 91.3867L111.506 84.771L111.801 84.7534H113.382C115.616 84.7534 117.238 84.1413 118.696 82.7431C119.648 81.8316 120.151 81.6413 123.186 81.0685C129.232 79.9273 136.525 77.454 137.767 76.1213C137.918 75.9588 138.029 75.8255 138.103 75.6673L138.109 75.6558C138.229 75.4746 138.286 75.2946 138.286 75.1134C138.286 74.9673 138.22 74.6134 138.115 74.1407C138.033 73.6267 137.902 72.9588 137.714 72.0176C137.155 69.2176 132.956 55.3708 130.76 49.0763C129.826 46.4027 129.717 45.7804 129.886 44.1648C130.121 41.9302 129.711 40.2533 128.542 38.6401C127.867 37.7091 127.63 36.9634 127.474 35.3027C127.102 31.3551 124.75 22.1287 123.474 19.6187C121.143 15.0319 117.66 12.9198 105.595 8.78733C96.9475 5.82507 93.4649 4.39036 91.0845 2.79677C89.8598 1.97664 88.6102 1.21039 88.3064 1.09866C87.9905 0.982431 87.0089 1.20792 86.0121 1.62342C82.5744 3.05577 76.7938 3.92719 70.6458 3.94058C64.0765 3.95487 60.4874 3.13783 54.2123 0.202472C54.0596 0.130976 53.8918 0.0877248 53.6991 0.0786509L53.7002 0.0776436ZM53.1103 2.73085C53.1126 2.73172 53.1139 2.72979 53.1164 2.73085C53.1183 2.73175 53.1202 2.73572 53.1222 2.73675L54.5851 5.24845C56.4334 8.42824 60.8048 12.8613 63.4623 14.2579C64.476 14.7903 66.3338 15.4636 67.5919 15.7496C69.5715 16.1997 70.1444 16.2151 71.8681 15.8793C74.2952 15.4066 77.0187 14.2188 79.4125 12.5833C81.1853 11.3722 85.6811 6.92708 87.2047 4.88292L87.9948 3.82749L89.4166 4.7296C90.2987 5.28685 90.8438 5.85526 90.8438 6.21545C90.8444 7.04787 88.9976 10.2141 87.2635 12.3534C84.0077 16.3692 79.7775 18.9157 74.5462 20.0067C65.1794 21.9599 55.2361 16.8822 50.538 7.7483C49.1893 5.12583 49.2303 4.9579 51.5526 3.62092L53.1098 2.73058L53.1103 2.73085ZM55.5406 4.01622C55.8041 4.032 56.7335 4.30815 57.788 4.68839C61.5936 6.06072 63.3259 6.43642 67.8568 6.51624C69.6163 6.69957 70.7422 6.69957 72.9001 6.51624C77.8718 6.42739 81.1095 6.03134 84.1077 5.17189C84.6776 5.00855 85.1979 4.92889 85.2639 4.995C85.33 5.06111 84.5121 6.03375 83.4468 7.15309C81.4848 9.21557 81.3611 9.27612 77.8373 10.0776C75.9753 10.5012 68.3328 10.6822 65.7747 10.3607C64.527 10.2039 62.3867 9.72957 61.0146 9.31115C58.5261 8.55242 58.5115 8.54896 56.9268 6.35715C56.0529 5.14838 55.3994 4.09868 55.47 4.02811C55.4787 4.0193 55.503 4.01398 55.5406 4.01622ZM47.9726 5.80279C47.975 5.80304 47.9762 5.80836 47.9786 5.8087L49.2822 8.30872C50.3241 10.3108 51.2677 11.5038 53.9598 14.2108C56.7079 16.9742 57.7868 17.8327 59.7817 18.8451C65.8439 21.9219 71.5122 22.3834 77.7433 20.3074C83.4038 18.4211 88.3119 14.0757 91.3161 8.2849C91.9218 7.11642 92.2971 6.69448 92.6488 6.80496C92.9192 6.88969 94.4532 7.47121 96.052 8.09036C97.6514 8.70951 101.902 10.2281 105.502 11.4688C117.481 15.5981 120.31 17.5705 122.071 23.0195L122.667 24.8533C122.671 24.9174 122.673 24.9834 122.673 25.0419C122.673 25.0859 122.662 25.1384 122.65 25.2012L121.299 27.6185C120.509 29.0238 119.538 30.5695 119.14 31.0561C118.435 31.9172 118.413 31.9236 118.402 31.2389C118.39 30.4493 117.571 28.6933 117.052 28.3499C116.514 27.9948 114.877 28.0818 114.474 28.4855C113.705 29.2544 114.055 29.664 115.305 29.4642C116.309 29.3038 116.552 29.3746 116.833 29.9006C117.336 30.8404 117.266 33.0138 116.733 33.0138C116.494 33.0138 115.477 33.9195 114.474 35.0304C113.471 36.1412 112.576 36.9334 112.486 36.7874C112.325 36.5268 112.561 35.1376 113.335 31.7874C113.549 30.8619 113.657 29.9965 113.577 29.8593C113.231 29.2646 112.37 30.695 112.008 32.4653C111.084 36.9853 110.944 37.8684 110.557 41.5336C110.386 43.1548 109.875 55.5333 109.519 66.6637C109.35 71.9643 109.107 77.1976 108.976 78.291C108.84 79.4291 107.609 83.6146 106.098 88.0788C104.645 92.3698 103.012 97.257 102.47 98.9394C100.09 106.327 95.9332 116.513 93.8935 119.955C93.2278 121.078 92.684 122.081 92.684 122.19C92.684 122.298 92.9774 122.344 93.3388 122.29C94.7927 122.073 99.0047 112.639 103.691 99.0934C104.069 98.0001 104.839 95.9364 105.402 94.5061C105.964 93.0758 106.861 90.6358 107.395 89.0819C107.93 87.5279 108.486 86.331 108.634 86.4225C109.012 86.6558 108.969 95.0091 108.575 98.1619C107.696 105.187 107.117 107.221 104.576 112.183C102.107 117.005 99.2527 121.996 95.8161 127.496C94.4659 129.656 93.9384 130.76 94.153 130.975C94.3252 131.147 94.6096 131.2 94.7836 131.092C95.5833 130.599 102.921 118.076 106.08 111.817C107.887 108.238 108.117 107.919 108.492 108.432C109.183 109.376 109.14 112.333 108.404 115.001C107.628 117.81 105.825 121.789 104.523 123.568C103.845 124.493 101.791 126.73 99.9572 128.538C96.7632 131.686 95.9156 133.098 97.9279 131.911C98.9132 131.33 103.461 126.738 105.284 124.487L106.399 123.108L106.741 123.981C107.354 125.564 107.83 129.772 107.95 133.102C107.95 133.13 107.95 133.157 107.95 133.184C107.947 133.439 107.939 133.692 107.932 133.945L107.856 136.876V136.881C107.798 137.238 107.72 137.482 107.62 137.583C107.417 137.785 106.79 137.949 106.228 137.949C103.359 137.949 97.6757 139.664 90.2363 142.772C83.4062 145.624 77.9846 147.081 71.8209 147.73C69.1507 148.012 62.9754 148.073 60.5483 147.842C56.6426 147.472 51.5777 146.423 46.7277 144.983C42.8195 143.822 37.4917 143.109 33.2081 143.173C31.3852 143.199 29.7791 143.101 29.6394 142.955C29.0496 142.335 28.42 136.523 28.3004 130.59C28.1981 125.52 28.0661 124.003 27.6161 122.736C27.3526 121.995 27.2133 121.594 27.215 121.174C27.2173 121.115 27.2224 121.052 27.2267 120.991C27.2279 120.978 27.2316 120.964 27.2328 120.95C27.2798 120.547 27.4461 120.064 27.74 119.228C28.6898 116.525 28.6171 114.919 27.4332 112.371C26.0985 109.498 26.0659 107.042 27.3152 103.309L28.206 100.638L27.6986 98.5207C26.9479 95.4116 27.034 92.3206 27.9523 89.4285C28.3729 88.1043 28.7989 86.5704 28.9019 86.0207C29.1196 84.8613 29.4933 84.7194 29.7277 85.7079C30.1828 87.6267 33.7088 97.2231 35.0485 100.189C37.7044 106.07 42.5145 114.359 45.7781 118.674C47.1389 120.473 49.8081 123.261 50.1667 123.261C50.8266 123.261 50.3462 122.261 48.8867 120.602C48.0272 119.624 46.7353 118.003 46.0199 116.993C42.8299 112.49 36.5024 100.405 34.0044 94.0461C32.9797 91.437 31.0149 85.4407 29.1912 79.3649C28.7366 77.8504 28.2445 76.2655 28.0999 75.8449C27.0338 72.7425 25.4617 63.2582 25.7699 61.7879C25.8605 61.3564 25.7427 59.834 25.5104 58.4036C24.3909 51.5119 24.1851 44.0744 24.9264 37.6017C25.7484 30.4242 25.7741 29.061 25.1387 27.3601C24.7033 26.1938 24.2476 25.6255 23.1981 24.9308C22.4444 24.4319 21.7224 23.8419 21.5878 23.6218C21.2281 23.0334 19.9084 23.1385 19.5645 23.781C19.4009 24.0865 19.2208 25.2219 19.1635 26.3046C19.1061 27.3872 18.9261 28.2629 18.7623 28.2563C18.3002 28.2374 16.0903 24.4104 16.0903 23.6278C16.0903 22.5563 17.373 19.5936 18.674 17.655C20.5302 14.8888 22.2432 13.8119 26.1182 12.9734C31.6936 11.767 41.7457 8.57272 46.2264 6.58193L47.9724 5.80366L47.9726 5.80279ZM61.6694 11.0622C61.7937 11.0563 62.0338 11.0959 62.4128 11.1625C62.9869 11.2634 63.9352 11.5013 64.5245 11.6872C66.0852 12.1796 75.7067 12.1392 77.1709 11.6342C77.8136 11.4125 78.412 11.3005 78.4981 11.3865C78.7225 11.6108 76.1269 13.0804 74.2394 13.798C72.3859 14.5031 68.8857 14.7675 67.1614 14.3346C65.6838 13.9637 62.5971 12.3402 61.8938 11.5633C61.5761 11.2124 61.4627 11.0719 61.6694 11.0621V11.0622ZM21.1037 25.1248C21.8675 25.1536 23.4469 26.934 23.817 28.2557C24.1729 29.5257 24.0477 32.9802 23.6047 34.1342C23.5192 34.3572 23.3591 34.5384 23.2508 34.5351C22.6915 34.5185 20.1155 32.6119 19.2751 31.5929C18.0889 30.1544 18.0218 29.5599 19.0745 29.824C19.9888 30.0533 20.0946 29.8433 20.39 27.2002C20.509 26.1338 20.7675 25.207 20.9621 25.1425C21.0051 25.1282 21.0529 25.1227 21.1037 25.1248ZM123.079 27.3889C123.189 27.3953 123.26 27.5606 123.363 27.831C123.934 29.3423 124.79 33.8495 124.997 36.4395C125.189 38.8495 125.288 39.1753 126.076 39.877C127.159 40.8421 127.394 41.7393 127.179 44.1106C127.026 45.7967 127.171 46.4359 128.683 50.8853C130.133 55.1508 134.538 69.4473 134.605 70.0946C134.603 70.1128 134.605 70.1303 134.599 70.1479C134.349 70.4237 130.303 71.7322 127.881 72.3122C126.787 72.574 125.409 72.9164 124.82 73.0728C124.23 73.2285 120.546 74.1388 119.747 74.3394C118.821 75.2831 118.945 74.2455 119.322 75.1134C120.206 75.1134 127.843 73.5831 131.668 72.4237C133.329 71.9201 134.787 71.6237 134.912 71.7637C135.038 71.9031 135.304 72.5013 135.502 73.0904C135.823 74.0461 135.792 74.2134 135.23 74.6704C134.376 75.3655 128.775 77.2007 124.666 78.1316C122.814 78.551 120.914 78.8964 120.443 78.8982L119.582 78.9037L119.747 76.3801C120.133 70.394 120.326 63.034 120.502 47.3878L120.691 30.7957C120.722 30.7218 120.757 30.6448 120.797 30.5599L121.882 28.8972C122.602 27.801 122.896 27.377 123.079 27.3878V27.3889ZM14.8691 27.8134C14.9956 27.8134 15.4395 28.4657 15.8601 29.2638C16.6247 30.7151 19.9132 34.0884 22.1892 35.7616L23.3925 36.6519L23.1271 39.1933C22.83 41.9987 23.079 52.0529 23.5341 55.6497C23.694 56.9116 23.946 59.7359 24.1003 61.9231C24.2549 64.1104 24.5256 66.7273 24.6963 67.737C25.059 69.8843 26.6176 75.9716 27.5217 78.7685C27.8681 79.8407 28.0652 80.8594 27.9582 81.0328C27.547 81.6976 26.4391 81.3055 25.3214 80.0952C24.08 78.751 23.9173 78.711 20.9092 79.0637C20.7508 79.0819 20.5844 79.0976 20.4196 79.1104L19.0571 79.0988C18.3599 79.091 17.773 79.08 17.2344 79.0691C13.6146 78.7546 9.17652 77.5964 4.68791 75.7437C3.17969 75.1213 2.83874 74.8419 2.75901 74.1873C2.70197 73.7188 2.83602 73.3273 3.08345 73.2322C3.31486 73.1437 12.4862 75.7437 14.6569 75.8449C17.2344 76.4152 26.9751 77.0631 27.2092 76.8291C27.84 75.3843 21.4336 76.2031 6.25701 72.3479C4.71956 71.8128 3.41886 71.3358 3.20141 71.2273C3.17861 71.1916 3.15875 71.1534 3.14243 71.1152C3.1343 70.3413 4.19579 64.5679 4.87072 61.7813C5.71346 58.3023 8.14113 50.0351 8.84045 48.2616C9.51624 46.548 10.3491 41.9855 10.3505 39.9951C10.3512 38.9218 10.5434 38.341 11.1114 37.6661C12.1205 36.4676 12.4976 35.3959 12.4976 33.7274C12.4976 32.5872 12.6832 32.1219 13.5653 31.0918C14.3231 30.2068 14.6388 29.5463 14.6388 28.8276C14.6388 28.2691 14.7423 27.8134 14.8689 27.8134H14.8691ZM119.393 33.3265C119.414 33.3287 119.431 33.335 119.446 33.3501C119.672 33.5755 119.075 72.531 118.821 74.1576C118.539 75.9655 117.885 76.8734 116.06 77.9782C114.798 78.7431 113.954 79.0073 112.379 79.134L110.338 79.2988L110.545 78.1079C110.965 75.6922 111.342 64.4037 111.324 54.7344C111.306 45.2718 111.58 41.0518 112.303 39.6872C112.861 38.6338 116.272 34.5399 116.591 34.5399C116.812 34.5399 116.854 35.0789 116.721 36.1495C116.136 40.8629 113.877 51.6599 113.058 53.6612C112.852 54.1661 112.428 55.577 112.114 56.798C111.655 58.5836 111.615 59.0919 111.926 59.3982C112.234 59.7023 112.39 59.6759 112.704 59.2508C113.027 58.8131 114.282 54.0689 115.955 46.9336C116.434 44.8895 117.085 41.2648 117.47 38.5197C117.671 37.0895 117.891 35.6427 117.96 35.3063C118.105 34.5957 119.076 33.2889 119.393 33.3251V33.3265ZM118.101 78.2904C119.219 78.2904 117.053 81.171 115.423 81.8522C114.458 82.2552 113.357 82.3316 112.12 82.0704L110.816 81.7928C109.627 81.5388 109.981 80.7376 111.282 80.7376C112.559 80.7376 115.096 79.8934 116.745 78.9213C117.334 78.574 117.943 78.2904 118.101 78.2904ZM36.7586 85.6728C36.1003 85.6376 36.3286 86.4867 37.6255 89.0807C44.6999 103.227 57.8961 118.53 70.4937 127.188C72.6254 128.653 74.3692 128.946 73.4725 127.689C73.3488 127.516 71.833 126.373 70.1044 125.148C65.9591 122.211 63.8297 120.429 59.8229 116.546C52.0746 109.035 44.2614 98.6885 39.3787 89.4643C38.1935 87.2249 37.234 85.7534 36.9071 85.6904C36.8556 85.6807 36.8037 85.6752 36.7597 85.6728H36.7586ZM29.0254 125.042C28.7957 125.061 28.7187 125.193 28.7187 125.419C28.7187 125.766 33.5403 128.209 38.6106 130.432C40.6592 131.33 43.3014 132.524 44.4798 133.079C45.6583 133.635 48.0683 134.6 49.8358 135.231C53.1036 136.398 54.8851 136.615 54.8851 135.844C54.8851 135.762 54.7361 135.646 54.4839 135.502L54.4721 135.49C54.3618 135.399 54.2125 135.322 54.0592 135.278L54.0415 135.272C53.3886 134.967 52.3802 134.584 51.0569 134.14C46.6943 132.676 39.5042 129.678 33.4198 126.782C30.7565 125.513 29.5305 125.001 29.0254 125.042V125.042Z" fill="black"/>
</g>
</g>
<defs>
<clipPath id="clip0_685_1286">
<rect width="136.848" height="150" fill="white" transform="translate(0.5)"/>
</clipPath>
</defs>
</svg>
