<svg width="186" height="180" viewBox="0 0 186 180" fill="none" xmlns="http://www.w3.org/2000/svg">
<path fill-rule="evenodd" clip-rule="evenodd" d="M92.4956 144.93C86.5312 144.932 80.5669 146.475 75.2222 149.561L72.2203 151.87H112.797L109.773 149.548C104.426 146.467 98.4621 144.927 92.4956 144.93ZM149.437 25.1114V68.4094L149.66 68.3399C162.06 63.1021 170.759 50.8398 170.759 36.5483H170.785V25.1114H149.437ZM14.2321 25.1114V38.5193H14.2584C14.2584 52.8111 22.9575 65.0732 35.3569 70.3109L35.5803 70.3804V25.1114H14.2321ZM35.5803 0H149.437V10.8958H185.017V23.6257V25.1114V36.5483V37.8413H184.919L184.455 43.9718C181.862 60.9152 170.538 74.988 155.211 81.463L148.478 83.5511L148.281 85.4993C143.635 108.172 125.481 125.929 102.585 130.014L93.91 130.779L98.7971 131.093C105.079 131.908 111.236 133.947 116.9 137.212C122.565 140.477 127.412 144.78 131.262 149.804L132.641 151.87H138.503C144.541 151.87 149.437 156.76 149.437 162.792V165.784H149.691V180H138.503H46.5149H35.8343V170.337L35.5803 169.078V162.792C35.5803 156.76 40.4761 151.87 46.5149 151.87H52.3763L53.7339 149.832C57.5787 144.806 62.4242 140.498 68.0864 137.23C73.7486 133.961 79.9056 131.917 86.1831 131.098L90.9716 130.786L83.8381 130.247C64.0511 127.227 47.6163 114.031 40.0535 96.1729L36.7648 85.5919L29.8064 83.434C12.29 76.0341 0 58.7104 0 38.5193V25.1114V24.3037V10.8958H35.5803V0Z" fill="#6A3E90"/>
</svg>
