<svg width="24" height="24" xmlns="http://www.w3.org/2000/svg" xmlns:xlink="http://www.w3.org/1999/xlink" xml:space="preserve" overflow="hidden"><g transform="translate(-662 -344)"><path d="M674 350.69 679 355.19 679 363 677 363 677 357 671 357 671 363 669 363 669 355.19 674 350.69ZM674.669 348.602C674.289 348.26 673.711 348.26 673.331 348.602L665.937 355.257C665.256 355.87 665.689 357 666.606 357L667 357 667 364C667 364.552 667.448 365 668 365L672 365C672.552 365 673 364.552 673 364L673 359 675 359 675 364C675 364.552 675.448 365 676 365L680 365C680.552 365 681 364.552 681 364L681 357 681.394 357C682.31 357 682.744 355.87 682.063 355.257L674.669 348.602Z" fill="#FFFFFF"/><path d="M674.434 349.783 681.952 356.841 679.928 356.841 679.928 364.805 676.137 364.805 676.137 359.562 672.008 359.562 672.008 365.108 668.22 365.108 668.22 356.841 670.004 356.841 670.004 356.841 666.916 356.841Z" fill="#FFFFFF" fill-rule="evenodd"/></g></svg>