<svg width="34" height="34" viewBox="0 0 34 34" fill="none" xmlns="http://www.w3.org/2000/svg">
<path d="M34 17C34 26.3888 26.3888 34 17 34C7.61116 34 0 26.3888 0 17C0 7.61116 7.61116 0 17 0C26.3888 0 34 7.61116 34 17Z" fill="white"/>
<path fill-rule="evenodd" clip-rule="evenodd" d="M17.3327 25.3239C16.5375 25.3242 15.7423 25.5301 15.0296 25.9414L14.6294 26.2493H20.0396L19.6364 25.9397C18.9235 25.5289 18.1283 25.3236 17.3327 25.3239ZM24.925 9.34819V15.1213L24.9547 15.112C26.608 14.4136 27.7679 12.7786 27.7679 10.8731H27.7714V9.34819H24.925ZM6.89761 9.34819V11.1359H6.90112C6.90112 13.0415 8.061 14.6764 9.71426 15.3748L9.74404 15.3841V9.34819H6.89761ZM9.74404 6H24.925V7.45277H29.669V11.0455H29.6559L29.594 11.8629C29.2483 14.122 27.7384 15.9984 25.6948 16.8617L24.7971 17.1401L24.7708 17.3999C24.1513 20.4229 21.7308 22.7905 18.678 23.3352L17.5213 23.4372L18.1729 23.4791C19.0105 23.5877 19.8315 23.8596 20.5867 24.2949C21.342 24.7302 21.9883 25.304 22.5016 25.9738L22.6855 26.2493H23.467C24.2722 26.2493 24.925 26.9013 24.925 27.7056V28.1045H24.9588V30H9.7779V28.7116L9.74404 28.5437V27.7056C9.74404 26.9013 10.3968 26.2493 11.202 26.2493H11.9835L12.1645 25.9776C12.6772 25.3075 13.3232 24.7331 14.0782 24.2973C14.8331 23.8614 15.6541 23.5889 16.4911 23.4797L17.1296 23.4381L16.1784 23.3663C13.5401 22.9636 11.3488 21.2041 10.3405 18.8231L9.90198 17.4122L8.97419 17.1245C6.63866 16.1379 5 13.8281 5 11.1359V7.45277H9.74404V6Z" fill="#6A3E90"/>
</svg>
