<svg width="34" height="34" viewBox="0 0 34 34" fill="none" xmlns="http://www.w3.org/2000/svg">
<path d="M34 17C34 26.3888 26.3888 34 17 34C7.61116 34 0 26.3888 0 17C0 7.61116 7.61116 0 17 0C26.3888 0 34 7.61116 34 17Z" fill="white"/>
<path fill-rule="evenodd" clip-rule="evenodd" d="M25.1964 13.09L23.4843 14.8021L22.1971 13.5271L15.9436 19.7807V22.355L9.50786 28.7907C9.03429 29.2643 8.26929 29.2643 7.79571 28.7907L5.22143 26.2164C4.74786 25.7429 4.74786 24.9779 5.22143 24.5043L11.6571 18.0686H14.2314L15.2636 17.0364L10.2486 12.0214H8.53643L4.85714 8.34214L8.29357 4.90571L11.9607 8.57286V10.2971L16.9757 15.3121L20.485 11.8029L19.1979 10.5157L20.91 8.80357H17.4736L16.6114 7.94143L20.91 3.64286L21.76 4.505V7.92929L23.4721 6.21714L27.7707 10.5157C29.1914 11.9364 29.1914 14.2436 27.7707 15.6643L25.1964 13.09ZM8.64571 26.2043L13.7943 21.0557L12.9321 20.1936L7.78357 25.3421L8.64571 26.2043Z" fill="#434343"/>
<path fill-rule="evenodd" clip-rule="evenodd" d="M22.3064 18.0562L28.7421 24.4919C29.2157 24.9655 29.2157 25.7426 28.7421 26.2041L26.1678 28.7783C25.6942 29.2519 24.9292 29.2519 24.4557 28.7783L18.0199 22.3426V21.1405L21.1042 18.0562H22.3064ZM20.1571 21.0676L25.3057 26.2162L26.1678 25.3541L21.0192 20.2055L20.1571 21.0676Z" fill="#434343"/>
</svg>
