<svg width="34" height="34" viewBox="0 0 34 34" fill="none" xmlns="http://www.w3.org/2000/svg">
<path d="M34 17C34 26.3888 26.3888 34 17 34C7.61116 34 0 26.3888 0 17C0 7.61116 7.61116 0 17 0C26.3888 0 34 7.61116 34 17Z" fill="white"/>
<path fill-rule="evenodd" clip-rule="evenodd" d="M5 9.41562H6.40875V25.0198L6.51834 25.0276C10.1709 25.1442 14.8074 24.5017 16.2956 26.2885V26.3319H6.40875V26.3363H5V9.41562ZM27.5912 9.41562H29V26.3363H27.5912V26.3319H17.7044V26.2885C19.1926 24.5017 23.829 25.1442 27.4817 25.0276L27.5912 25.0198V9.41562ZM26.2206 8V23.5062C23.3819 23.7157 19.4276 23.1392 17.7659 24.4797C17.7868 19.2377 17.7305 14.0275 17.7515 8.78543C20.5745 7.5654 23.3976 8.26181 26.2206 8ZM7.77938 8C10.6024 8.26181 13.4255 7.5654 16.2485 8.78543C16.2694 14.0275 16.2132 19.2377 16.2341 24.4797C14.5724 23.1392 10.6181 23.7157 7.77938 23.5062V8Z" fill="#5C97C5"/>
</svg>
