<svg width="188" height="33" viewBox="0 0 188 33" fill="none" xmlns="http://www.w3.org/2000/svg">
<path d="M173.135 22.9335C172.463 23.6826 171.56 24.3164 170.465 24.8542C169.351 25.392 168.045 25.6609 166.527 25.6609C165.202 25.6609 163.992 25.4496 162.916 25.0079C161.841 24.5853 160.9 23.9707 160.131 23.1832C159.355 22.3808 158.741 21.4348 158.326 20.3981C157.887 19.2719 157.665 18.0727 157.673 16.864C157.658 15.6963 157.887 14.5384 158.345 13.4643C158.787 12.4079 159.402 11.4667 160.189 10.6792C160.987 9.8739 161.942 9.23994 162.993 8.8161C164.069 8.35512 165.26 8.14384 166.547 8.14384C168.045 8.14384 169.332 8.39353 170.427 8.87372C171.521 9.3539 172.443 10.0069 173.192 10.8329L170.158 14.1173C169.793 13.6948 169.332 13.3298 168.794 13.0033C168.256 12.6768 167.545 12.5039 166.662 12.5039C166.047 12.5039 165.509 12.6191 165.029 12.8688C164.549 13.1185 164.146 13.4451 163.8 13.8292C163.454 14.2326 163.205 14.6935 163.032 15.2121C162.854 15.7447 162.763 16.3025 162.763 16.864C162.763 17.4018 162.84 17.9396 163.032 18.4582C163.205 18.9768 163.454 19.4569 163.8 19.8603C164.146 20.2637 164.549 20.6094 165.029 20.8591C165.509 21.1088 166.047 21.2432 166.662 21.2432C167.526 21.2432 168.256 21.0704 168.832 20.7438C169.409 20.3981 169.889 20.0332 170.234 19.649L173.135 22.9335ZM84.7043 20.7246C85.3573 21.1664 86.3177 21.3969 87.6046 21.3969C88.8338 21.3969 89.8134 20.9743 90.5241 20.1484C91.2348 19.3225 91.5997 18.2277 91.5997 16.8448C91.6033 16.3137 91.5388 15.7844 91.4076 15.2698C91.292 14.7893 91.0902 14.3338 90.8122 13.9252C90.5408 13.5362 90.178 13.2196 89.7558 13.0033C89.3332 12.7728 88.7954 12.6576 88.1616 12.6576C87.6046 12.6576 87.1052 12.7728 86.6826 12.9649C86.2601 13.1762 85.8951 13.4451 85.607 13.81C85.3132 14.1633 85.0854 14.5667 84.9348 15.0009C84.7822 15.4393 84.7043 15.9003 84.7043 16.3646V20.7246ZM79.7104 8.66244H84.5314L84.6466 9.54597L84.7235 10.4295C85.2613 9.75725 85.9527 9.23866 86.7787 8.87372C87.6238 8.50878 88.4881 8.33591 89.4101 8.33591C90.6009 8.33591 91.6381 8.5664 92.5601 9.02738C93.4628 9.48835 94.2311 10.1222 94.8265 10.8905C95.4412 11.678 95.8829 12.5615 96.1902 13.5795C96.4976 14.5975 96.6512 15.6347 96.6512 16.7103C96.6512 18.2277 96.4015 19.5338 95.8829 20.667C95.3643 21.781 94.7113 22.703 93.8854 23.4329C93.0594 24.1627 92.1375 24.7005 91.1195 25.0463C90.1015 25.392 89.0835 25.5649 88.0848 25.5649C87.2973 25.5649 86.6442 25.488 86.1256 25.3536L84.7235 24.931V32.0185H79.7296V8.66244H79.7104ZM144.055 14.0981C144.21 13.7285 144.432 13.3901 144.708 13.0993C144.996 12.792 145.361 12.5423 145.803 12.3502C146.245 12.1582 146.763 12.0621 147.339 12.0621C147.916 12.0621 148.415 12.1582 148.837 12.3502C149.236 12.5274 149.595 12.782 149.894 13.0993C150.182 13.4066 150.374 13.7332 150.528 14.0981C150.662 14.463 150.739 14.8088 150.739 15.1737H143.824C143.829 14.8034 143.907 14.4378 144.055 14.0981ZM153.025 20.1868C152.66 20.4557 152.084 20.7823 151.315 21.1472C150.489 21.5313 149.433 21.7234 148.127 21.7234C146.802 21.7234 145.745 21.3969 144.996 20.7246C144.247 20.0524 143.844 19.2841 143.824 18.4005H155.502V17.5554C155.502 16.1725 155.33 14.924 154.984 13.7524C154.674 12.6643 154.144 11.6512 153.428 10.7752C152.737 9.94933 151.891 9.29628 150.893 8.8353C149.894 8.37433 148.722 8.14384 147.397 8.14384C146.072 8.14384 144.881 8.37433 143.824 8.85451C142.768 9.33469 141.884 9.96853 141.174 10.756C140.432 11.5602 139.863 12.5081 139.503 13.5411C139.119 14.6002 138.924 15.7183 138.927 16.8448C138.927 18.1509 139.138 19.3417 139.541 20.4365C139.919 21.4879 140.529 22.4401 141.327 23.2216C142.115 23.9899 143.056 24.5853 144.17 25.0271C145.284 25.4496 146.552 25.6801 147.954 25.6801C149.01 25.6801 149.932 25.5841 150.758 25.3728C151.565 25.1807 152.276 24.9502 152.871 24.7005C153.466 24.4509 153.947 24.1819 154.312 23.913C154.408 23.8554 154.484 23.7786 154.58 23.721L153.025 20.1868ZM185.754 20.763C185.447 20.9743 185.101 21.1856 184.755 21.3393C184.339 21.5262 183.886 21.618 183.43 21.6082C182.758 21.6082 182.258 21.3969 181.951 20.9551C181.644 20.5134 181.471 19.9179 181.471 19.1112V12.6384H185.696V8.68164H181.471V3.76457L176.438 5.97341V8.72006H173.845V12.6768H176.438V18.8615C176.438 19.8795 176.534 20.8207 176.746 21.6658C176.957 22.5109 177.303 23.2216 177.802 23.817C178.282 24.4124 178.935 24.8734 179.723 25.2191C180.51 25.5649 181.49 25.7185 182.662 25.7185C184.313 25.7185 185.85 25.2191 187.271 24.2396L185.754 20.763ZM110.922 8.70085C110.623 8.59092 110.314 8.50737 110 8.45116C109.624 8.40922 109.246 8.38998 108.867 8.39353C107.695 8.39353 106.754 8.64323 106.024 9.16183C105.295 9.68042 104.718 10.2182 104.296 10.7752L104.123 8.72006H99.3018V25.1231H104.334V17.0176C104.334 15.7115 104.699 14.7127 105.429 14.0021C106.159 13.2914 107.119 12.9457 108.31 12.9457C108.567 12.9484 108.823 12.9612 109.078 12.9841L110.922 8.70085ZM136.045 21.9539V8.70085L131.013 8.66244V21.9539C131.013 23.3191 130.471 24.6284 129.505 25.5938C128.54 26.5591 127.231 27.1015 125.866 27.1015V32.1338C131.474 32.153 136.045 27.5816 136.045 21.9539ZM119.085 21.3008C119.719 21.3008 120.276 21.1856 120.756 20.9359C121.256 20.6862 121.659 20.3597 122.005 19.9371C122.351 19.5146 122.6 19.0344 122.754 18.5158C122.908 17.9972 123.004 17.4594 123.004 16.8832C123.004 16.3069 122.927 15.7884 122.754 15.2505C122.598 14.7389 122.343 14.2626 122.005 13.8484C121.659 13.4451 121.256 13.1185 120.756 12.8688C120.276 12.6191 119.7 12.5039 119.085 12.5039C118.452 12.5039 117.895 12.6191 117.395 12.8688C116.896 13.1185 116.473 13.4451 116.147 13.8484C115.815 14.2673 115.562 14.7422 115.398 15.2505C115.225 15.7691 115.129 16.3069 115.129 16.8832C115.129 17.4594 115.225 17.978 115.398 18.5158C115.57 19.0344 115.82 19.5146 116.147 19.9371C116.482 20.3606 116.908 20.7022 117.395 20.9359C117.895 21.1664 118.452 21.3008 119.085 21.3008ZM110.288 16.8832C110.288 15.6731 110.5 14.5399 110.941 13.4835C111.359 12.4479 111.972 11.5023 112.747 10.6984C113.535 9.88929 114.483 9.25457 115.532 8.8353C116.627 8.37433 117.818 8.14384 119.124 8.14384C120.43 8.14384 121.621 8.37433 122.696 8.8353C123.772 9.29628 124.694 9.91091 125.462 10.6984C126.235 11.5041 126.848 12.4492 127.268 13.4835C127.69 14.5399 127.921 15.6731 127.921 16.8832C127.921 18.0932 127.709 19.2265 127.268 20.2829C126.85 21.3185 126.237 22.264 125.462 23.0679C124.674 23.8722 123.734 24.512 122.696 24.9502C121.621 25.4112 120.43 25.6417 119.124 25.6417C117.818 25.6417 116.627 25.4112 115.532 24.9502C114.456 24.4893 113.515 23.8554 112.747 23.0679C111.974 22.2623 111.362 21.3172 110.941 20.2829C110.5 19.2265 110.288 18.0932 110.288 16.8832ZM15.0009 1.7478H19.9948V10.2374C20.5326 9.6036 21.2433 9.12341 22.1268 8.77768C23.0104 8.43195 23.9131 8.27829 24.8159 8.27829C26.6982 8.27829 28.2156 8.8353 29.3488 9.94933C30.482 11.0634 31.039 12.7152 31.039 14.9048V25.0463H26.0451V15.6923C26.0451 14.7319 25.7954 13.9829 25.3152 13.4451C24.8351 12.9073 24.182 12.6384 23.3561 12.6384C22.8183 12.6384 22.3381 12.7344 21.9156 12.9265C21.5112 13.1105 21.151 13.3791 20.8591 13.714C20.5851 14.053 20.3708 14.4362 20.2253 14.8472C20.0837 15.2945 20.0125 15.761 20.014 16.2301V25.0463H15.0009V1.7478ZM42.6979 8.66244H47.5189L47.6534 10.4487C48.1912 9.79567 48.9018 9.27707 49.7662 8.87372C50.6305 8.47036 51.5524 8.27829 52.5128 8.27829C54.3951 8.27829 55.8933 8.8353 57.0073 9.94933C58.1213 11.0634 58.6591 12.7152 58.6591 14.9048V25.0463H53.6268V15.6155C53.6268 14.7127 53.3963 13.9829 52.9546 13.4451C52.4936 12.9073 51.8598 12.6384 51.053 12.6384C50.496 12.6384 49.9966 12.7344 49.5933 12.9265C49.189 13.1105 48.8288 13.3791 48.5369 13.714C48.2488 14.0405 48.0375 14.4246 47.9031 14.8472C47.763 15.2948 47.6917 15.7611 47.6918 16.2301V25.0463H42.6979V8.66244Z" fill="white"/>
<path d="M61.8091 1.74787H66.8415V13.8485L71.8354 8.6625H77.5399L71.6625 14.7128L78.3467 25.0655H72.5076L68.3204 18.1317L66.8415 19.6491V25.0655H61.8091V1.74787ZM34.2466 10.8713V25.0655H39.2982V8.6625L34.2466 10.8713ZM11.9085 20.7247C11.6012 20.936 11.2555 21.1473 10.9098 21.3009C10.5448 21.4738 10.0838 21.5698 9.58445 21.5698C8.9122 21.5698 8.41281 21.3585 8.10549 20.9168C7.79817 20.475 7.62531 19.8796 7.62531 19.0729V12.6192H11.8509V8.6625H7.62531V3.72622L2.59299 5.93506V8.68171H0V12.6384H2.59299V18.8232C2.59299 19.8412 2.68902 20.7823 2.90031 21.6274C3.11159 22.4726 3.45732 23.1832 3.95671 23.7787C4.4561 24.3741 5.08994 24.8351 5.87744 25.1808C6.66494 25.5265 7.64451 25.6802 8.81616 25.6802C10.468 25.6802 12.0046 25.1808 13.4259 24.2012L11.9085 20.7247ZM43.3317 0L34.2466 3.99512V8.75854L43.3317 4.76341V0Z" fill="white"/>
</svg>
