<svg width="236" height="180" viewBox="0 0 236 180" fill="none" xmlns="http://www.w3.org/2000/svg">
<path fill-rule="evenodd" clip-rule="evenodd" d="M2.82824e-05 13.8966H13.8291V167.076L14.9049 167.152C50.7609 168.297 96.2749 161.99 110.884 179.53V179.956H13.8291V180H2.82824e-05V13.8966ZM221.768 13.8966H235.598V180H221.768V179.956H124.714V179.53C139.323 161.99 184.837 168.297 220.693 167.152L221.768 167.076V13.8966ZM208.314 0V152.218C180.447 154.274 141.629 148.615 125.317 161.774C125.523 110.315 124.97 59.1691 125.176 7.7102C152.888 -4.26632 180.601 2.57006 208.314 0ZM27.284 0C54.9965 2.57006 82.7093 -4.26632 110.422 7.7102C110.627 59.1691 110.075 110.315 110.28 161.774C93.9686 148.615 55.1505 154.274 27.284 152.218V0Z" fill="#5C97C5"/>
</svg>
